    <svg
      xmlns="http://www.w3.org/2000/svg"
      xmlns:xlink="http://www.w3.org/1999/xlink"
      version="1.1"
      x="0px"
      y="0px"
      viewBox="0 0 100 125"
      enable-background="new 0 0 100 100"
      xml:space="preserve"
    >
      <g>
        <g>
          <path
            fill="#ffffff"
            d="M61.2832,75.1875c-4.2168-0.86133-16.3125-1.35449-18.9502-1.35449    c-2.50684,0-10.03711-0.62891-19.5752-2.31738c-5.99609-1.0625-10.04395-3.11719-11.39746-5.78613    c-1.12695-2.22168-1.5791-5.47168-1.53418-7.61426l0.27539-2.375l1.57812-0.39551c0.36719-0.09082,0.65039-0.38184,0.7334-0.75    l0.36133-1.60645l1.4043,0.19043c0.39453,0.05078,0.77441-0.12793,0.98145-0.46094l0.80469-1.28711l1.22168,0.49609    c0.4375,0.17773,0.94434,0.02344,1.20801-0.37207l1.0957-1.64453l1.05762,0.63477c0.44531,0.2666,1.01465,0.15137,1.31934-0.26465    l1.20117-1.62891l1.21387,0.75879c0.40332,0.25195,0.92871,0.18555,1.25586-0.16016l1.66602-1.75781l1.04688,0.70996    c0.39258,0.2666,0.91699,0.22168,1.25879-0.11035l1.64746-1.60059l1.53418,0.87695    c0.37012,0.21289,0.83789,0.16504,1.15723-0.11816l1.50586-1.32812l1.2832,0.99414c0.37109,0.28613,0.88965,0.27734,1.25-0.02051    l1.49902-1.24219l1.10645,1.06641c0.35645,0.34375,0.91309,0.375,1.30469,0.07227l1.50195-1.1582l1.62793,1.58301    c0.33008,0.32031,0.83398,0.37402,1.22266,0.13379l1.5127-0.93359l1.69629,1.41406    c0.33496,0.27832,0.81152,0.30957,1.18066,0.07324l1.86426-1.19531l1.69727,1.22656    c0.41504,0.30078,0.99023,0.23828,1.33203-0.14453l1.02441-1.14746l2.04785,1.16309    c0.40625,0.22949,0.91406,0.15137,1.23047-0.19238l1.1543-1.25488l2.96289-0.10547c0.625,0.10547,2.58496,0.22168,4.89648-1.96484    c0.40137-0.37988,0.41895-1.0127,0.03906-1.41406c-0.38086-0.40137-1.0127-0.41699-1.41406-0.03906    c-1.81934,1.7207-3.13965,1.45312-3.17188,1.4502c-0.09668-0.02734-0.19043-0.04199-0.30176-0.03516l-3.5,0.125    c-0.2666,0.00879-0.51855,0.125-0.7002,0.32227l-0.89844,0.97656l-2.05859-1.16895    c-0.41016-0.23145-0.92578-0.14844-1.24023,0.20312l-0.96191,1.07715l-1.51855-1.09668    c-0.33398-0.24023-0.7793-0.25293-1.12598-0.03125l-1.82031,1.16699l-1.68652-1.40625    c-0.33105-0.27441-0.7998-0.30957-1.16602-0.08203l-1.46191,0.90234l-1.69043-1.64355    c-0.35742-0.34668-0.91504-0.37988-1.30762-0.0752l-1.50488,1.16016l-1.12793-1.08789    c-0.36719-0.35352-0.93945-0.375-1.33203-0.05078l-1.57129,1.30176l-1.30371-1.00977    c-0.37891-0.29199-0.91406-0.27637-1.27441,0.04102l-1.58789,1.40137l-1.56641-0.89453    c-0.3877-0.22266-0.87207-0.16016-1.19336,0.15137l-1.60254,1.55664l-1.07617-0.72949    c-0.4043-0.27441-0.95117-0.21777-1.28711,0.13965l-1.6875,1.78125l-1.30664-0.81641    c-0.44629-0.2793-1.02637-0.16699-1.33496,0.25488l-1.21094,1.64258l-1.09473-0.65723    c-0.46094-0.27734-1.05078-0.1416-1.34668,0.30273l-1.17285,1.75879l-1.24414-0.50586    c-0.44629-0.18066-0.96582-0.01465-1.22363,0.39648l-0.9082,1.45312l-1.67285-0.22656    c-0.51074-0.07129-0.99609,0.26465-1.10938,0.77148l-0.42773,1.89941l-1.65137,0.41309    c-0.4043,0.10059-0.70312,0.44141-0.75098,0.85449l-0.36133,3.1543c-0.05273,2.30371,0.37207,5.95312,1.74414,8.65723    c2.10742,4.15723,8.1416,6.02051,12.83203,6.85059c9.73242,1.72363,17.24707,2.34863,19.92383,2.34863    c3.02051,0,14.71582,0.53027,18.5498,1.31348c0.06738,0.01367,0.13477,0.02051,0.20117,0.02051    c0.46484,0,0.88184-0.32617,0.97852-0.7998C62.17285,75.82617,61.82422,75.29785,61.2832,75.1875z"
          />
          <path
            fill="#ffffff"
            d="M29.30273,56.28516c-0.25781-0.48828-0.86035-0.67676-1.35059-0.4209    c-0.48926,0.25684-0.67773,0.86133-0.4209,1.35059l0.82697,1.57446c-7.02283-0.82324-10.42981,3.66113-10.58185,3.8689    c-0.3252,0.44434-0.22949,1.06543,0.21289,1.39355c0.17871,0.13184,0.38672,0.19531,0.59277,0.19531    c0.30566,0,0.60742-0.13867,0.80469-0.40137c0.13062-0.17444,3.13623-4.05115,9.47705-2.96277    c-0.86438,2.86926-0.63275,3.49756-0.55029,3.71765C28.46387,65.00293,28.84473,65.25,29.25,65.25    c0.11719,0,0.23535-0.02051,0.35059-0.06348c0.48926-0.18359,0.75-0.70898,0.61328-1.20215    c-0.01855-0.47266,0.44531-2.21484,0.90137-3.58496c0.08691-0.25781,0.06348-0.54004-0.0625-0.78125L29.30273,56.28516z"
          />
          <path
            fill="#ffffff"
            d="M29.70117,66.22949c-0.26465-0.31348-0.69434-0.43555-1.08008-0.30273l-2.31152,0.77051l-1.39258-1.05664    c-0.24512-0.18555-0.56348-0.24707-0.85742-0.1709l-1.94727,0.50977l-0.85156-1.23438    c-0.23047-0.33301-0.63574-0.5-1.0332-0.41016l-2.0625,0.44141l-1.4873-1.63672c-0.22949-0.25098-0.57227-0.37012-0.9043-0.31348    l-1.12695,0.1875l-0.61621-1.31348c-0.14941-0.31836-0.45508-0.53516-0.80566-0.57031l-1.25-0.125    c-0.55664-0.04883-1.03906,0.34668-1.09473,0.89551c-0.05469,0.5498,0.3457,1.04004,0.89551,1.09473l0.68555,0.06836    l0.69629,1.48633c0.18945,0.40527,0.625,0.63672,1.06934,0.56152l1.33789-0.22266l1.50781,1.65918    c0.24023,0.26367,0.59961,0.38379,0.9502,0.30469l1.97168-0.42188l0.87012,1.26172    c0.23828,0.34668,0.66797,0.50391,1.07617,0.40039l2.15527-0.56445l1.4248,1.08105c0.26465,0.2002,0.60742,0.25684,0.9209,0.15137    l2.16992-0.72266l0.9375,1.10742c0.24023,0.28418,0.61621,0.41113,0.98047,0.33105l2.36035-0.52441l1.19238,0.90625    c0.31445,0.24023,0.74219,0.26953,1.08887,0.08008l1.12695-0.62207l1.03125,1.11328    c0.30469,0.33008,0.79492,0.41602,1.19238,0.20898l1.17578-0.6084l1.2334,1.18945    c0.29883,0.28711,0.74219,0.36133,1.11914,0.18555l1.32715-0.62207l1.12891,1.25977    c0.29102,0.3252,0.7627,0.42383,1.16016,0.24121l1.52148-0.69531l0.69629,0.76953    c0.25977,0.28809,0.66309,0.39844,1.03711,0.28418l1.9873-0.61523l0.82324,0.98828    c0.25391,0.30371,0.66406,0.42773,1.04297,0.32129l1.67676-0.47949l1.15527,0.9707    c0.1875,0.15723,0.41602,0.23438,0.64258,0.23438c0.28516,0,0.56934-0.12109,0.7666-0.35645    c0.35547-0.42285,0.30078-1.05371-0.12207-1.40918l-1.5625-1.3125c-0.25488-0.21289-0.59961-0.28516-0.91797-0.19629    l-1.56152,0.44629l-0.83301-1c-0.25879-0.30957-0.67773-0.43457-1.06445-0.31445l-2.01562,0.62402l-0.75977-0.83984    c-0.29102-0.32422-0.76074-0.4209-1.15723-0.23828l-1.51855,0.69336l-1.13379-1.26465    c-0.29395-0.32812-0.76953-0.42383-1.16895-0.2373l-1.37695,0.64551l-1.25391-1.20996    c-0.30957-0.29883-0.77539-0.36523-1.15332-0.16895l-1.13672,0.58789l-1.0459-1.12891    c-0.3125-0.33691-0.81348-0.41504-1.2168-0.19629l-1.24219,0.68555l-1.04395-0.79297    c-0.23438-0.17773-0.53711-0.24316-0.82227-0.18066l-2.22266,0.49414L29.70117,66.22949z"
          />
          <path
            fill="#ffffff"
            d="M92.47754,43.93945c-0.1449-0.38525-0.50293-0.62695-0.88977-0.64502l-0.0946-0.16553    c-0.27441-0.47949-0.88574-0.64844-1.36426-0.37207c-0.42212,0.24158-0.58215,0.73999-0.43188,1.18384    c-0.13104,0.0531-0.26605,0.10889-0.4007,0.16455c-0.22156-0.46143-0.75269-0.69141-1.24164-0.5105    c-0.5166,0.19434-0.77832,0.77051-0.58496,1.28809l0.01624,0.04321c-0.17883,0.0791-0.47009,0.1825-0.84357,0.30261    l-0.01837-0.04895c-0.19434-0.51758-0.77148-0.77539-1.28809-0.58496c-0.48773,0.18347-0.73407,0.70679-0.599,1.20032    c-0.33002,0.0929-0.66968,0.18665-1.01062,0.2793l-0.03491-0.09778c-0.18555-0.52051-0.76074-0.79492-1.27734-0.60547    c-0.4986,0.17773-0.75726,0.71008-0.61511,1.21118c-0.38965,0.09949-0.74475,0.18774-1.05389,0.26245l-0.03119-0.1123    c-0.14844-0.53223-0.69922-0.84082-1.23145-0.69629c-0.51617,0.14404-0.8161,0.66675-0.69971,1.18359    c-3.08026,0.39148-4.27142-0.59814-4.69092-1.18604c0.4314-0.13013,0.86572-0.23145,1.27148-0.29541    c0.547-0.08655,1.04608-0.25098,1.52649-0.4425l0.03796,0.05481c0.19434,0.28027,0.50586,0.43066,0.82324,0.43066    c0.19629,0,0.39453-0.05762,0.56836-0.17773c0.38812-0.2688,0.5083-0.75818,0.34412-1.17969    c0.09412-0.05298,0.19037-0.1051,0.28381-0.1582l0.5498-0.31055c0.0011-0.00061,0.00214-0.00122,0.00323-0.00171    c0.18402,0.2998,0.50189,0.48413,0.84344,0.48413c0.12695,0,0.25586-0.02441,0.38086-0.0752    c0.51074-0.20996,0.75391-0.79492,0.54395-1.30566l-0.02112-0.05127c0.28845-0.15601,0.57526-0.31177,0.86517-0.47363    c0.19293,0.28308,0.5061,0.43701,0.82587,0.43701c0.19043,0,0.38281-0.05469,0.55371-0.16797    c0.43439-0.28955,0.55548-0.85522,0.31085-1.30493c0.10449-0.07581,0.19916-0.13501,0.31317-0.22046    c0.1355-0.10205,0.28027-0.21045,0.43787-0.32397c0.19342,0.22949,0.4704,0.36108,0.7594,0.36108    c0.1748,0,0.35254-0.0459,0.51367-0.14258c0.42926-0.25757,0.57684-0.78259,0.39258-1.23193    c0.20331-0.10449,0.4173-0.21094,0.65723-0.32178c0.17786-0.08203,0.34308-0.16772,0.50482-0.25439l0.01959,0.02783    c0.19531,0.27539,0.50391,0.42285,0.81836,0.42285c0.19922,0,0.40039-0.05957,0.57617-0.18262    c0.45117-0.31934,0.55859-0.94238,0.24023-1.39453l-0.05444-0.07715c0.38959-0.44043,0.62842-0.90979,0.68921-1.40137    c0.05664-0.45898,0.00293-1.35059-1.00098-2.16016c-1.49414-1.2041-4.04883,0.08008-7.00684,1.56641    c-0.73242,0.36914-1.46484,0.7373-2.1582,1.05078c-2.72852,1.2334-3.04883,1.25098-5.54102,1.39062l-0.39551,0.02246    c-1.58984,0.08984-2.75586,0.59375-3.46582,1.49805c-0.87207,1.10938-0.67383,2.35547-0.64844,2.49316    c0.09766,0.53613,0.59668,0.88965,1.14453,0.7959c0.53809-0.08887,0.9043-0.60156,0.8252-1.14062    c-0.00293-0.02148-0.07129-0.51855,0.26465-0.92969c0.33984-0.41699,1.0293-0.66602,1.99316-0.7207l0.39453-0.02148    c2.73047-0.15234,3.26855-0.2168,6.25293-1.56543c0.7168-0.32422,1.47461-0.70508,2.23242-1.08594    c1.39258-0.7002,4.28809-2.14941,4.85254-1.79688c0.1748,0.14062,0.28125,0.28125,0.27148,0.35742    c-0.01855,0.15625-0.35254,0.69238-1.64648,1.28906c-1.63281,0.75391-2.49512,1.40332-3.12598,1.87695    c-0.21875,0.16504-0.4082,0.30957-0.60156,0.42871c-0.83008,0.50781-1.71387,0.98242-2.56836,1.44141    c-0.40527,0.21777-0.81055,0.43555-1.21387,0.6582l-0.57031,0.32129c-0.97266,0.55371-1.8916,1.07617-2.90723,1.23633    c-1.5957,0.25195-4.57715,1.16504-5.62695,2.98828c-0.27539,0.47949-0.11035,1.09082,0.36816,1.36621    c0.15723,0.08984,0.3291,0.13281,0.49805,0.13281c0.3457,0,0.68262-0.17969,0.86816-0.50098    c0.18848-0.32764,0.5791-0.64453,1.07074-0.92969c0.51202,0.92285,1.87256,2.49609,5.22516,2.49609    c0.89648,0,1.93555-0.11328,3.13672-0.38086c0.86621-0.19336,6.81738-1.67773,7.96973-2.30664    c0.70215-0.38281,2.64355-1.14062,3.33301-1.40039C92.41113,45.0332,92.67285,44.45605,92.47754,43.93945z"
          />
          <path
            fill="#ffffff"
            d="M81.99121,49.76855c-1.84863,0.67188-7.16406,1.95898-9.60059,1.89844    c-2-0.03223-2.76562-0.74609-2.8125-0.79199c-0.36035-0.40137-0.97461-0.44629-1.3916-0.0957    c-0.4209,0.35645-0.47363,0.9873-0.11621,1.40918c0.12305,0.14648,1.2959,1.43066,4.28906,1.47852    c0.04395,0.00098,0.08789,0.00098,0.13281,0.00098c1.15222,0,2.73303-0.22339,4.32617-0.53027    c-0.48993,0.71838-1.00775,1.53052-1.39453,2.27832c-0.87109,1.68359-3.11523,2.87207-6.31934,3.34473    c-2.22125,0.32837-3.3515,0.02368-3.81934-0.17896c0.08301-0.20508,0.15863-0.39624,0.22168-0.55933    c0.19922-0.51562-0.05664-1.09375-0.57227-1.29297c-0.5127-0.2002-1.09375,0.05664-1.29297,0.57227    c-0.86816,2.24707-2.04492,4.48438-2.50977,4.78223c-0.49023,0.25586-0.67871,0.86035-0.42383,1.34961    c0.17871,0.3418,0.52734,0.53711,0.8877,0.53711c0.15625,0,0.31445-0.03613,0.46191-0.11328    c0.06519-0.03406,0.13104-0.08057,0.19684-0.12744c0.87115,1.33386,1.96643,3.03845,2.15961,3.42236    c0.1709,0.33789,0.5166,0.5498,0.89355,0.5498c0.0127,0,0.02637,0,0.03906-0.00098c0.01367,0,0.7373-0.02539,1.88672-0.0127    c0.00391,0,0.00879,0,0.0127,0c0.54688,0,0.99316-0.43945,1-0.9873c0.00684-0.55176-0.43457-1.00488-0.9873-1.0127    c-0.56836-0.00684-1.04102-0.00488-1.38184,0c-0.63593-1.05139-1.89276-2.9707-2.29346-3.57947    c0.31976-0.5282,0.62439-1.11682,0.89978-1.69556c0.57898,0.25354,1.4704,0.49182,2.8136,0.49182    c0.60547,0,1.30273-0.04883,2.09863-0.16602c3.8584-0.56934,6.63086-2.13379,7.80566-4.40527    c0.7663-1.48267,2.18475-3.36328,2.55548-3.84631c1.25201-0.31189,2.31873-0.62195,2.91815-0.84021    c1.83496-0.66602,8.50391-3.12598,8.50391-3.12598l-0.69141-1.87695C90.48633,46.64453,83.82422,49.10254,81.99121,49.76855z"
          />
          <path
            fill="#ffffff"
            d="M67.86035,68.50488c-1.03613-0.20215-2.63184,0-3.21387,0.08496    c-3.5498-0.88281-5.88281-5.09961-6.17676-5.65625c-0.16211-0.60938,0.1377-2.80469,0.53223-4.54102    c0.12305-0.53809-0.21387-1.07422-0.75293-1.19629c-0.53711-0.12695-1.07422,0.21484-1.19629,0.75195    c-0.12396,0.5426-0.38385,1.78125-0.52258,3.01624c-5.94891,0.7063-11.33636,1.19983-16.73718,0.32166    c-1.29047-0.21045-2.44019-0.44263-3.40082-0.89514c0.01532-0.04114,0.03656-0.0791,0.05121-0.12048    c0.89453-2.53613-1.02637-5.39941-1.24805-5.71777c-0.31543-0.45215-0.9375-0.56348-1.39258-0.24805    c-0.45312,0.31641-0.56348,0.93945-0.24805,1.39258c0.41016,0.58789,1.47461,2.56836,1.00195,3.90723    c-0.66211,1.87695-2.31055,3.54785-2.32715,3.56445c-0.21973,0.2207-0.32422,0.53125-0.28223,0.83984    c0.04102,0.30859,0.22363,0.58008,0.49414,0.73438l3.0625,1.75c0.15625,0.08984,0.32715,0.13184,0.49512,0.13184    c0.34766,0,0.68457-0.18066,0.86914-0.50391c0.27441-0.47949,0.10742-1.08984-0.37207-1.36426l-2.00098-1.14355    c0.3125-0.38965,0.67322-0.88123,1.01575-1.43726c1.32648,0.62817,2.81866,0.89795,3.95984,1.08472    c2.18359,0.35547,4.34863,0.49805,6.53613,0.49805c3.38373,0,6.82672-0.34595,10.46234-0.77417    c0.02576,0.25391,0.06586,0.48633,0.13336,0.67358c0.0127,0.03613,0.02734,0.07129,0.04492,0.10547    c0.11719,0.23633,2.91992,5.78027,7.75098,6.82129c0.06934,0.01465,0.14062,0.02246,0.21094,0.02246    c0.05469,0,0.10938-0.00488,0.16309-0.01367c0.70215-0.11523,2.05469-0.25098,2.70703-0.12598    c0.54199,0.10742,1.06641-0.24902,1.17188-0.79102S68.40234,68.60938,67.86035,68.50488z"
          />
          <path
            fill="#ffffff"
            d="M33.44043,51.96191c0.34961,0.19043,0.77734,0.1543,1.09082-0.08984l1.63965-1.27539l1.8877,1.44727    c0.38965,0.29688,0.9375,0.27051,1.29492-0.06738l0.7002-0.66113l1.07422,1.38184    c0.30664,0.39453,0.85742,0.50195,1.29102,0.25098l1.72461-1.00195l0.57812,0.97949    c0.27441,0.46387,0.86914,0.62695,1.33984,0.36914l2.04688-1.11621l1.22168,1.39648    c0.18262,0.20898,0.44336,0.33203,0.71973,0.34082c0.28516,0.03125,0.54492-0.09668,0.74023-0.29199l1.24902-1.24902    l1.62793,1.4541c0.20801,0.18555,0.48828,0.27734,0.76172,0.24902c0.27734-0.02637,0.53125-0.16797,0.7002-0.38965    l1.15527-1.51953l1.90918,0.61621c0.42188,0.13477,0.89062-0.02637,1.13867-0.39746l1.03613-1.55469H62.5c0.55273,0,1-0.44727,1-1    s-0.44727-1-1-1h-2.66699c-0.33398,0-0.64648,0.16699-0.83203,0.44531l-0.91406,1.37109l-1.86328-0.60156    c-0.40137-0.12988-0.8457,0.00879-1.10254,0.34668l-0.92871,1.22168l-1.52637-1.3623    c-0.39648-0.35352-0.99805-0.33496-1.37305,0.03906l-1.16113,1.16113l-1.0459-1.19531    c-0.30859-0.35352-0.82227-0.44238-1.23145-0.21973l-1.90137,1.03711l-0.5918-1.00195    c-0.28027-0.47266-0.88867-0.62988-1.36328-0.35645l-1.82812,1.06152l-1.21387-1.56055    c-0.17285-0.22266-0.43164-0.36133-0.71289-0.38281c-0.28125-0.02344-0.55762,0.07617-0.7627,0.27051l-0.88086,0.83203    l-1.82422-1.39941c-0.36133-0.27734-0.86328-0.27539-1.22266,0.00488l-1.73438,1.34863l-1.4248-0.77148    c-0.37109-0.2002-0.8252-0.14941-1.14062,0.13184l-1.87207,1.66309l-1.83789-0.39355    c-0.36719-0.08203-0.7373,0.05078-0.97461,0.33301l-0.83203,0.98828l-2.0498-0.99316    c-0.4707-0.22852-1.03516-0.05566-1.29883,0.39355l-0.99316,1.69336l-1.46387-0.54199    c-0.37207-0.1377-0.79492-0.04199-1.07129,0.24707l-1.4043,1.47168l-1.58594-0.19043    c-0.37891-0.04492-0.74805,0.12793-0.95605,0.44531l-1.11914,1.70898l-0.56055-0.24414    c-0.45801-0.19922-0.99414-0.03223-1.25488,0.39648l-1.16602,1.91699c-0.28711,0.47168-0.13672,1.08691,0.33496,1.37402    c0.16211,0.09863,0.3418,0.14551,0.51855,0.14551c0.33789,0,0.66699-0.1709,0.85547-0.48047l0.71191-1.16992l0.5332,0.23242    c0.44434,0.19336,0.96777,0.04102,1.2373-0.36816l1.24219-1.89746l1.46777,0.17676c0.31836,0.03906,0.625-0.0752,0.84277-0.30273    l1.2959-1.3584l1.63281,0.60547c0.45508,0.16797,0.96484-0.01367,1.20996-0.43164l0.9502-1.62012l1.91797,0.92969    c0.41309,0.20215,0.90723,0.0957,1.20117-0.25488l0.94629-1.12402l1.74609,0.37402    c0.31641,0.07129,0.63672-0.01758,0.87402-0.23047l1.72656-1.53418L33.44043,51.96191z"
          />
          <circle fill="#ffffff" cx="73.25754" cy="42.42413" r="1" />
        </g>
      </g>
    </svg>