<svg
      xmlns="http://www.w3.org/2000/svg"
      xmlns:xlink="http://www.w3.org/1999/xlink"
      version="1.1"
      x="0px"
      y="0px"
      viewBox="0 0 100 125"
      style="enable-background: new 0 0 100 100"
      xml:space="preserve"
      fill="#ffffff"
    >
      <g>
        <path
          d="M84.668,16.804c-0.548,0.071-1.014,0.438-1.21,0.955c-2.688,7.075-9.251,13.329-18.478,17.609   c-1.045,0.485-2.298,0.259-3.112-0.526c-0.539-0.519-0.836-1.223-0.836-1.98v-2.95c0.013-0.079,0.02-0.16,0.02-0.243v-3.207   c0-1.333-1.087-2.417-2.422-2.417c-0.641,0-1.244,0.252-1.701,0.709l-2.457,2.456c-0.608,0.609-1.452,0.958-2.314,0.958h-4.296   c-0.862,0-1.706-0.35-2.315-0.959l-2.455-2.456c-0.458-0.457-1.062-0.709-1.701-0.709c-1.336,0-2.422,1.084-2.422,2.417v6.399   c0,1.711-1.44,2.771-2.775,2.771c-0.401,0-0.796-0.088-1.173-0.264c-9.227-4.28-15.789-10.534-18.478-17.609   c-0.196-0.517-0.662-0.884-1.21-0.955c-0.55-0.072-1.092,0.167-1.413,0.616c-5.088,7.124-8.17,15.495-8.913,24.208   c-0.048,0.561,0.222,1.102,0.699,1.399c4.053,2.532,6.472,6.899,6.472,11.682c0,4.041-0.971,7.525-2.662,9.561   c-0.372,0.447-0.452,1.069-0.205,1.596c0.247,0.526,0.776,0.863,1.358,0.863c7.638,0,14.338,6.773,14.338,14.494   c0,0.863-0.028,1.982-0.248,2.993c-0.132,0.607,0.124,1.232,0.644,1.573c0.519,0.34,1.195,0.326,1.698-0.037   c2.255-1.623,5.123-2.517,8.076-2.517c4.875,0,9.257,2.553,11.722,6.528c1.018,2.44,1.714,4.043,1.727,4.072   c0.005,0.013,0.015,0.021,0.021,0.034c0.03,0.064,0.061,0.128,0.099,0.188c0.006,0.01,0.015,0.018,0.021,0.027   c0.021,0.031,0.046,0.059,0.069,0.089c0.016,0.02,0.03,0.041,0.046,0.059c0.051,0.057,0.108,0.108,0.168,0.158   c0.017,0.014,0.032,0.03,0.05,0.043c0.023,0.017,0.046,0.034,0.07,0.05c0.023,0.015,0.047,0.026,0.07,0.039   c0.053,0.031,0.103,0.065,0.161,0.09c0.023,0.01,0.048,0.014,0.072,0.023c0.023,0.009,0.044,0.017,0.067,0.024   c0.027,0.009,0.054,0.016,0.082,0.023c0.125,0.033,0.251,0.055,0.376,0.055c0,0,0.001,0,0.001,0s0.001,0,0.001,0   c0.125,0,0.251-0.022,0.376-0.055c0.028-0.007,0.055-0.014,0.082-0.023c0.023-0.007,0.045-0.016,0.067-0.024   c0.024-0.009,0.048-0.013,0.072-0.023c0.057-0.025,0.108-0.059,0.16-0.09c0.024-0.014,0.048-0.024,0.071-0.04   c0.024-0.016,0.047-0.033,0.07-0.05c0.018-0.013,0.033-0.029,0.05-0.043c0.06-0.049,0.117-0.1,0.168-0.157   c0.017-0.019,0.031-0.041,0.048-0.061c0.023-0.029,0.048-0.057,0.069-0.088c0.006-0.009,0.014-0.017,0.021-0.026   c0.039-0.059,0.069-0.123,0.099-0.187c0.006-0.013,0.016-0.022,0.022-0.035c0.013-0.03,0.71-1.634,1.728-4.074   c2.466-3.974,6.847-6.526,11.721-6.526c2.953,0,5.821,0.894,8.076,2.517c0.503,0.363,1.18,0.377,1.698,0.037   c0.52-0.341,0.775-0.966,0.644-1.573c-0.22-1.01-0.248-2.13-0.248-2.993c0-7.721,6.7-14.494,14.338-14.494   c0.582,0,1.111-0.336,1.358-0.863c0.247-0.527,0.167-1.149-0.205-1.596c-1.691-2.035-2.662-5.52-2.662-9.561   c0-4.783,2.419-9.15,6.472-11.682c0.478-0.298,0.747-0.838,0.699-1.399c-0.743-8.713-3.825-17.084-8.913-24.208   C85.76,16.97,85.219,16.732,84.668,16.804z M84.823,54.709c0,2.231,0.281,6.015,1.902,9.237   c-8.102,1.353-14.731,8.847-14.731,17.277c0,0.177,0.001,0.363,0.004,0.557c-2.201-1.007-4.666-1.545-7.174-1.545   c-3.233,0-6.287,0.925-8.887,2.545c0.099-0.253,0.199-0.504,0.299-0.76c0.301-0.771-0.08-1.642-0.852-1.943   c-0.771-0.303-1.642,0.08-1.943,0.851c-1.082,2.769-2.151,5.383-3.007,7.438c-0.149,0.248-0.298,0.496-0.435,0.752   c-0.137-0.256-0.285-0.504-0.434-0.751c-0.826-1.984-1.852-4.49-2.895-7.151c-0.303-0.772-1.177-1.151-1.944-0.849   c-0.771,0.302-1.151,1.173-0.849,1.944c0.062,0.158,0.124,0.313,0.185,0.47c-2.6-1.62-5.654-2.546-8.888-2.546   c-2.508,0-4.973,0.538-7.174,1.545c0.003-0.194,0.004-0.38,0.004-0.557c0-8.43-6.63-15.924-14.731-17.277   c1.621-3.222,1.902-7.005,1.902-9.237c0-5.51-2.636-10.566-7.099-13.707c0.731-6.976,3.062-13.694,6.795-19.623   c3.44,6.743,10.043,12.608,18.885,16.71c0.775,0.36,1.595,0.542,2.435,0.542c3.185,0,5.775-2.589,5.775-5.771v-4.988l1.457,1.457   c1.185,1.185,2.761,1.838,4.437,1.838h4.296c1.677,0,3.253-0.653,4.437-1.838l1.458-1.458v1.553c-0.013,0.079-0.02,0.16-0.02,0.243   v3.193c0,1.58,0.623,3.051,1.754,4.141c1.686,1.625,4.317,2.08,6.456,1.088c8.842-4.102,15.444-9.967,18.885-16.71   c3.733,5.929,6.063,12.647,6.795,19.623C87.459,44.143,84.823,49.199,84.823,54.709z"
        />
        <path
          d="M71.752,69.784c-0.72-0.408-1.635-0.158-2.045,0.563c-0.77,1.353-1.4,2.78-1.875,4.24   c-0.114,0.353-0.462,0.564-0.843,0.527c-0.365-0.035-0.732-0.061-1.101-0.079c-0.862-0.037-1.53,0.601-1.568,1.428   c-0.039,0.828,0.601,1.53,1.428,1.569c0.319,0.015,0.638,0.038,0.955,0.068c0.127,0.012,0.253,0.018,0.378,0.018   c1.643,0,3.094-1.03,3.604-2.604c0.412-1.268,0.96-2.507,1.629-3.685C72.725,71.109,72.473,70.194,71.752,69.784z"
        />
        <path
          d="M13.921,39.102c-0.168-0.166-0.244-0.423-0.199-0.669c0.131-0.708,0.28-1.413,0.448-2.111   c0.193-0.806-0.304-1.615-1.109-1.809c-0.809-0.197-1.616,0.303-1.809,1.108c-0.18,0.75-0.339,1.506-0.48,2.267   c-0.226,1.229,0.163,2.481,1.039,3.346c0.63,0.624,1.22,1.296,1.752,1.999c0.296,0.389,0.743,0.593,1.196,0.593   c0.316,0,0.635-0.1,0.906-0.305c0.659-0.5,0.788-1.441,0.288-2.102C15.335,40.605,14.651,39.826,13.921,39.102z"
        />
        <path
          d="M15.803,27.294c-0.756-0.337-1.645,0.003-1.98,0.76c-0.37,0.831-0.716,1.676-1.026,2.512   c-0.289,0.776,0.105,1.64,0.882,1.929c0.173,0.064,0.35,0.095,0.523,0.095c0.608,0,1.181-0.373,1.405-0.977   c0.29-0.777,0.611-1.564,0.956-2.338C16.899,28.518,16.56,27.631,15.803,27.294z"
        />
        <circle cx="54.226" cy="35.031" r="1.62" />
        <circle cx="45.774" cy="35.031" r="1.62" />
        <path
          d="M38.517,52.333c0.024,0,0.05,0,0.075-0.002c0.827-0.041,1.465-0.745,1.424-1.572c-0.105-2.127-0.189-4.355-0.252-6.622   c-0.022-0.828-0.739-1.488-1.54-1.458c-0.828,0.022-1.48,0.712-1.458,1.54c0.062,2.29,0.147,4.54,0.254,6.689   C37.06,51.709,37.722,52.333,38.517,52.333z"
        />
        <path
          d="M39.221,60.498c0.824-0.077,1.431-0.808,1.354-1.633c-0.09-0.964-0.17-1.949-0.243-2.939   c-0.062-0.827-0.783-1.43-1.607-1.385c-0.826,0.062-1.446,0.781-1.385,1.607c0.075,1.01,0.157,2.013,0.249,2.996   c0.072,0.778,0.726,1.361,1.491,1.361C39.126,60.504,39.173,60.502,39.221,60.498z"
        />
        <path
          d="M41.327,64.983l-0.071-0.449c-0.128-0.818-0.899-1.375-1.714-1.25c-0.818,0.128-1.379,0.895-1.251,1.713l0.076,0.476   c0.415,2.521,1.682,6.647,3.764,12.264c0.224,0.605,0.797,0.979,1.406,0.979c0.174,0,0.35-0.03,0.521-0.094   c0.776-0.288,1.173-1.151,0.885-1.928C42.928,71.256,41.712,67.317,41.327,64.983z"
        />
        <path
          d="M61.775,42.764c-0.797-0.038-1.518,0.629-1.541,1.458c-0.15,5.397-0.408,10.17-0.768,14.186   c-0.074,0.825,0.535,1.554,1.36,1.628c0.046,0.004,0.091,0.006,0.136,0.006c0.768,0,1.422-0.586,1.492-1.366   c0.365-4.077,0.627-8.911,0.777-14.37C63.256,43.477,62.604,42.787,61.775,42.764z"
        />
        <path
          d="M60.518,62.821c-0.814-0.121-1.582,0.444-1.704,1.262c-0.046,0.307-0.093,0.607-0.142,0.905   c-0.025,0.159-0.056,0.323-0.09,0.494c-0.16,0.813,0.368,1.602,1.182,1.762c0.098,0.019,0.195,0.029,0.292,0.029   c0.701,0,1.328-0.495,1.47-1.21c0.04-0.205,0.076-0.404,0.106-0.59c0.052-0.309,0.101-0.625,0.148-0.947   C61.902,63.706,61.338,62.943,60.518,62.821z"
        />
        <path
          d="M59.167,69.309c-0.793-0.252-1.634,0.188-1.883,0.976c-0.562,1.771-1.28,3.841-2.135,6.155   c-0.287,0.777,0.11,1.64,0.888,1.927c0.171,0.063,0.347,0.093,0.52,0.093c0.609,0,1.184-0.375,1.407-0.98   c0.871-2.357,1.604-4.473,2.18-6.288C60.395,70.402,59.957,69.559,59.167,69.309z"
        />
        <path
          d="M84.927,34.866l0.766,4.118c0.134,0.722,0.765,1.226,1.473,1.226c0.091,0,0.184-0.008,0.276-0.026   c0.814-0.151,1.352-0.934,1.2-1.749l-0.766-4.118c-0.151-0.814-0.935-1.354-1.749-1.2C85.313,33.269,84.775,34.051,84.927,34.866z"
        />
      </g>
    </svg>