 <svg
      xmlns="http://www.w3.org/2000/svg"
      xmlns:xlink="http://www.w3.org/1999/xlink"
      version="1.1"
      x="0px"
      y="0px"
      viewBox="0 0 100 125"
      enable-background="new 0 0 100 100"
      xml:space="preserve"
      fill="#ffffff"
    >
      <g>
        <g>
          <path
            d="M40.89,50.41c-0.29-0.27-0.55-0.55-0.78-0.85c-0.02-0.01-0.03-0.03-0.04-0.04c-0.03,0.02-0.06,0.05-0.09,0.07    c-0.18,0.14-0.35,0.27-0.52,0.41c-0.01,0.01-0.03,0.02-0.04,0.03c0.54,0.15,1.06,0.3,1.54,0.45    C40.94,50.46,40.91,50.43,40.89,50.41z M60.11,49.6c-0.03-0.03-0.07-0.05-0.1-0.08l-0.33,0.39c-0.13,0.14-0.26,0.27-0.4,0.41    c0.08-0.02,0.15-0.04,0.23-0.07c0.23-0.06,0.47-0.13,0.71-0.19c0.12-0.03,0.24-0.06,0.36-0.09C60.42,49.85,60.27,49.72,60.11,49.6    z"
          />
        </g>
      </g>
      <g>
        <g>
          <path
            d="M59.974,29.725l-0.33,0.39c-0.13,0.14-0.26,0.27-0.4,0.41c0.08-0.02,0.15-0.04,0.23-0.07c0.11-0.1,0.21-0.2,0.3-0.31    c0.1-0.11,0.2-0.22,0.3-0.34C60.044,29.774,60.004,29.755,59.974,29.725z M40.854,30.615c-0.41-0.13-0.85-0.25-1.3-0.38    c-0.04-0.01-0.08-0.02-0.13-0.03c-0.01,0.01-0.03,0.02-0.04,0.03c0.54,0.15,1.06,0.3,1.54,0.45    C40.904,30.665,40.874,30.635,40.854,30.615z"
          />
        </g>
        <g>
          <path
            d="M80.114,31.545c-6.17-3.71-14.02-2.77-19.4-1.37c-0.15,0.04-0.3,0.08-0.45,0.11c-0.29,0.08-0.58,0.16-0.85,0.24    c0.02-0.02,0.05-0.05,0.06-0.07c-0.08,0.03-0.15,0.05-0.23,0.07c0.14-0.14,0.27-0.27,0.4-0.41l0.33-0.39    c0.03,0.03,0.07,0.05,0.1,0.08c0.03-0.03,0.05-0.05,0.07-0.08c1.94-2.27,3.1-5.22,3.1-8.44c0-4.18-1.96-7.9-5.02-10.29    c2.78-3.55,6.9-5.29,10.25-4.25c1.93,0.6,3.24,2.02,4,3.1c0.63,0.91,1.88,1.13,2.78,0.5c0.91-0.63,1.13-1.88,0.5-2.79    c-1.12-1.59-3.08-3.7-6.09-4.63c-5.16-1.61-11.14,0.84-14.95,6.1c-1.42-0.53-2.95-0.81-4.54-0.81c-1.62,0-3.17,0.29-4.61,0.84    c-3.82-5.28-9.81-7.74-14.98-6.13c-3.01,0.93-4.97,3.04-6.09,4.63c-0.63,0.91-0.41,2.16,0.5,2.79c0.9,0.63,2.15,0.41,2.78-0.5    c0.76-1.08,2.07-2.5,4-3.1c3.36-1.05,7.51,0.71,10.28,4.3c-3.02,2.39-4.95,6.09-4.95,10.24c0,3.22,1.16,6.17,3.1,8.44l0.01,0.01    c0.27,0.34,0.56,0.65,0.88,0.95c-0.08-0.02-0.16-0.05-0.24-0.07c0.02,0.02,0.05,0.05,0.07,0.07c-0.48-0.15-1-0.3-1.54-0.45    c0.01-0.01,0.03-0.02,0.04-0.03c-0.18-0.05-0.36-0.09-0.55-0.14c-5.37-1.33-12.97-2.13-18.98,1.48    c-7.92,4.77-12.63,11.96-12.63,18.3c0,2.09,0.51,4.09,1.59,5.88c2.45,4.07,8.27,7.04,14.15,7.22c0.19,0.01,0.39,0.01,0.58,0.01    c1.95,0,3.79-0.31,5.47-0.9c0.05,0.42,0.1,0.83,0.15,1.25c0.34,2.44,0.88,4.78,1.6,6.99c2.95,9.11,8.88,15.81,15.97,17.46    l2.2,8.32c0.23,0.87,1.03,1.49,1.93,1.49c0.91,0,1.7-0.62,1.94-1.49l2.32-8.78c6.35-2.19,11.6-8.51,14.33-16.88    c0.69-2.07,1.21-4.26,1.55-6.55c0.09-0.56,0.17-1.13,0.23-1.7c1.59,0.52,3.32,0.79,5.14,0.79c0.2,0,0.39,0,0.59-0.01    c2.93-0.09,5.86-0.88,8.35-2.15c2.5-1.27,4.56-3.03,5.79-5.07C95.494,48.505,90.644,37.885,80.114,31.545z M45.714,37.395    c1.1-0.12,2.26-0.18,3.46-0.18c1.85,0,3.58,0.15,5.19,0.41c1.04,2.85,2.9,7.48,5.6,12.43c-2.83,1.12-6.51,1.91-10.79,1.91    c-3.61,0-6.8-0.56-9.4-1.41C42.694,45.285,44.664,40.325,45.714,37.395z M31.434,55.945c-0.83,0.82-1.73,1.42-2.64,1.86    c-2.1,1.03-4.25,1.19-5.67,1.15c-4.45-0.14-9.11-2.42-10.84-5.3c-3.08-5.11,1.35-13.67,9.67-18.69c2.95-1.78,6.52-2.19,9.91-1.98    c1.53,0.1,3.03,0.33,4.42,0.61c1.59,0.32,3.04,0.73,4.23,1.11c0.65,0.2,1.22,0.4,1.7,0.58c-0.27,0.77-0.64,1.77-1.1,2.95    c-1.12,2.86-2.8,6.72-5.03,10.71c-0.96,1.74-2.02,3.5-3.19,5.21c-0.06,0.09-0.12,0.18-0.18,0.27    C32.314,54.995,31.884,55.505,31.434,55.945z M56.494,82.295c-1.45,0.9-2.99,1.48-4.6,1.73c-0.57,0.09-1.14,0.13-1.72,0.13    c-0.07,0-0.15,0-0.22-0.01c-1.52-0.02-2.99-0.35-4.39-0.96c-3.81-1.63-7.11-5.23-9.39-10.05c3.71,1.58,8.47,2.89,14.06,2.89    c0.01,0,0.01,0,0.01,0c5.53,0,10.26-1.3,13.91-2.83C62.224,77.255,59.574,80.435,56.494,82.295z M67.204,62.654    c-0.47,0.11-0.93,0.3-1.36,0.59c-2.64,1.78-8.19,4.78-15.6,4.78c0,0,0,0-0.01,0c-7.65,0-13.32-3.17-16.01-5.06    c-0.35-0.24-0.72-0.42-1.1-0.55c-0.1-0.8-0.18-1.61-0.24-2.43c0.82-0.63,1.57-1.34,2.23-2.15c3.95,1.66,8.76,2.6,14.06,2.6    c5.85,0,11.11-1.15,15.27-3.13c0.87,1.14,1.89,2.12,3.01,2.92C67.394,61.045,67.314,61.855,67.204,62.654z M87.724,53.654    c-1.74,2.88-6.4,5.16-10.85,5.3c-1.34,0.03-3.34-0.11-5.33-0.99c-1.26-0.56-2.52-1.41-3.61-2.7c-0.15-0.18-0.3-0.38-0.45-0.58    c-0.07-0.09-0.13-0.17-0.19-0.26c-1.41-2.04-2.68-4.17-3.8-6.24c-1.88-3.45-3.34-6.77-4.38-9.37c-0.57-1.43-1.01-2.63-1.33-3.53    c0.55-0.2,1.21-0.43,1.96-0.66c1.22-0.39,2.68-0.78,4.27-1.09c0.86-0.17,1.77-0.31,2.69-0.42c3.8-0.43,7.97-0.18,11.34,1.85    c6.53,3.93,10.66,10.04,10.66,14.96C88.704,51.285,88.394,52.545,87.724,53.654z"
          />
        </g>
      </g>
      <path
        d="M41.525,50.475c-0.32-0.3-0.61-0.61-0.88-0.95c-0.05,0.01-0.09,0.02-0.14,0.03c-0.04,0.01-0.09,0.02-0.13,0.03  c-0.36,0.08-0.72,0.18-1.07,0.27c0.19,0.05,0.37,0.09,0.55,0.14c-0.01,0.01-0.03,0.02-0.04,0.03c0.54,0.15,1.06,0.3,1.54,0.45  c-0.02-0.02-0.05-0.05-0.07-0.07C41.365,50.425,41.445,50.455,41.525,50.475z M60.695,50.075c-0.03,0-0.05-0.01-0.08-0.02  c-0.13-0.04-0.27-0.08-0.41-0.12c-0.04-0.01-0.08-0.02-0.13-0.03c-0.13,0.14-0.26,0.27-0.4,0.41c0.08-0.02,0.15-0.04,0.23-0.07  c-0.01,0.02-0.04,0.05-0.06,0.07C60.115,50.235,60.405,50.155,60.695,50.075z"
      />
    </svg>