    <svg
      xmlns="http://www.w3.org/2000/svg"
      data-name="Layer 1"
      viewBox="0 0 100 125"
      x="0px"
      y="0px"
      fill="#ffffff"
    >
      <path
        d="M83.14,27.25A8.3,8.3,0,0,0,75.58,20c-8.31-1.12-37.09-3.93-58.75,7-5.66,3.21-8.12,6.34-8.76,9.45-1.19,4-3.63,10.61-5.3,11.91-1.31,1-1.48,1.93-1.39,2.51A1.8,1.8,0,0,0,2.6,52.27a2.87,2.87,0,0,0,1,.17,4.15,4.15,0,0,0,2.62-1,20.27,20.27,0,0,0,3.52-5.07c.25,3.41.12,9.88-3.78,13.4l-.12.13C3.81,62.52,4,77.26,4.1,80.19a1,1,0,0,0,1,1h5.72a1,1,0,0,0,1-1C12,76,12.92,70,14.6,68.15a16.67,16.67,0,0,0,2.57,5.43c2.37,3.41,5.15,7.15,5.17,7.18a1,1,0,0,0,.8.4h6.39a1,1,0,0,0,.88-1.48l-6.08-11.1s-1.28-2.9.14-4.19c.87-.79,3-3.14,4.39-8.06a84.29,84.29,0,0,0,21.91,3.25c0,2.47-.38,5.66-1.24,6.52a1,1,0,0,0,0,1.39c1.61,1.74,2.21,8.7,2.21,12.68a1,1,0,0,0,1,1h6.2a1,1,0,0,0,.94-.65,35.53,35.53,0,0,0,2-11.28c3.73,3.92,5.91,7.78,6.13,11a1,1,0,0,0,1,.93h7.06a1,1,0,0,0,1-1.08c0-.4-.84-9.7-7.87-15.58a49.7,49.7,0,0,0,1.51-4.9h9.5c1.67,2,3.57,3.54,5.43,3.33a6.74,6.74,0,0,0,5.49-4.69,7,7,0,0,0,5,0c5.73-2.92,1.23-19.52-1.95-26A9.12,9.12,0,0,0,83.14,27.25ZM4.93,49.91a2.08,2.08,0,0,1-1.46.53,3,3,0,0,1,.53-.5c1.6-1.25,3.28-5.11,4.46-8.33.17.56.38,1.12.62,1.68C8.21,45.06,6.25,48.79,4.93,49.91ZM9.86,79.17H6.08c-.11-6.86.22-16.36,1.3-18,3.63-3.34,4.43-8.63,4.45-12.5,2.76,5.37,3.06,8.15,2.49,12.47A20.53,20.53,0,0,0,14.2,66C10.84,67.8,10,75.91,9.86,79.17Zm48.35,0h-4.5c-.06-2.65-.39-9.39-2.23-12.37,1.1-1.9,1.28-5.36,1.29-7.2,1.39,0,2.82,0,4.29-.13a16.43,16.43,0,0,1,.12,4.79,1,1,0,0,0,.36.93q1.14.93,2.17,1.88C60.52,71.45,58.84,77.24,58.22,79.17ZM95.29,56.43A5.52,5.52,0,0,1,91,56a1,1,0,0,0-1.48.68c0,.16-.79,3.87-4.1,4.25-2.33.26-6.27-5.92-8.33-10.4a1,1,0,0,0-1.82.83,46.5,46.5,0,0,0,3.46,6.23h-7.5c.72-2.84,1.31-5.48,1.44-6a1,1,0,1,0-2-.44c-1,4.4-2.83,11.87-3.6,13.16a1,1,0,0,0,.25,1.31c5.5,4.21,7.13,11,7.58,13.57h-5C69,73.05,63.08,67.21,59.23,64c.67-6.33-3.31-15.79-3.48-16.2a1,1,0,0,0-1.84.78,56.16,56.16,0,0,1,2.8,8.92,85.16,85.16,0,0,1-27.36-3.12,41.19,41.19,0,0,0,.81-8.87,1,1,0,0,0-1-1h0a1,1,0,0,0-1,1c.1,12.13-4.16,16.61-5,17.38-2.52,2.28-.7,6.33-.59,6.57l5.3,9.69h-4.2c-.78-1.05-2.94-4-4.84-6.73-2.39-3.45-3.1-6.54-2.5-11,.67-5,.29-8.33-3.74-15.6-.45-.82-.88-1.61-1.25-2.39l0,0L11.12,43a1,1,0,0,0-.06-.13,9.88,9.88,0,0,1-1-6v0s0,0,0,0c.56-2.63,2.75-5.23,7.73-8C38.88,18.11,67.15,20.88,75.31,22a6.44,6.44,0,0,1,5.91,6.6,1,1,0,0,0,1.4,1c.27-.12,6.61-2.79,9.78,3.63C96.42,41.33,98.57,54.76,95.29,56.43Z"
      />
      <path
        d="M85.31,34.73c-.27,0-6.64-1-6.38-9.7a1,1,0,0,0-1.85-.56c-2.92,4.69-3.39,10.12-1.23,14.17a9.12,9.12,0,0,0,8.06,4.92h0a1,1,0,0,0,0-2,7.2,7.2,0,0,1-6.37-3.86,11.46,11.46,0,0,1-.37-8.92A9.85,9.85,0,0,0,85,36.71a1,1,0,1,0,.26-2Z"
      />
    </svg>