    <svg
      xmlns="http://www.w3.org/2000/svg"
      xmlns:xlink="http://www.w3.org/1999/xlink"
      xml:space="preserve"
      version="1.1"
      style="
        shape-rendering: geometricPrecision;
        text-rendering: geometricPrecision;
        image-rendering: optimizeQuality;
      "
      viewBox="0 0 847 1058.75"
      enable-background="new 0 0 415.91 415.91"
      x="0px"
      y="0px"
      fill-rule="evenodd"
      clip-rule="evenodd"
    >
      <g>
        <path
          fill="#ffffff"
          d="M755 126c-50,3 -142,58 -273,146 5,-14 2,-31 -5,-44l81 -162c8,-17 -18,-30 -27,-13l-75 151c-19,-12 -46,-12 -65,0l-76 -151c-9,-17 -35,-4 -26,13l80 161c-7,14 -9,31 -4,45 -132,-88 -224,-143 -274,-146 -49,-4 -65,35 -43,76 25,45 35,78 46,125 23,99 41,157 167,124 22,-6 44,-14 64,-24 18,-9 5,-35 -13,-27 -16,8 -34,15 -51,20 -25,-70 -39,-143 -58,-215 53,30 111,69 154,97 -13,42 -12,117 23,147 -2,40 -6,79 -5,119 -38,-3 -74,-60 -89,-90 -9,-18 -36,-4 -27,13 21,42 65,105 118,107 2,23 -56,111 -110,73 -7,-5 -18,-2 -22,6 -30,70 -50,90 -62,94 -10,-28 30,-102 44,-128 3,-5 3,-11 -1,-15 -29,-42 -56,-97 -44,-126 7,-18 -21,-29 -28,-11 -17,44 17,108 43,146 -35,66 -62,130 -32,160 2,3 6,4 9,5 39,3 68,-45 92,-98 53,26 94,-15 121,-58 18,46 54,45 72,-1 28,43 68,85 122,59 15,33 47,102 91,98 4,-1 7,-2 10,-5 30,-30 3,-94 -32,-160 25,-38 60,-102 43,-146 -7,-18 -35,-7 -28,11 11,29 -16,84 -45,126 -3,4 -3,10 -1,15 15,26 54,100 45,128 -12,-4 -32,-24 -63,-94 -3,-8 -14,-11 -22,-6 -54,39 -112,-52 -110,-73 53,-1 97,-65 119,-107 8,-17 -18,-31 -27,-13 -15,30 -52,87 -90,90 1,-40 -3,-79 -5,-119 35,-30 36,-105 24,-146 42,-29 100,-68 153,-98 -18,72 -32,145 -57,215 -18,-5 -35,-12 -52,-20 -17,-8 -30,18 -13,27 21,10 48,21 71,25 142,35 141,-56 167,-150 14,-51 15,-55 39,-100 23,-40 7,-80 -43,-76z"
        />
      </g>
    </svg>