
    <svg
      xmlns="http://www.w3.org/2000/svg"
      viewBox="0 0 96 120"
      x="0px"
      y="0px"
      fill="#ffffff"
    >
      <g>
        <path
          d="M58,28a13.9561,13.9561,0,0,0-10,4.2109A13.9811,13.9811,0,1,0,32,54.6V56a16,16,0,0,0,32,0V54.6A13.97,13.97,0,0,0,58,28Zm3.33,23.3809A2.0013,2.0013,0,0,0,60,53.2656V56a12,12,0,0,1-24,0V53.2656a2.0013,2.0013,0,0,0-1.33-1.8847A9.9772,9.9772,0,1,1,46.334,36.4863a2.0752,2.0752,0,0,0,3.332,0A9.9848,9.9848,0,1,1,61.33,51.3809Z"
        />
        <path d="M38,38a4,4,0,1,0,4,4A4.0052,4.0052,0,0,0,38,38Z" />
        <path d="M58,38a4,4,0,1,0,4,4A4.0052,4.0052,0,0,0,58,38Zm0,3.9961" />
        <path
          d="M53.7051,56.1289a1.993,1.993,0,0,0-2.5762,1.166,3.3053,3.3053,0,0,1-3.1973,1.916,3.1111,3.1111,0,0,1-3.0449-1.8769,2.0008,2.0008,0,0,0-3.7734,1.332,7.0627,7.0627,0,0,0,6.7754,4.5449h.09a7.1769,7.1769,0,0,0,6.8926-4.5058A1.9985,1.9985,0,0,0,53.7051,56.1289Z"
        />
        <path
          d="M92,30A14.017,14.017,0,0,0,78,16a13.7436,13.7436,0,0,0-8.6467,3.0647,35.8027,35.8027,0,0,0-42.7256.0142A13.8327,13.8327,0,0,0,18,16a13.9632,13.9632,0,0,0-5.5791,26.7793,36.0011,36.0011,0,1,0,71.1582,0A13.94,13.94,0,0,0,92,30ZM8,30A10.0117,10.0117,0,0,1,18,20a9.8986,9.8986,0,0,1,5.5,1.675A35.9224,35.9224,0,0,0,13.2449,38.7478,9.9447,9.9447,0,0,1,8,30ZM48,80A32,32,0,1,1,80,48,32,32,0,0,1,48,80ZM82.7551,38.7478A35.9236,35.9236,0,0,0,72.4814,21.6584,9.87,9.87,0,0,1,78,20a9.9691,9.9691,0,0,1,4.7551,18.7478Z"
        />
      </g>
    </svg>