 <svg
      xmlns="http://www.w3.org/2000/svg"
      viewBox="0 0 512 640"
      x="0px"
      y="0px"
      fill="#ffffff"
    >
      <path
        d="M363.4,360.54a5.82,5.82,0,1,0-5.26-10.38,127.82,127.82,0,0,1-14.43,6.2,5.84,5.84,0,0,0-3.82,5c0,.4-3.38,40.54-3.25,68.07a6.54,6.54,0,0,1-6.55,6.58h-2.88a6.55,6.55,0,0,1-6.55-6.54v-25.3A39.09,39.09,0,0,0,313,381a26.88,26.88,0,0,1-4.77-10.63c-2.23-11.26-10.77-37.25-41.76-37.25h-1c-.24,0-24.21,1-40.52-.09a86.74,86.74,0,0,0,13.87-34.76,50.29,50.29,0,0,1,5.89-17c9.65-16.51,24-22.7,42.59-18.42.71.17,1.41.34,2.09.52a46.26,46.26,0,0,1,31.9,29.24,48.79,48.79,0,0,1-5.82,44.68c-.74,1.05-1.52,2.09-2.3,3.08a5.82,5.82,0,1,0,9.11,7.24c.94-1.17,1.85-2.41,2.73-3.66a60.42,60.42,0,0,0,7.21-55.34,57.7,57.7,0,0,0-39.85-36.49c-.81-.22-1.63-.42-2.46-.61-31.67-7.3-48.21,11.83-55.25,23.88a62,62,0,0,0-7.32,21,74.82,74.82,0,0,1-18.65,38.53,45.35,45.35,0,0,0-9.43,4.06c-15,8.6-43.52,20.75-69.78,8.53a28.64,28.64,0,0,1,11.34-19.57,30.23,30.23,0,0,1,25.32-5.22,64.52,64.52,0,0,1,10.63,3.54,5.82,5.82,0,0,0,4.9-10.56,74,74,0,0,0-12.79-4.29,41.76,41.76,0,0,0-35.05,7.23A40.21,40.21,0,0,0,117.67,349c0,.65,0,1.3,0,2v78.48a6.55,6.55,0,0,1-6.55,6.54h-9.66a6.53,6.53,0,0,1-6.53-6.16c-2.1-36.92-9.28-163.61-13.62-244,0-.07,0-.15,0-.22a78.22,78.22,0,0,1,4.82-31.25c8.1-21.47,24.88-34.78,49.9-39.55a95.77,95.77,0,0,1,32.79-.35c9.72,1.51,26.28,3.85,45.48,5.56-5.27,7.67-10.05,18.46-11.52,33.3a88.52,88.52,0,0,0-.33,11.84c.4,10.6-2.85,35.43-41.52,37.21-41.17,1.89-52.51,19.64-55.6,30.05a26.23,26.23,0,0,1-5.91,10.51,5.82,5.82,0,1,0,8.47,8,37.81,37.81,0,0,0,8.59-15.17c1.79-6,9.74-20.12,45-21.74,51.76-2.38,52.92-41.46,52.62-49.27a76.58,76.58,0,0,1,.28-10.26c1.67-16.82,8.19-27.25,14-33.36,19.33,1.28,40.18,1.66,58.88-.1a5.82,5.82,0,0,0-1.1-11.59c-41.58,3.93-94.63-3.21-115.5-6.46a107.38,107.38,0,0,0-36.78.42c-68.06,13-64.42,79.16-64.14,83.12.91,16.68,1.93,35.35,3,54.79a6.35,6.35,0,0,0-.32,1.23c-3.23,23-7.87,42.54-13.78,58.09a31.81,31.81,0,0,1-11.95,15,54.44,54.44,0,0,0-23,34.38,34.57,34.57,0,0,1-3.15,8.36,11.1,11.1,0,0,0,0,11,11.22,11.22,0,0,0,9.5,5.74l1.44,0c12,0,36.92-4.5,42.18-40.86A5.82,5.82,0,1,0,62,332.6c-3,20.51-13.19,30.89-30.41,30.89h-.72A46.74,46.74,0,0,0,35,352.43a43,43,0,0,1,18.17-27.18,43.45,43.45,0,0,0,16.27-20.49c2.08-5.46,4-11.38,5.76-17.72,3.4,60.78,6.76,120.1,8.08,143.46a18.2,18.2,0,0,0,18.16,17.14h9.66a18.2,18.2,0,0,0,18.19-18.18V360.05c17.61,6.62,35.45,4.72,50.41.14a103.52,103.52,0,0,0-8.52,21.5,44.8,44.8,0,0,0-1.41,11.16v37.5A5.66,5.66,0,0,1,164.1,436h-5.53a5.67,5.67,0,0,1-5.64-5.27l-3.36-50.19a5.82,5.82,0,0,0-11.62.78l3.37,50.19a17.33,17.33,0,0,0,17.25,16.13h5.53a17.31,17.31,0,0,0,17.29-17.29v-37.5a32.88,32.88,0,0,1,1-8.24c3.16-12.19,9.81-23.77,14.93-31.47,2.81-1.38,5.39-2.76,7.68-4.07a33.53,33.53,0,0,1,8-3.29l.06,0a33.83,33.83,0,0,1,11-1.07c16.62,1.12,39.92.19,41.73.11h.6c20.5,0,27.84,15.12,30.38,27.88A38.58,38.58,0,0,0,303.68,388,27.41,27.41,0,0,1,309,404.16v25.3a18.2,18.2,0,0,0,18.19,18.18h2.88a18.18,18.18,0,0,0,18.19-18.28c-.11-22.19,2.11-52.91,2.92-63.38C355.44,364.33,359.53,362.5,363.4,360.54Z"
      />
      <path
        d="M477.1,79.33H441.46a4.41,4.41,0,0,0-.74.08c-11.13-9.89-26.17-15-44.36-15s-33.19,5.15-44.31,15c-.13,0-.25,0-.38,0h-34.1a15.91,15.91,0,0,0-15.73,18.34l.39,2.55a30.22,30.22,0,0,0,4.66,12.06c8.13,12.2,19.14,20.27,27.13,25a63.7,63.7,0,0,0,7.28,18.59c2.64,4.49,5.47,9.65,8.43,15.33a51.11,51.11,0,0,1,5.53,18.21l2.36,21.91A33.5,33.5,0,0,0,391,241.22h10.76a33.3,33.3,0,0,0,7.45-.86c-2.61,14.49-5.62,33.24-7.65,52.33A66.9,66.9,0,0,1,380,335.31c-.79.72-1.6,1.43-2.44,2.13a5.82,5.82,0,1,0,7.49,8.91c.95-.8,1.88-1.6,2.77-2.41.39-.36.77-.73,1.15-1.1-.58,23.59-1.09,57.87-.31,89.66a3.42,3.42,0,0,1-3.42,3.5h-4.6a3.39,3.39,0,0,1-3.42-3.29A189.14,189.14,0,0,0,366.84,378a5.82,5.82,0,1,0-11,3.81,176.83,176.83,0,0,1,9.76,51.26,15,15,0,0,0,15.06,14.58h4.6a15.06,15.06,0,0,0,15.06-15.42c-1-38.88,0-81.55.71-103.52,0-.11,0-.22,0-.33a79,79,0,0,0,12.11-34.45c2.39-22.57,6.19-44.68,9-59.61a33.45,33.45,0,0,0,13-23l2.37-21.91A50.89,50.89,0,0,1,443,171.16c2.95-5.67,5.79-10.83,8.43-15.33,11.77-20.05,11.71-44.5-.15-63.81-.23-.36-.47-.7-.7-1H477.1a4.27,4.27,0,0,1,4.23,4.93l-.4,2.55a18.13,18.13,0,0,1-2.83,7.37,63.17,63.17,0,0,1-9.23,10.86,5.82,5.82,0,0,0,8,8.46,75.16,75.16,0,0,0,10.92-12.86,30.2,30.2,0,0,0,4.65-12.06l.39-2.55A15.91,15.91,0,0,0,477.1,79.33ZM316.57,105.82a18.42,18.42,0,0,1-2.83-7.37l-.39-2.55A4.27,4.27,0,0,1,317.57,91h24.58c-.23.35-.47.69-.7,1a60.55,60.55,0,0,0-8.89,30.31A67.54,67.54,0,0,1,316.57,105.82ZM391,229.58a21.85,21.85,0,0,1-20.21-13.44,41.42,41.42,0,0,1,51.18,0,21.85,21.85,0,0,1-20.21,13.44Zm50.4-79.65c-2.74,4.68-5.67,10-8.71,15.85a62.94,62.94,0,0,0-6.78,22.34l-1.67,15.43a53.08,53.08,0,0,0-55.72,0l-1.39-12.86c13.06-3.27,22.34-8.73,27.62-16.26,13.08-18.63,2.2-38.78-7.41-56.56-1.61-3-3.27-6.05-4.78-9A39.22,39.22,0,0,1,379.22,99a5.82,5.82,0,0,0-11.4,2.34,50.88,50.88,0,0,0,4.33,12.73c1.59,3.13,3.29,6.28,4.93,9.32,9.16,17,17.07,31.6,8.13,44.35-3.49,5-10.36,8.86-20,11.41a62.55,62.55,0,0,0-5.14-13.38c-3-5.85-6-11.18-8.71-15.85-9.59-16.32-9.57-36.18,0-51.82,9-14.67,24.16-22.11,45-22.11s36,7.44,45,22.11C451,113.75,451,133.61,441.38,149.93Z"
      />
      <path
        d="M372.44,154.57a5.81,5.81,0,0,0,2.1.87,5.52,5.52,0,0,0,1.14.12,5.35,5.35,0,0,0,1.13-.12,5.73,5.73,0,0,0,1.09-.33,5.06,5.06,0,0,0,1-.54,4.79,4.79,0,0,0,.89-.71,5.81,5.81,0,0,0-5.25-9.82,5.42,5.42,0,0,0-1.09.32,7,7,0,0,0-1,.53,7.75,7.75,0,0,0-.88.73,5.72,5.72,0,0,0-.72.89,5,5,0,0,0-.53,1,5.29,5.29,0,0,0-.34,1.09,6.2,6.2,0,0,0-.11,1.14,5.86,5.86,0,0,0,1.71,4.12A5.4,5.4,0,0,0,372.44,154.57Z"
      />
      <path
        d="M417,143.92a5.83,5.83,0,0,0-4.12,9.94,6.39,6.39,0,0,0,1.89,1.25,5.82,5.82,0,0,0,1.1.33,5.38,5.38,0,0,0,2.26,0,5.82,5.82,0,0,0,1.1-.33,5.69,5.69,0,0,0,1-.54,6,6,0,0,0,.89-.71,5.82,5.82,0,0,0-4.12-9.94Z"
      />
      <path
        d="M261.09,152.75c-1.53,1.62-3.1,3.45-4.66,5.46h0a24.38,24.38,0,0,0-2.32,26,52,52,0,0,1,4.77,14l.06.34,1.77,8.65a24.45,24.45,0,0,0,31.47,18.41c27.15-8.79,30.95-27.91,31.32-35.73a24.32,24.32,0,0,0-1-7.92c-6.75-23.34-25.71-32.39-36.41-35.71A24.42,24.42,0,0,0,261.09,152.75Zm50.25,32.42a12.86,12.86,0,0,1,.54,4.14c-.32,6.7-3.77,18.89-23.29,25.2a12.6,12.6,0,0,1-10.34-1.12,12.88,12.88,0,0,1-6.13-8.54l-1.75-8.52A63.7,63.7,0,0,0,264.52,179a12.83,12.83,0,0,1,1.12-13.69,56.57,56.57,0,0,1,3.88-4.54,12.8,12.8,0,0,1,13.14-3.44C293,160.56,306.36,168,311.34,185.17Z"
      />
    </svg>