    <svg
      xmlns="http://www.w3.org/2000/svg"
      xmlns:xlink="http://www.w3.org/1999/xlink"
      version="1.1"
      x="0px"
      y="0px"
      viewBox="0 0 100 125"
      enable-background="new 0 0 100 100"
      xml:space="preserve"
    >
      <circle fill="#ffffff" cx="19.353" cy="38.242" r="2.189" />
      <path
        fill="#ffffff"
        d="M98.432,76.335l-8.503-15.116C86.588,48.807,76.82,32.866,62.328,24.524c1.236-2.5,3.597-3.921,5.221-4.897  c1.422-0.856,2.545-1.532,2.339-2.833c-0.209-1.328-1.632-1.863-4.951-2.633c-2.411-0.56-4.809-0.843-7.127-0.843  c-8.167,0-13.762,3.437-16.556,5.698c-1.526,0.046-3.068,0.185-4.589,0.413C11.468,23.202,8.531,40.681,8.196,44.186  c-4.813,4.422-6.542,7.179-5.771,9.176c0.489,1.268,1.831,1.911,3.987,1.911c4.886,0,13.73-3.193,14.087-3.324  c3.49-1.216,7.018-2.106,10.557-2.668c2.414,2.462,7.317,7.014,10.575,7.014c0.46,0,0.888-0.091,1.271-0.292  c1.031-0.539,1.435-1.592,1.551-2.69c0.111,0.079,0.221,0.157,0.331,0.232c2.117,1.501,3.339,1.756,4.156,1.756  c0.262,0,0.51-0.034,0.746-0.093c0.02-0.005,0.04-0.011,0.06-0.016c0.063-0.018,0.125-0.036,0.185-0.058  c0.062-0.021,0.124-0.046,0.183-0.071c0.022-0.01,0.043-0.02,0.064-0.03c0.046-0.021,0.093-0.039,0.138-0.063  c0.024-0.014,0.045-0.031,0.07-0.046c0.042-0.024,0.083-0.054,0.124-0.081c1.183-0.779,1.64-2.384,1.361-5.042  c15.256,3.201,25.512,11.7,27.23,13.198c1.45,4.946-1.082,10.648-2.614,13.146v-0.006c0,0-1.923,3.678,1.784,3.294l0,0  c2.067,0,5.998-0.717,8.895-2.479c1.729,0.868,5.188,2.461,8.503,3.156C95.919,80.085,100.271,79.605,98.432,76.335L98.432,76.335z   M41.664,53.627c-0.865,0.316-4.073-1.87-7.21-4.785c1.553-0.153,3.107-0.243,4.658-0.269c0.834,0.857,1.691,1.692,2.548,2.466  C42.008,53.123,41.652,53.626,41.664,53.627z M94.323,76.996c-0.111-0.034-0.222-0.065-0.334-0.101  c-0.148-0.053-0.268-0.092-0.362-0.121c-2.047-0.683-4.147-1.618-5.869-2.521l-0.35-0.184c-0.508-0.266-0.767,0-0.767,0  l-0.352,0.258c-1.456,1.061-3.467,1.675-5.261,2.03c-0.021,0.004-0.042,0.008-0.064,0.013c-0.021,0.004-0.041,0.008-0.062,0.011  c-1.641,0.37-0.787-1.433-0.796-1.411l0,0c1.511-3.396,3.008-8.461,1.446-13.15l-0.107-0.323l-0.25-0.232  c-0.479-0.447-11.797-10.835-29.807-14.287c-0.259-1.167-0.603-2.463-1.04-3.914c-0.039-0.115-0.496-1.363-1.854-0.928  c-0.788,0.252-0.942,0.799-0.89,1.238c0.067,0.218,0.156,0.431,0.156,0.639v0.181h0.038c1.567,5.081,1.539,7.213,1.38,8.037  c-0.068,0.296-0.149,0.39-0.147,0.39h0c0,0-0.025,0.005-0.091,0.005c-0.353,0-2.405-0.388-8.223-6.41l-0.397-0.49h-0.064  c-1-0.766-2.021-2.092-3.027-3.263c0,0-1.059-1.245-2.259-0.253c-0.564,0.466-0.549,0.939-0.38,1.303  c0.648,0.775,1.361,1.615,2.115,2.461c-5.722,0.324-11.458,1.479-17.103,3.446c-0.088,0.032-8.771,3.171-13.189,3.171  c-0.989,0-1.37-0.16-1.482-0.227c0.009-0.297,0.334-1.909,5.463-6.556l0.433-0.392l0.008-0.583  c0.003-0.188,0.556-18.911,26.228-22.757c1.563-0.233,3.15-0.366,4.712-0.394l0.477-0.009l0.364-0.308  c2.374-2.005,7.505-5.37,15.196-5.37c1.889,0,3.841,0.209,5.813,0.619c0.038,0.016,1.916,0.834,0.329,2.15  c-0.001,0-0.001,0.001-0.002,0.001c-1.758,1.279-3.655,3.125-4.58,5.929l-0.351,1.064l0.984,0.534  c14.433,7.818,24.151,23.603,27.381,35.778l0.043,0.165l6.92,12.303h-0.001l0.002,0.002l0.082,0.146  C94.746,75.265,95.79,77.332,94.323,76.996z"
      />
    </svg>