    <svg
      xmlns="http://www.w3.org/2000/svg"
      xmlns:xlink="http://www.w3.org/1999/xlink"
      xml:space="preserve"
      version="1.1"
      style="
        shape-rendering: geometricPrecision;
        text-rendering: geometricPrecision;
        image-rendering: optimizeQuality;
      "
      viewBox="0 0 846.66 1058.325"
      x="0px"
      y="0px"
      fill-rule="evenodd"
      clip-rule="evenodd"
    >
      <defs>
        <style type="text/css">
          .fil0 {
            fill: #ffffff;
            fill-rule: nonzero;
          }
        </style>
      </defs>
      <g>
        <path
          class="fil0"
          d="M783.88 440.07c22.93,-15.64 46.72,19.26 23.82,34.88l-98.34 66.95c-22.93,15.64 -46.72,-19.26 -23.82,-34.88l98.34 -66.95zm-581.09 198.98c-27.42,4.55 -34.32,-37.11 -6.94,-41.66 44.25,-7.44 87.41,-3.36 131.69,0.46 27.71,2.38 24.11,44.54 -3.64,42.16 -40.06,-3.46 -81.18,-7.67 -121.11,-0.96zm197.42 4.33c-27.75,0.64 -28.7,-41.52 -1,-42.16 58.62,-1.53 104.92,-19.02 149.88,-56.14l-30.25 2.16c-18.44,1.3 -29.27,-19.92 -18.11,-34.14l68.27 -86.72c-11.8,-2.4 -23,-4.97 -33.83,-7.45 -62.34,-14.31 -111.13,-25.5 -199.47,26.43 -67.56,39.71 -126.04,-19.51 -62.77,-89.31 31.31,-32.15 96.34,-98.94 91.14,-164.83 -6.74,-85.47 -84.04,-115.69 -148.22,-68.69 -15.72,11.5 -26.58,27.01 -31.98,43 -1.18,4.83 -4.06,9.27 -8.46,12.33 -41.56,28.9 -56.88,30.11 -87.44,32.22 -7.95,0.59 -28.58,5.01 -7.76,11.39 41,12.59 65.42,17.09 107.33,4.76 26.66,-7.82 38.53,32.71 11.9,40.52 -50.29,14.82 -82.33,10.12 -131.55,-4.94 -52.4,-15.97 -54.83,-88.78 17.21,-93.89 21.36,-1.47 32.74,-2.38 60.72,-21.06 8.52,-21.97 23.8,-42.83 45.07,-58.39 90.38,-66.14 205.94,-19.53 215.34,99.45 6.69,84.87 -67.37,160.94 -103.04,197.57 -21.98,22.46 -23.49,43.87 11.17,23.49 102.85,-60.45 158.76,-47.63 230.23,-31.23 53.79,12.34 117.36,26.93 222.29,7.75 22,-4.02 34.12,24.62 16.27,37.77l-79.49 58.59c-22.39,16.41 -47.36,-17.64 -24.96,-34.06l15.31 -11.28c-28.99,1.38 -54.38,0.16 -77.27,-2.45l-53.22 67.61 40.22 -2.87c18.52,-1.08 29.97,20.84 17.2,35.13 -61.18,68.4 -127.98,107.02 -220.73,109.44zm-159.65 -509.91c11.84,0 21.42,9.58 21.42,21.43 0,11.84 -9.58,21.43 -21.42,21.43 -11.85,0 -21.43,-9.59 -21.43,-21.43 0,-11.85 9.58,-21.43 21.43,-21.43zm487.37 415.61c14.66,-23.57 50.54,-1.24 35.88,22.32 -81.2,130.17 -222.66,214.05 -376.72,216.84 -190.59,3.45 -373.77,-54.88 -306.4,-278.72 23.41,-77.72 74.97,-163.95 139.32,-246.76 17.03,-21.93 50.45,4 33.4,25.96 -61.44,79.07 -110.42,160.58 -132.2,232.88 -58.18,193.33 106.89,227.35 265.22,224.48 139.85,-2.54 267.84,-78.91 341.5,-197z"
        />
      </g>
    </svg>