 <svg
      xmlns="http://www.w3.org/2000/svg"
      viewBox="0 0 64 80"
      x="0px"
      y="0px"
      fill="#ffffff"
    >
      <g data-name="21-eagle">
        <path
          d="M50.56641,22a1,1,0,1,0,0,2C52.39551,24,54,26.80371,54,30c0,4.90466-7.71906,12.35156-21.2077,20.52362l.12127-.849C46.59686,43.28534,50.0011,32.21216,50.8042,26.13086a.99981.99981,0,1,0-1.98242-.26172c-.75879,5.74316-4.00635,16.26758-17.269,22.23633l-6,3c-.04907.02453-10.873,8.51758-10.873,8.51758l2.42676-5.2002a1,1,0,1,0-1.8125-.8457l-4.2002,9a.99983.99983,0,0,0,1.52393,1.209L25.40411,53.73962,26,56.12305v3.20312C24.919,59.82129,23,60.98535,23,63a.99974.99974,0,0,0,1,1H36a.99974.99974,0,0,0,1-1c0-2.7207-2.7998-3.72266-5-3.94727V56.06982l.42889-3.00244c.02668-.01275.055-.0188.08088-.03418C51.9248,41.52246,56,34.1543,56,30,56,25.58887,53.5625,22,50.56641,22ZM27.16461,52.53534l3.57581-1.78821L30.13281,55h-2.352ZM34.53564,62H25.522a5.45655,5.45655,0,0,1,1.79444-1.05176A.9989.9989,0,0,0,28,60V57h2v3a1.00162,1.00162,0,0,0,.99854,1C31.02979,61,33.48828,61.041,34.53564,62Z"
        />
        <path
          d="M37,59a.99974.99974,0,0,0,1-1V56.03906l.30469-3.96191a1.00005,1.00005,0,0,0-1.99414-.1543L36.07391,55H34a1,1,0,0,0,0,2h2v1A.99974.99974,0,0,0,37,59Z"
        />
        <path
          d="M38.11963,59.07812a1.00034,1.00034,0,0,0-.23926,1.98633A5.14828,5.14828,0,0,1,40.53564,62H39a1,1,0,0,0,0,2h3a.99974.99974,0,0,0,1-1C43,60.88184,41.22119,59.45215,38.11963,59.07812Z"
        />
        <path
          d="M27.001,21.16113a.9907.9907,0,0,0,.49267-.13086c1.85846-1.05493,3.25226-1.77789,3.7461-2.03027H33v1a1.00028,1.00028,0,0,0,.44531.832l3,2a.99746.99746,0,0,0,1.10938,0l2.31787-1.54492L42.293,23.707a.99963.99963,0,0,0,1.41406,0l2.59961-2.59961,3.45068.86231a.99955.99955,0,0,0,1.13721-1.417L49.3418,17.44727l1.10547-.55274A.99972.99972,0,0,0,50.707,15.293L48.41406,13l1.293-1.293a.99962.99962,0,0,0,0-1.41406L47.688,8.27441l.75928-.37988a1,1,0,0,0,.44726-1.3418C48.76074,6.28516,45.543,0,39,0c-5.21436,0-7.10345,2.75415-7.71112,4.07239a5.3206,5.3206,0,0,0-4.23761,3.6112A.99858.99858,0,0,0,27,8v3a.996.996,0,0,0,.75879.96289A1.00659,1.00659,0,0,0,28.8877,11.46a3.382,3.382,0,0,1,2.981-1.45l1.72113.574-3.33709,6.67414c-.57355.29419-1.93573,1.00506-3.7464,2.03387a.99964.99964,0,0,0,.49463,1.86914ZM29,8.71973V8.17188a3.204,3.204,0,0,1,2-1.961V8.07336A5.799,5.799,0,0,0,29,8.71973Zm6.89453,1.72754a.99964.99964,0,0,0-.57812-1.39551L33,8.2793V5.15137C33.19824,4.59277,34.3667,2,39,2c3.98389,0,6.54736,3.05664,7.5835,4.58984l-1.03077.51563A.99972.99972,0,0,0,45.293,8.707L47.58594,11l-1.293,1.293a.99962.99962,0,0,0,0,1.41406l2.019,2.01856-.75928.37988a1,1,0,0,0-.44726,1.3418l1.02783,2.05566-1.89062-.47266a1.00172,1.00172,0,0,0-.94971.2627L43,21.58594l-2.293-2.293a.99973.99973,0,0,0-1.26172-.125L37,20.79785l-2-1.333V18a.99974.99974,0,0,0-1-1H32.61816Z"
        />
        <path
          d="M38,30c0-4.41113-2.4375-8-5.43359-8H22.2793a1.007,1.007,0,0,0-.5376.15625C12.62354,27.96875,8,32.96289,8,37V55a1.00053,1.00053,0,0,0,1.46484.88574C10.62988,55.27344,38,40.77637,38,30ZM10,53.32617V37c0-3.18457,4.46191-7.7959,12.57178-13h9.99463C34.39551,24,36,26.80371,36,30,36,37.48047,18.43359,48.68945,10,53.32617Z"
        />
        <path
          d="M31,28a.99974.99974,0,0,0-1,1,2,2,0,0,1-4,0,1,1,0,0,0-2,0,2,2,0,0,1-4,0,1,1,0,0,0-2,0,3.99808,3.99808,0,0,0,7,2.64258A3.99808,3.99808,0,0,0,32,29,.99974.99974,0,0,0,31,28Z"
        />
        <path
          d="M26,34a.99974.99974,0,0,0-1,1,2,2,0,0,1-4,0,1,1,0,0,0-2,0,2,2,0,0,1-4,0,1,1,0,0,0-2,0,3.99808,3.99808,0,0,0,7,2.64258A3.99808,3.99808,0,0,0,27,35,.99974.99974,0,0,0,26,34Z"
        />
        <path
          d="M19,41a.99974.99974,0,0,0-1,1,2,2,0,0,1-4,0,1,1,0,0,0-2,0,4,4,0,0,0,8,0A.99974.99974,0,0,0,19,41Z"
        />
        <rect x="36" y="4" width="2" height="2" />
      </g>
    </svg>