    <svg
      xmlns="http://www.w3.org/2000/svg"
      xmlns:xlink="http://www.w3.org/1999/xlink"
      version="1.1"
      x="0px"
      y="0px"
      viewBox="0 0 100 125"
      style="enable-background: new 0 0 100 100"
      xml:space="preserve"
      fill="#ffffff"
    >
      <g>
        <path
          d="M90.533,56.868c9.486-7.764,11.963-16.711,6.616-22.313c-4.479-4.715-11.603-3.813-19.626,3.471   c-3.854-2.93-9.17-5.666-15.08-7.891V12.157c0,0-26.761-1.644-33.787,12.858C8.919,27.408,0,41.067,0,54.617   c0,2.119,1.249,9.105,1.249,9.105l5.522,1.813l-4.507,2.217C7.956,74.858,15.56,89.6,51.082,82.523   c6.365,6.385,11.553,6.008,14.977,4.304c4.961-2.484,5.459-7,4.22-11.015c1.696-0.843,3.272-1.718,4.684-2.616   c5.789,6.227,15.612,12.896,22.192,5.981C104.308,71.669,96.422,61.881,90.533,56.868z M57.448,17.189v11.232   c-7.48-2.326-15.484-3.775-22.479-3.775c-0.069,0-0.136,0.002-0.205,0.002C37.554,21.356,43.738,17.597,57.448,17.189z    M93.533,75.733c-4.376,4.602-14.103-3.747-17.649-9.501c-1.744,1.694-4.417,3.412-7.657,5.026   c-2.48-4.293-5.896-7.797-6.515-8.415l-3.532,3.533c3.279,3.287,11.664,13.396,5.645,15.98c-6.278,3.154-14.318-9.264-16.63-13.869   l-4.469,2.234c0.089,0.178,1.86,3.695,4.674,7.479c-4.354,0.88-8.635,1.395-12.43,1.395c-12.172,0-20.271-4.176-24.948-10.091   l9.961-4.896l-14.44-4.737C2.635,42.31,13.859,29.642,34.969,29.642c15.235,0,36.604,7.759,42.734,15.35   c2.051-2.43,11.209-11.866,15.83-6.991c2.572,2.695,1.801,7.493-4.492,13.489c-3,2.855-5.61,4.59-7.805,5.368v0.018   c2.194,0.777,4.805,2.515,7.805,5.371C95.334,68.24,96.105,73.038,93.533,75.733z M24.978,49.624c0,2.759-2.234,4.995-4.996,4.995   s-4.996-2.236-4.996-4.995c0-2.759,2.234-4.996,4.996-4.996S24.978,46.865,24.978,49.624z M38.632,55.127   c3.429,4.883,5.976,13.366-1.898,21.24l-3.532-3.531c9.499-10.262-2.419-18.906-2.419-18.906s12.27-1.299,2.107-17.907l4.157-2.771   c0.659,0.99,6.391,9.879,4.469,17.114C41.018,52.236,40.037,53.846,38.632,55.127z"
        />
      </g>
    </svg>