 <svg
      xmlns="http://www.w3.org/2000/svg"
      viewBox="0 0 48 60"
      x="0px"
      y="0px"
      fill="#ffffff"
    >
      <g data-name="17-fox">
        <path d="M15,22H13a1,1,0,0,0,0,2h2a1,1,0,0,0,0-2Z" />
        <path
          d="M28,30c-2.65332,0-4.53711-4.53027-5.03857-6.27539a1,1,0,0,0-1.92286.5498C21.12842,24.58984,23.2998,32,28,32c2.11133,0,9,1.00977,9,14a1,1,0,0,0,2,0C39,36.13086,34.78516,30,28,30Z"
        />
        <path
          d="M13.083,34.00391a.98941.98941,0,0,0-1.07959.91308L11.08008,46H8.90479l-.90967-9.09961a1.00009,1.00009,0,0,0-1.99024.19922l1,10A1.00052,1.00052,0,0,0,8,48h4a1.0001,1.0001,0,0,0,.99658-.917l1-12A.99942.99942,0,0,0,13.083,34.00391Z"
        />
        <path
          d="M21.09961,36.00488a1.00408,1.00408,0,0,0-1.09473.89551L19.09521,46H16.91992l-.92334-11.083a.98822.98822,0,0,0-1.07959-.91308.99942.99942,0,0,0-.91357,1.0791l1,12A1.0001,1.0001,0,0,0,16,48h4a1.00052,1.00052,0,0,0,.99512-.90039l1-10A1.0002,1.0002,0,0,0,21.09961,36.00488Z"
        />
        <path
          d="M34,46H25V45a1.001,1.001,0,0,1,1-1h2.87708A5.56042,5.56042,0,0,0,32,45a1,1,0,0,0,.00537-2A2.85289,2.85289,0,0,1,29,40a3.81741,3.81741,0,0,1,1.6001-3.2002.9999.9999,0,0,0-1.2002-1.5996A5.798,5.798,0,0,0,27,40a5.57822,5.57822,0,0,0,.34344,2H26a3.00328,3.00328,0,0,0-3,3v2a.99974.99974,0,0,0,1,1H34a1,1,0,0,0,0-2Z"
        />
        <path
          d="M7,35a.99974.99974,0,0,0,1-1V26a1,1,0,0,0-2,0v8A.99974.99974,0,0,0,7,35Z"
        />
        <path
          d="M19.98975,23.33105a15.12306,15.12306,0,0,1,1.61914-.71679C23.667,21.78613,26,20.84668,26,19a5.655,5.655,0,0,0-1.00732-3.36426,9.14586,9.14586,0,0,0-.75287-3.2586A6.58819,6.58819,0,0,0,27,7V1a.99974.99974,0,0,0-1-1H24a7.0067,7.0067,0,0,0-6.96924,6.39264,11.89343,11.89343,0,0,0-6.06152,0A7.0067,7.0067,0,0,0,4,0H2A.99974.99974,0,0,0,1,1V7a6.58819,6.58819,0,0,0,2.76019,5.37714,9.14586,9.14586,0,0,0-.75287,3.2586A5.655,5.655,0,0,0,2,19c0,1.84668,2.333,2.78613,4.39111,3.61426a15.12306,15.12306,0,0,1,1.61914.71679C8.20605,26.39746,11.12012,28,14,28S19.794,26.39746,19.98975,23.33105ZM19,7a5.00588,5.00588,0,0,1,5-5h1V7a4.54494,4.54494,0,0,1-1.7522,3.61066A10.24646,10.24646,0,0,0,22.026,9.18427l1.86853-3.737a1.00012,1.00012,0,1,0-1.78906-.89454L20.42975,7.90411a11.23388,11.23388,0,0,0-1.44837-.81182A.93746.93746,0,0,0,19,7ZM3,7V2H4A5.00588,5.00588,0,0,1,9,7a.93746.93746,0,0,0,.01862.09229,11.23388,11.23388,0,0,0-1.44837.81182L5.89453,4.55273a1.00012,1.00012,0,0,0-1.78906.89454L5.974,9.18427a10.24242,10.24242,0,0,0-1.2218,1.42639A4.54512,4.54512,0,0,1,3,7ZM18,23c0,2.373-2.6167,3-4,3s-4-.627-4-3c0-1.08984-1.13867-1.54785-2.8623-2.24121C6.37549,20.45215,4.05615,19.51855,4,19a3.477,3.477,0,0,1,.707-2.293A.99928.99928,0,0,0,5,16c0-4.41113,4.0376-8,9-8s9,3.58887,9,8a1.03992,1.03992,0,0,0,.28174.69531A3.46381,3.46381,0,0,1,24,19c-.05615.51855-2.37549,1.45215-3.1377,1.75879C19.13867,21.45215,18,21.91016,18,23Z"
        />
        <path
          d="M12.89453,17.44727a1,1,0,0,0-.44726-1.3418l-4-2a1.00012,1.00012,0,1,0-.89454,1.78906l4,2A1.04328,1.04328,0,0,0,12.89453,17.44727Z"
        />
        <path
          d="M20.89453,14.55273a1.00039,1.00039,0,0,0-1.3418-.44726l-4,2a1,1,0,0,0-.44726,1.3418.98278.98278,0,0,0,1.3418.44726l4-2A1,1,0,0,0,20.89453,14.55273Z"
        />
        <path
          d="M42.78076,13.375A1.0002,1.0002,0,0,0,41,14c0,.07031-.0459,7-4,7-4.74609,0-6,5.2334-6,8a.99921.99921,0,0,0,.99854.999H32a1.00068,1.00068,0,0,0,1-.99707c.00092-.22967.05664-5.29754,3.30121-5.93567l.75006,2.25013A1,1,0,0,0,38,26h2.46484L42.168,28.55469A.99963.99963,0,0,0,43,29h1.96027c-.40583,7.43939-5.198,9.99884-5.40754,10.10547a1.00012,1.00012,0,0,0,.89454,1.78906C40.71484,40.76074,47,37.50879,47,28,47,18.75586,42.95312,13.59082,42.78076,13.375ZM43.53516,27,41.832,24.44531A.99963.99963,0,0,0,41,24H38.7207l-.38836-1.16528c2.6986-.69556,3.83886-3.48889,4.31854-5.75464A25.13942,25.13942,0,0,1,44.96838,27Z"
        />
      </g>
    </svg>