    <svg
      xmlns="http://www.w3.org/2000/svg"
      viewBox="0 0 512 640"
      x="0px"
      y="0px"
      fill="#ffffff"
    >
      <g>
        <path
          d="M296.748,139.5a42.616,42.616,0,0,1-19.491,20.931l-2.184,1.092a63.98,63.98,0,0,0-26.316,24.334l-4.054,6.758A47.93,47.93,0,0,1,216.215,214.2l-30.95,8.44A56.122,56.122,0,0,0,147.977,256H136a32,32,0,0,0-32,32v38.311a24,24,0,0,1-4.031,13.313L78.718,371.5A39.991,39.991,0,0,0,72,393.689V416a8,8,0,0,0,8,8h0a8,8,0,0,0,8-8V393.689a24,24,0,0,1,4.031-13.313L113.282,348.5A39.991,39.991,0,0,0,120,326.311V288a16,16,0,0,1,16-16H144.2q-.193,2.312-.195,4.662v49.044L105.216,387.76A7.994,7.994,0,0,0,104,392v96a8,8,0,0,0,8,8h39.777a8.314,8.314,0,0,0,4.745-1.395,8.011,8.011,0,0,0,3.239-8.545L152,455.015V411.7l.147-.022,24.207,78.673A8,8,0,0,0,184,496h31.777a8.314,8.314,0,0,0,4.745-1.395,8.011,8.011,0,0,0,3.239-8.545l-8-32-.17-.584-14.438-43.315,8.22-8.22A103.786,103.786,0,0,0,239.7,336h15.078l-6.7,46.869-.058.527L240.04,487.17a8.362,8.362,0,0,0,.606,3.991A8.013,8.013,0,0,0,248,496h32a8,8,0,0,0,7.977-7.386l4.868-63.29L304,462.507V464h.448l7.889,26.3A8,8,0,0,0,320,496h31.777a8.314,8.314,0,0,0,4.745-1.395,8.011,8.011,0,0,0,3.239-8.545L320,327.015V265.472L381.513,104h27.163a23.307,23.307,0,0,0,16.476-39.809,23.6,23.6,0,0,0,2.255-2.875l11.12-16.685A8.246,8.246,0,0,0,439.749,38,8.007,8.007,0,0,0,432,32H408.56A23.941,23.941,0,0,0,392,38.641V16H376V40H360V16H344V33.577A24,24,0,0,0,335.437,32h-23.2A8.252,8.252,0,0,0,306,34.7a8.008,8.008,0,0,0-.658,9.736l11.249,16.874A23.949,23.949,0,0,0,331.684,71.5l-34.77,67.65C296.856,139.266,296.8,139.38,296.748,139.5ZM280,180.944l8-4,8,4v6.112l-8,4-8-4ZM200,235.2l16-4.363v12.218l-8,4-8-4ZM154.929,338.409,160,340.944v6.112l-8,4-3.791-1.9ZM120,480V464h17.754l4,16Zm69.909,0-4.923-16h16.768l4,16Zm8.15-89.373-11.716,11.716a8,8,0,0,0-1.932,8.187L196.9,448H180.062l-14.785-48.053A243.273,243.273,0,0,0,212.93,336h10.7A87.892,87.892,0,0,1,198.059,390.627ZM256.639,480l1.231-16h15.953l-1.231,16ZM304,295.056l-8-4v-6.112l8-4Zm6,57.923L333.754,448h-17.4l-19.384-64.616ZM325.952,480l-4.8-16h16.6l4,16ZM338,160.556v-6.112l8-4,.586.294-4.515,11.853ZM408.56,48h8.494l-2.961,4.442a7.984,7.984,0,0,1-2.839,2.581l-8.135-4.881A7.977,7.977,0,0,1,408.56,48Zm-78.654,4.438L326.948,48h8.489a7.987,7.987,0,0,1,6.657,3.562l2.152,3.229a8,8,0,0,0,1.023,1.243Q344.9,56,344.535,56h-7.972A7.987,7.987,0,0,1,329.906,52.438ZM336,100.944v6.112l-6.191,3.095,5.031-9.787Zm-24.788,45.391,10.543-20.513,2.667,1.333a8,8,0,0,0,7.156,0l16-8A8,8,0,0,0,352,112V96a8,8,0,0,0-4.422-7.155l-5.424-2.712,9.5-18.476a8,8,0,0,0-1.482-9.338,7.782,7.782,0,0,0,1.34.011A8,8,0,0,0,356.569,56h25.215l30.66,18.4A7.324,7.324,0,0,1,408.676,88H376a8,8,0,0,0-7.476,5.152l-16.213,42.559-2.733-1.366a8,8,0,0,0-7.156,0l-16,8A8,8,0,0,0,322,149.5v16a8,8,0,0,0,4.422,7.155l9.925,4.962-31.823,83.535A8.014,8.014,0,0,0,304,264h0a8,8,0,0,0-3.578.845l-16,8A8,8,0,0,0,280,280v16a8,8,0,0,0,4.422,7.155l16,8A8,8,0,0,0,304,312v14.358l-23.353,54.491a8,8,0,0,0-.624,2.537L275.053,448H259.1l4.856-63.126,7.962-55.743A8,8,0,0,0,264,320H208a8,8,0,0,0-7.156,4.423l-1.091,2.182A226.766,226.766,0,0,1,139,401.753,8,8,0,0,0,136,408v40H120V394.294l19.691-31.5,8.731,4.365a8,8,0,0,0,7.156,0l16-8A8,8,0,0,0,176,352V336a8,8,0,0,0-4.422-7.155L160,323.056V304.944l12.422,6.211a8,8,0,0,0,7.156,0l16-8A8,8,0,0,0,200,296V280a8,8,0,0,0-4.422-7.155l-16-8a8,8,0,0,0-7.156,0l-11.986,5.993A40.138,40.138,0,0,1,184,240.012V248a8,8,0,0,0,4.422,7.155l16,8a8,8,0,0,0,7.156,0l16-8A8,8,0,0,0,232,248V225.242a63.613,63.613,0,0,0,26.423-24.4l4.055-6.759c.48-.8,1-1.575,1.522-2.344V192a8,8,0,0,0,4.422,7.155l16,8a8,8,0,0,0,7.156,0l16-8A8,8,0,0,0,312,192V176a8,8,0,0,0-4.422-7.155l-9.119-4.559A62.506,62.506,0,0,0,311.212,146.335ZM168,291.056v-6.112l8-4,8,4v6.112l-8,4Z"
        />
        <path
          d="M291.578,224.845l-16-8a8,8,0,0,0-7.156,0l-16,8A8,8,0,0,0,248,232v16a8,8,0,0,0,4.422,7.155l16,8a8,8,0,0,0,7.156,0l16-8A8,8,0,0,0,296,248V232A8,8,0,0,0,291.578,224.845ZM280,243.056l-8,4-8-4v-6.112l8-4,8,4Z"
        />
        <path
          d="M259.578,272.845l-16-8a8,8,0,0,0-7.156,0l-16,8A8,8,0,0,0,216,280v16a8,8,0,0,0,4.422,7.155l16,8a8,8,0,0,0,7.156,0l16-8A8,8,0,0,0,264,296V280A8,8,0,0,0,259.578,272.845ZM248,291.056l-8,4-8-4v-6.112l8-4,8,4Z"
        />
        <rect x="368" y="64" width="16" height="16" />
      </g>
    </svg>