    <svg
      xmlns="http://www.w3.org/2000/svg"
      xmlns:xlink="http://www.w3.org/1999/xlink"
      version="1.1"
      x="0px"
      y="0px"
      viewBox="0 0 100 125"
      enable-background="new 0 0 100 100"
      xml:space="preserve"
      fill="#ffffff"
    >
      <path
        d="M51.305,93.929c-0.901,0-2.033-0.354-2.256-1.353c-0.03-0.138-0.076-0.347,0.024-0.811c-0.498-0.083-1.201-0.13-1.582-0.012  c-1.316,0.413-2.787-0.077-2.95-0.134c-0.121-0.042-0.232-0.103-0.332-0.178c-0.224,0.146-0.493,0.215-0.766,0.197l-0.787-0.061  c-0.368-0.028-0.703-0.221-0.913-0.524c-0.005-0.006-0.009-0.013-0.013-0.019c-0.028,0.011-0.056,0.021-0.082,0.03  c-1.323,0.498-1.72,0.639-1.988,0.684c-0.538,0.089-3.561,0.225-3.702,0.225c-0.378,0-1.265-0.161-1.339-1.654  c-0.029-0.603-0.12-2.436,1.286-2.574c0.191-0.048,1.604-0.504,2.035-0.686c0.334-0.308,1.65-1.578,2.627-2.526  c0.169-0.351,0.32-0.742,0.337-0.886c0.01-0.296-0.161-1.785-0.34-3.108c-0.208-0.28-0.539-0.726-0.727-0.983  c-0.365-0.499-0.73-1.866-0.817-2.73c-1.194-2.01-2.15-4.892-2.552-6.2c-1.243-0.699-2.492-1.586-3.688-2.709  c-5.847-5.492-12.475-11.719-9.037-21.381c0.815-2.291,2.746-5.053,4.298-7.271c0.845-1.207,1.642-2.348,1.882-2.896  c0.648-1.479,2.262-8.231,2.381-12.713c0.042-1.568-0.307-3.458-0.479-4.286c-0.135-0.063-0.354-0.146-0.67-0.195  c-1.482-0.237-3.071-1.382-3.515-2.065c-0.098-0.131-0.519-0.556-0.998-1.02c-2.783-1.793-3.439-2.241-3.629-2.382  c-0.146-0.095-0.567-0.329-1.073-0.614c-2.86-1.61-3.056-1.765-3.268-2.231c-0.169-0.373-0.163-0.8,0.017-1.171  c0.306-0.633,1.025-0.93,1.575-1.068c0.196-0.049,0.423-0.066,1.396-0.127c0.781-0.048,2.091-0.13,2.499-0.221  c0.679-0.15,1.686-0.713,1.914-1.008c0.764-0.982,2.234-1.165,2.521-1.191c0.208-0.021,0.415,0.015,0.604,0.098l1.4,0.612  c2.633-0.167,3.127,0.027,3.318,0.103c2.352,0.93,4.24,4.265,4.595,4.923c0.56,1.036,2.055,7.29,2.055,10.969  c0,1.769-0.233,4.48-0.46,7.103c-0.219,2.543-0.445,5.172-0.362,6.045c0.041,0.437,0.069,0.84,0.096,1.221  c0.084,1.225,0.145,2.109,0.621,3.184c0.147,0.33,0.266,0.623,0.372,0.885c0.392,0.968,0.462,1.143,1.158,1.476  c0.711,0.34,2.076,0.69,3.396,1.03c0.983,0.252,2,0.514,2.823,0.79c3.422,1.15,6.71,3.623,9.772,7.349  c1.365,1.656,2.985,2.76,5.003,3.432c1.104,0.368,3.886,0.114,5.073,0.006c0.481-0.043,0.757-0.067,0.951-0.072  c0.267-0.097,0.881-0.358,1.432-0.594c4.231-1.808,6.474-2.595,7.732-2.191c0.663,0.212,1.104,0.694,1.208,1.322  c0.032,0.189,0.095,0.563-0.187,1.155c0.073,0.004,0.145,0.01,0.211,0.018l0.97,0.121c0.472,0.06,0.866,0.386,1.013,0.839  c0.146,0.452,0.019,0.948-0.329,1.272c-0.148,0.139-3.654,3.408-5.175,4.748c-0.557,0.491-1.261,0.934-2.049,1.33  c-0.656,1.124-2.881,4.643-5.72,5.976c-0.922,0.434-1.461,1.254-2.144,2.293c-1.109,1.688-2.489,3.788-6.075,4.983  c-1.286,0.429-2.206,0.848-2.63,1.054c-0.215,0.291-0.573,0.688-1.128,1.051c0.29,0.712,0.323,1.186,0.211,1.547  c0.079,0.847,0.838,3.563,1.623,4.232c1.036,0.883,1.499,3.536,1.031,4.668c-0.342,0.833-1.233,0.932-1.95,1.011  c-0.112,0.013-0.269,0.029-0.399,0.049l-0.08,0.141c-0.535,0.95-1.928,1.686-2.342,1.889c-0.502,0.21-0.995,0.444-1.183,0.557  c-0.03,0.039-0.062,0.085-0.096,0.132C52.659,93.24,52.16,93.929,51.305,93.929z M48.143,89.231c0.804,0,1.512,0.146,1.705,0.188  c0.033,0.008,0.066,0.017,0.099,0.026l1.06,0.333c0.328,0.104,0.598,0.34,0.743,0.651c0.023,0.052,0.044,0.104,0.061,0.157  c0.276-0.165,0.714-0.389,1.419-0.681c0.468-0.233,1.095-0.67,1.219-0.866l0.273-0.481c0.418-0.737,1.265-0.845,2.022-0.929  c-0.054-0.512-0.229-1.209-0.398-1.424c-1.164-0.987-2.566-4.697-2.387-6.442c-0.02-0.065-0.058-0.164-0.107-0.279  c-0.292,0.071-0.572,0.136-0.835,0.194c0.068,0.111,0.119,0.233,0.148,0.362c0.069,0.299,0.68,2.94,0.805,3.717  c0.145,0.906-0.102,2.525-0.151,2.841c-0.063,0.393-0.313,0.73-0.671,0.906c-0.162,0.078-1.609,0.777-2.743,0.983  c-0.25,0.046-0.552,0.09-0.867,0.135c-0.367,0.054-0.985,0.143-1.339,0.229c-0.073,0.112-0.169,0.239-0.293,0.383  C47.984,89.232,48.063,89.231,48.143,89.231z M42.817,79.486c0.066,0.127,0.111,0.265,0.132,0.407  c0.169,1.226,0.446,3.369,0.396,3.961c-0.061,0.734-0.546,1.705-0.693,1.985c-0.06,0.114-0.138,0.219-0.23,0.309  c-1.845,1.792-2.867,2.769-3.039,2.902c-0.118,0.093-0.359,0.207-0.659,0.328c0.26-0.019,0.457-0.034,0.539-0.046  c0.138-0.038,0.972-0.352,1.523-0.56c2.188-0.823,2.419-0.907,3.008-0.442c0.304-0.337,0.539-0.604,0.612-0.703  c0.164-0.221,0.377-0.641,0.455-0.811c0.057-0.123,0.132-0.233,0.223-0.329c-0.064-0.131-0.17-0.33-0.295-0.568  c-0.684-1.309-1.262-2.451-1.407-3.18c-0.101-0.503-0.078-1.082-0.049-1.814c0.009-0.245,0.02-0.507,0.025-0.784  c0.004-0.199,0.022-0.398,0.049-0.591C43.209,79.535,43.012,79.515,42.817,79.486z M45.91,79.478  c-0.054,0.23-0.098,0.487-0.103,0.716c-0.006,0.293-0.017,0.569-0.026,0.827c-0.02,0.503-0.04,1.022,0.003,1.24  c0.089,0.443,0.852,1.901,1.177,2.524c0.364,0.697,0.452,0.87,0.505,1.081c0.028,0.114,0.108,0.374,0.181,0.602  c0.452-0.111,0.976-0.187,1.539-0.269c0.284-0.041,0.556-0.079,0.78-0.12c0.442-0.081,1.051-0.312,1.52-0.511  c0.067-0.581,0.104-1.172,0.063-1.423c-0.084-0.527-0.493-2.339-0.707-3.272c-0.181-0.22-0.475-0.573-0.765-0.911  c-1.415-0.216-2.322-0.442-2.706-0.675c-0.018-0.011-0.036-0.022-0.055-0.034C46.955,79.326,46.468,79.412,45.91,79.478z   M45.675,73.906c0.51,0,0.985,0.32,1.159,0.829c0.586,1.713,1.181,2.075,1.811,2.459c0.216,0.084,1.231,0.264,2.258,0.41  c0.438-0.078,1.65-0.304,2.967-0.651c0.082-0.021,0.16-0.045,0.233-0.069c0.003-0.001,0.006-0.002,0.009-0.003  c0.913-0.307,1.211-0.813,1.225-0.837c0.113-0.198,0.301-0.402,0.501-0.512c0.051-0.027,1.266-0.684,3.287-1.357  c2.78-0.927,3.809-2.491,4.804-4.005c0.787-1.198,1.602-2.438,3.149-3.164c0.948-0.446,1.874-1.301,2.664-2.213  c-2.981,0.866-5.769,1.266-5.972,1.294c-0.67,0.104-1.289-0.373-1.383-1.043c-0.094-0.669,0.373-1.289,1.043-1.383  c1.775-0.25,6.108-1.092,8.966-2.429c0.022-0.012,0.046-0.022,0.069-0.032c0.721-0.343,1.344-0.717,1.803-1.121  c0.636-0.562,1.653-1.491,2.614-2.377c-0.259,0.061-0.516,0.125-0.754,0.19c-0.567,0.154-1.164-0.115-1.424-0.645  c-0.258-0.528-0.104-1.167,0.368-1.519c0.242-0.182,0.488-0.381,0.719-0.582c-1.468,0.492-3.444,1.336-4.386,1.738  c-1.612,0.688-1.955,0.834-2.369,0.791c-0.145,0.004-0.41,0.031-0.753,0.063c-2.167,0.196-4.603,0.367-6.069-0.122  c-2.434-0.811-4.476-2.203-6.07-4.138c-2.818-3.428-5.732-5.643-8.712-6.645c-0.739-0.248-1.712-0.498-2.652-0.74  c-1.5-0.385-2.917-0.749-3.845-1.192c-1.553-0.743-1.914-1.636-2.372-2.767c-0.097-0.239-0.205-0.507-0.339-0.81  c-0.652-1.469-0.733-2.646-0.827-4.01c-0.025-0.361-0.051-0.742-0.091-1.156c-0.104-1.095,0.111-3.594,0.361-6.487  c0.222-2.571,0.451-5.229,0.451-6.893c0-3.4-1.421-9.102-1.767-9.815c-0.667-1.239-2.082-3.25-3.271-3.771  c-0.314-0.042-1.277-0.021-2.153,0.027l-1.236,1.256c-0.251,0.764-0.452,1.596-0.453,1.891c0.17,0.59,0.046,1.418-0.372,2.473  c0.381,0.385,0.695,0.729,0.83,0.938c0.179,0.206,1.124,0.861,1.845,0.977c1.505,0.241,2.191,0.968,2.313,1.11  c0.126,0.147,0.215,0.322,0.26,0.511c0.028,0.12,0.702,2.963,0.639,5.345c-0.127,4.759-1.776,11.785-2.586,13.633  c-0.337,0.769-1.123,1.893-2.118,3.315c-1.468,2.098-3.293,4.709-3.997,6.688c-2.9,8.153,2.592,13.313,8.406,18.775  c5.526,5.191,12.509,4.587,12.581,4.578c0.675-0.065,1.271,0.43,1.337,1.103c0.064,0.673-0.429,1.271-1.103,1.337  c-0.214,0.02-3.638,0.318-7.749-1.138c0.747,2.02,1.68,4.048,2.4,4.624c0.595,0.477,1.941,0.556,3.27,0.444  c-0.238-0.426-0.468-0.936-0.679-1.552c-0.219-0.641,0.123-1.337,0.763-1.556C45.41,73.928,45.543,73.906,45.675,73.906z   M22.975,10.865c0.06,0.033,0.115,0.064,0.167,0.094c1.129,0.636,1.26,0.714,1.405,0.842c0.12,0.087,1.11,0.733,2.257,1.477  c0.032-0.116,0.054-0.215,0.061-0.287c-0.104-0.354-0.223-1.238,0.603-3.579c0.018-0.051,0.039-0.101,0.063-0.148  c-0.834,0.71-2.1,1.24-2.84,1.405C24.316,10.751,23.722,10.811,22.975,10.865z M54.773,72.188c-0.349,0-0.685-0.035-1.004-0.112  c-0.028-0.008-0.057-0.015-0.084-0.021c-0.766-0.006-3.637-0.103-5.658-1.189c-0.591-0.317-1.173-0.771-1.715-1.272  c-0.417,0.006-1.004-0.006-1.543-0.084c-2.746-0.396-14.078-7.959-13.464-19.718c0.035-0.677,0.616-1.204,1.287-1.16  c0.676,0.035,1.195,0.612,1.16,1.287c-0.451,8.641,6.518,14.507,9.836,16.46c-0.091-0.131-0.152-0.225-0.183-0.271  c-0.371-0.565-0.213-1.324,0.353-1.695c0.563-0.371,1.324-0.213,1.696,0.353c0.358,0.546,1.228,1.735,2.192,2.71  c0.01,0.01,0.019,0.019,0.028,0.028c0.499,0.501,1.021,0.942,1.512,1.205c0.209,0.112,0.438,0.212,0.681,0.299  c0-0.001,0-0.001,0-0.002c-0.324-0.594-0.105-1.338,0.489-1.661c0.59-0.322,1.334-0.106,1.658,0.483  c0.021,0.035,0.872,1.513,2.336,1.869c0.316,0.08,0.772,0.051,1.313-0.067c-0.406-0.484-0.378-1.209,0.081-1.66  c0.482-0.476,1.258-0.467,1.732,0.016c0.849,0.863,2.828,0.11,3.455-0.223c0.598-0.313,1.338-0.092,1.656,0.505  c0.317,0.596,0.096,1.335-0.499,1.655c-0.637,0.342-1.551,0.694-2.533,0.84C58.148,71.472,56.346,72.188,54.773,72.188z   M33.043,12.976c-0.408,0-0.808-0.204-1.04-0.576l0,0c-0.106-0.17-0.262-0.374-0.367-0.487c-0.019,0.003-0.036,0.001-0.045,0.002  c-0.661,0.141-1.294-0.281-1.437-0.942s0.298-1.317,0.959-1.46c0.152-0.033,0.703-0.124,1.352,0.074  c0.688,0.212,1.259,0.941,1.617,1.517c0.357,0.574,0.182,1.33-0.393,1.688C33.488,12.915,33.265,12.976,33.043,12.976z"
      />
    </svg>