    <svg
      xmlns="http://www.w3.org/2000/svg"
      xmlns:xlink="http://www.w3.org/1999/xlink"
      version="1.1"
      x="0px"
      y="0px"
      viewBox="0 0 200 250"
      enable-background="new 0 0 200 200"
      xml:space="preserve"
      fill="#ffffff"
    >
      <g>
        <circle cx="59.561" cy="88.809" r="9.936" />
        <circle cx="143.838" cy="88.809" r="9.936" />
        <path
          d="M133.262,129.466c-0.588,0.215-1.337,0.453-2.019,0.707c-6.109,2.28-16.243,5.958-27.243,6.557v-17.959   c4-2.177,8.298-5.83,8.298-9.973c0-6.671-5.354-7.247-12.023-7.247c-6.671,0-12.427,0.576-12.427,7.247   c0,3.88,5.152,7.329,7.152,9.54v18.221c-9-0.942-18.732-4.268-24.41-6.387c-0.678-0.254-1.126-0.491-1.714-0.706   c-2.505-0.915-5.187,0.372-6.103,2.879c-0.916,2.506,0.418,5.28,2.925,6.197c0.569,0.208,1.479,0.438,2.138,0.683   C69.273,139.762,71,140.37,73,141v6.992C73,156.392,79.652,163,88.17,163h0.395c3.938,0,7.527-1.551,10.223-4.084   c2.775,2.523,6.438,4.084,10.388,4.084h0.396c8.283,0,14.43-6.318,14.43-15.008v-5.189c5-1.222,7.768-2.533,10.563-3.577   c0.658-0.245,1.36-0.476,1.932-0.684c2.506-0.917,3.838-3.69,2.922-6.197S135.769,128.55,133.262,129.466z M88.564,154H88.17   c-2.958,0-6.17-3.162-6.17-6.008v-3.944c4,0.859,8,1.589,12,2.019v1.926C94,150.99,91.36,154,88.564,154z M114,147.992   c0,2.636-1.369,6.008-4.43,6.008h-0.396c-2.92,0-5.175-3.11-5.175-6.008v-1.556c4-0.141,7-0.58,10-1.191V147.992z"
        />
        <path
          d="M189.559,38.916c0-12.944-10.613-23.422-23.559-23.422c-10.604,0-19.584,6.943-22.485,16.729   c-12.744-6.804-27.581-10.715-43.409-10.715c-15.977,0-30.943,3.984-43.766,10.907c-2.842-9.888-11.865-16.922-22.537-16.922   c-12.945,0-23.473,10.426-23.473,23.37c0,10.007,6.441,18.567,15.234,21.938c-7.177,11.371-11.283,24.531-11.283,38.545   c0,42.919,38.5,77.836,85.824,77.836s85.825-34.917,85.825-77.836c0-14.044-4.123-27.23-11.328-38.617   C183.268,57.318,189.559,48.845,189.559,38.916z M166.042,25.377c7.494,0,13.632,5.992,13.632,13.486   c0,6.725-4.91,12.322-11.273,13.4c-4.585-5.457-9.943-10.349-15.929-14.542C153.124,30.487,158.98,25.377,166.042,25.377z    M20.215,38.916c0-7.494,6.092-13.538,13.586-13.538c7.148,0,13.021,5.239,13.547,12.617c-5.842,4.141-11.076,8.954-15.568,14.306   C25.302,51.318,20.215,45.713,20.215,38.916z M86.582,31.966c2.203,6.912,3.32,14.098,3.32,21.434   c0,34.744-25.702,64.697-60.611,71.705c-3.623-7.955-5.625-16.651-5.625-25.76C23.666,65.732,50.861,37.699,86.582,31.966z    M100.105,167.797c-28.057,0-52.627-13.608-65.922-33.839c16.906-4.012,32.262-12.94,43.924-25.69   C91.967,93.116,99.6,73.63,99.6,53.4c0-7.655-1.071-15.166-3.183-22.426c1.224-0.053,2.452-0.081,3.688-0.081   c2.471,0,4.914,0.11,7.326,0.316c-2.066,7.189-3.114,14.623-3.114,22.191c0,37.388,25.703,69.693,62.238,79.748   C153.387,153.826,128.535,167.797,100.105,167.797z M171.263,124.355c-33.483-8.222-57.249-37.259-57.249-70.955   c0-7.106,1.052-14.075,3.121-20.792c33.98,6.95,59.41,34.233,59.41,66.738C176.545,108.168,174.672,116.604,171.263,124.355z"
        />
      </g>
    </svg>