 <svg
      xmlns="http://www.w3.org/2000/svg"
      xmlns:xlink="http://www.w3.org/1999/xlink"
      version="1.1"
      x="0px"
      y="0px"
      viewBox="0 0 64 80"
      style="enable-background: new 0 0 64 64"
      xml:space="preserve"
      fill="#ffffff"
    >
      <g>
        <path
          d="M62.707,21.293L60,18.586V17c0-0.431-0.275-0.812-0.684-0.948l-2.339-0.78c-0.194-2.508-1.604-4.813-3.778-6.118   l-1.685-1.011c-0.309-0.185-0.694-0.191-1.007-0.013C50.194,8.308,50,8.64,50,9v2.172c0,1.797,0.602,3.502,1.708,4.884   l-1.085,1.446C49.92,18.44,48.8,19,47.628,19c-0.829,0-1.645-0.28-2.299-0.788l-3.406-2.649C38.969,13.265,35.282,12,31.541,12   c-5.093,0-9.864,2.261-13.089,6.203c-2.859,3.494-4.918,7.666-5.953,12.062l-1.845,7.843c-0.384,1.632-1.088,3.139-2.094,4.48   c-0.891,1.188-2.535,1.7-3.94,1.23l-2.303-0.768c-0.416-0.141-0.872,0.008-1.127,0.363C0.933,43.771,0.938,44.25,1.2,44.6   l1.585,2.114C3.859,48.146,5.567,49,7.356,49c1.977,0,3.844-1.048,4.875-2.734l9.222-15.09c0.622,0.553,1.335,1.017,2.142,1.339   c0.438,0.176,0.796,0.505,1.007,0.927c0.213,0.427,0.261,0.915,0.133,1.375l-4.699,16.916c-0.053,0.191-0.048,0.395,0.015,0.584   l1,3C21.188,55.725,21.569,56,22,56h11.315C34.796,56,36,54.796,36,53.315c0-0.475-0.126-0.924-0.346-1.315h3.661   C40.796,52,42,50.796,42,49.315c0-1.234-0.836-2.306-2.034-2.604l-2.724-0.681c-0.133-0.034-0.271-0.039-0.407-0.017l-4.247,0.708   l3.884-9.71l0.923,1.385C38.065,39.4,39.185,40,40.392,40c1.373,0,2.607-0.763,3.222-1.991l0.774-1.548l2.057,1.372   C46.609,37.941,46.803,38,47,38h2.764l1.789,0.895C51.691,38.964,51.845,39,52,39h2c0.379,0,0.725-0.214,0.895-0.553l1-2   c0.192-0.385,0.117-0.85-0.188-1.154L53,32.586V31c0-0.334-0.167-0.646-0.445-0.832l-1.886-1.257   c0.894-0.481,1.658-1.178,2.194-2.072L54.566,24h2.198l1.789,0.895C58.691,24.964,58.845,25,59,25h2   c0.379,0,0.725-0.214,0.895-0.553l1-2C63.087,22.062,63.011,21.598,62.707,21.293z M30.221,48.627   c0.227,0.282,0.586,0.42,0.943,0.359l5.795-0.966l2.522,0.63C39.787,48.728,40,49,40,49.315C40,49.693,39.693,50,39.315,50H31v0.02   c-0.055,0-0.109-0.016-0.165-0.007l-4.104,0.684l8.651-18.087c0.181,0.125,0.367,0.24,0.557,0.349l-5.868,14.669   C29.938,47.964,29.995,48.346,30.221,48.627z M37.285,34.98l0.502-1.256c0.584,0.157,1.189,0.246,1.807,0.264   C38.966,34.564,38.161,34.916,37.285,34.98z M51.293,33.707l2.49,2.49L53.382,37h-1.146l-1.789-0.895   C50.309,36.036,50.155,36,50,36h-2.697l-2.013-1.342l1.635-3.27c0.341-0.682,0.885-1.224,1.54-1.583l-0.019,0.028L51,31.535V33   C51,33.266,51.105,33.52,51.293,33.707z M60.382,23h-1.146l-1.789-0.895C57.309,22.036,57.155,22,57,22h-3   c-0.351,0-0.677,0.185-0.857,0.485l-1.995,3.324c-0.511,0.853-1.323,1.454-2.286,1.694c-1.621,0.405-2.979,1.494-3.727,2.989   l-3.311,6.621C41.552,37.66,41.002,38,40.392,38c-0.537,0-1.035-0.267-1.333-0.713l-0.357-0.536   c1.517-0.457,2.799-1.517,3.534-2.987l0.819-1.638C43.673,30.89,44,29.506,44,28.123c0-1.968,1.333-3.676,3.243-4.153l-0.485-1.939   C43.957,22.73,42,25.236,42,28.123c0,1.073-0.254,2.148-0.734,3.108L40.882,32h-1.053c-1.31,0-2.551-0.434-3.568-1.226l0.642-1.343   C36.967,29.297,37,29.149,37,29v-0.615c0-3.683-2.209-6.945-5.628-8.313l-0.743,1.857C33.284,22.99,35,25.525,35,28.385v0.389   L24.098,51.568c-0.161,0.337-0.121,0.734,0.103,1.033c0.225,0.298,0.596,0.445,0.964,0.385l5.795-0.966l2.522,0.63   C33.787,52.728,34,53,34,53.315C34,53.693,33.693,54,33.315,54H22.721l-0.675-2.026l4.618-16.623   c0.26-0.938,0.163-1.934-0.271-2.804c-0.43-0.859-1.158-1.53-2.052-1.889C22.311,29.848,21,27.912,21,25.727V24h-2v1.727   c0,1.395,0.402,2.707,1.096,3.834l-9.571,15.662C9.855,46.319,8.641,47,7.356,47c-0.988,0-1.938-0.401-2.629-1.093   c2.024,0.374,4.189-0.463,5.432-2.119c1.172-1.562,1.994-3.319,2.441-5.221l1.845-7.843c0.965-4.103,2.886-7.995,5.554-11.256   C22.843,15.993,27.05,14,31.541,14c3.299,0,6.55,1.115,9.155,3.141l3.406,2.65C45.104,20.57,46.357,21,47.628,21   c1.798,0,3.516-0.858,4.595-2.298L53.8,16.6c0.299-0.397,0.259-0.955-0.093-1.307C52.606,14.192,52,12.729,52,11.172v-0.405   l0.17,0.102c1.746,1.048,2.83,2.963,2.83,4.998V16c0,0.431,0.275,0.812,0.684,0.948L58,17.721V19c0,0.266,0.105,0.52,0.293,0.707   l2.49,2.49L60.382,23z"
        />
        <path
          d="M55.5,18c-0.827,0-1.5,0.673-1.5,1.5s0.673,1.5,1.5,1.5s1.5-0.673,1.5-1.5S56.327,18,55.5,18z"
        />
        <path
          d="M48.5,31c-0.827,0-1.5,0.673-1.5,1.5s0.673,1.5,1.5,1.5s1.5-0.673,1.5-1.5S49.327,31,48.5,31z"
        />
        </g>
    </svg>