    <svg
      xmlns="http://www.w3.org/2000/svg"
      xmlns:xlink="http://www.w3.org/1999/xlink"
      version="1.1"
      x="0px"
      y="0px"
      viewBox="0 0 100 125"
      enable-background="new 0 0 100 100"
      xml:space="preserve"
      fill="#ffffff"
    >
      <g>
        <path
          d="M91.25,68.408c-2.039-0.133-3.521-1.522-3.927-1.944c-0.53-0.552-2.141-2.899-3.436-4.785   c-1.02-1.486-1.901-2.769-2.337-3.314c-0.805-1.006-2.24-5.356-2.55-6.905c-0.058-0.288-0.083-0.634-0.092-0.995   c1.519-0.533,4.369-0.64,5.082-0.512c0.562,0.1,1.117,0.464,1.981,1.298c0.71,0.685,1.312,0.903,1.853,0.903   c0.396,0,0.76-0.117,1.11-0.253c0.57-0.222,1.09-0.844,1.442-1.353c0.688-0.061,1.343-0.453,1.909-0.865   c0.937-0.682,1.043-1.803,0.314-3.333c-0.148-0.312-0.333-0.725-0.536-1.179c-0.223-0.498-0.467-1.044-0.711-1.565   c-0.493-1.052-0.964-1.848-1.664-2.314c-0.143-0.095-0.567-0.477-0.907-0.784c-0.241-0.218-0.499-0.449-0.75-0.667   c0.068-0.188,0.122-0.38,0.136-0.576c0.037-0.5-0.122-0.956-0.458-1.317c-0.274-0.295-0.784-0.634-1.665-0.606   c-0.458,0.018-0.967,0.148-1.475,0.353c-1.312-0.357-3.47-0.354-4.204-0.319c-0.488,0.024-1.283,0.048-2.139,0.075   c-1.328,0.041-2.833,0.087-3.578,0.146c-1.123,0.088-2.518,0.046-3.054-0.017c-0.443-0.052-0.903-0.159-1.391-0.272   c-0.871-0.202-1.86-0.435-3.001-0.401c-1.751,0.044-3.478,1.105-4.308,1.615l-0.181,0.11c-0.332,0.193-1.975,0.442-3.795,0.4   c-2.366-0.058-8.941-0.498-10.833-0.703c-0.498-0.054-1.224-0.201-2.064-0.37c-2.262-0.456-5.36-1.081-8.226-0.797   c-3.307,0.327-6.551,1.196-9.644,2.583l-0.713,0.324c-2.271,1.039-5.382,2.456-8.636,2.216c-2.767-0.208-7.45-1.671-7.45-5.836   c0-2.227,2.57-3.375,3.667-3.375c1.727,0,3.277,1.368,3.417,1.75c0,0.718-0.146,1.19-0.263,1.57   c-0.164,0.533-0.413,1.338,0.331,2.031c0.594,0.555,1.872,0.84,2.981,0.357c0.909-0.395,1.992-1.402,1.992-3.958   c0-4.604-5.022-6.75-8.417-6.75c-3.508,0-8.583,2.982-8.583,8.375c0,5.451,3.619,9.5,9.445,10.566   c4.117,0.755,6.873,0.378,8.86-0.317c-0.569,1.786-1.414,4.298-2.131,5.878c-1.211,2.664-4.245,6.416-4.729,6.79   c-0.128,0.085-0.275,0.172-0.429,0.264c-0.699,0.414-1.569,0.93-1.845,1.812c-0.179,0.572-2.282,5.733-3.051,7.58   c-0.713,1.71-0.011,2.664,0.553,3.43c0.128,0.173,0.266,0.359,0.399,0.571c0.668,1.062,1.915,1.501,2.985,1.501   c0.46,0,0.889-0.082,1.224-0.229c1.277-0.566,1.166-2.38,0.919-3.121c-0.145-0.433-0.5-0.728-0.95-1.101   c-0.121-0.101-0.296-0.246-0.423-0.366c0.35-0.854,1.564-2.936,1.892-3.272c0.398-0.365,2.346-1.692,3.901-2.575   c1.614-0.916,5.262-3.311,7.004-4.556c0.977-0.698,1.886-1.476,2.531-2.057c0.667,1.187,0.997,2.023,1.017,2.297   c0.224,4.031,0.063,4.895,0.028,5.026c-0.041,0.156-0.106,0.309-0.17,0.466c-0.334,0.822-0.895,2.197,0.694,3.922   c0.703,0.764,4.601,4.713,6.148,5.05c0.034,0.007,2.125,0.381,4.042,0.381c1.286,0,2.493-0.168,2.947-0.728   c0.487-0.6,0.575-1.459,0.23-2.243c-0.401-0.91-1.269-1.49-2.322-1.552c-0.49-0.029-0.918,0.012-1.296,0.048   c-0.793,0.078-1.233,0.119-1.919-0.447c-0.433-0.357-1.584-1.305-1.662-1.583c0.169-0.722,1.526-5.897,2.008-7.221   c0.071-0.195,0.161-0.43,0.262-0.695c0.442-1.158,0.874-2.339,1.178-3.446c1.232,0.335,3.426,0.849,5.916,1.047   c2.494,0.199,4.305-0.009,5.761-0.176c0.212-0.024,0.398-0.042,0.593-0.063c-0.271,1.117-0.624,2.699-0.758,3.868   c-0.109,0.954-0.188,2.404-0.256,3.684c-0.055,1.027-0.124,2.306-0.167,2.52c-0.219,0.658,0.106,1.291,0.421,1.903   c0.107,0.208,0.286,0.556,0.304,0.68c0.032,0.286,0.419,2.445,1.086,3.062c0.589,0.544,2.846,0.806,3.89,0.806   c0.145,0,0.267-0.005,0.357-0.015c1.434-0.159,2.504-1.213,2.384-2.348l-0.013-0.14c-0.046-0.521-0.154-1.739-1.952-1.848   c-0.271-0.017-0.511-0.017-0.722-0.015c-0.073,0-0.154,0-0.227,0c-0.032-0.092-0.066-0.186-0.101-0.282   c-0.183-0.502-0.355-0.977-0.262-1.394c0.173-0.778,1.477-4.343,2.141-5.924c0.493-1.173,1.659-3.454,2.161-4.423   c0.253-0.034,0.508-0.07,0.758-0.101c0.568-0.07,1.101-0.137,1.571-0.224c0.714-0.132,1.525-0.423,2.1-0.652   c1.24,1.545,3.4,3.81,4.36,4.545c0.576,0.441,1.643,1.467,2.676,2.459c1.122,1.079,2.182,2.098,2.765,2.517l0.427,0.304   c2.177,1.543,3.38,2.551,3.576,2.995c0.608,1.383,4.045,3.862,5.376,4.084C88,73.396,88.911,73.525,90,73.525   c1.496,0,3.328-0.244,3.647-1.393c0.208-0.748,0.328-1.82-0.284-2.681C93.057,69.018,92.44,68.485,91.25,68.408z M12.092,31.983   c-0.018-0.348-0.214-0.64-0.499-0.805c0.979-0.605,2.033-0.963,2.924-1.069v0.067c0,0.4,0.239,0.74,0.579,0.9   c-0.026,0-0.053-0.004-0.079-0.004C14.114,31.073,13.052,31.397,12.092,31.983z M21.476,34.823c0,1.09-0.254,1.831-0.716,2.087   c-0.238,0.132-0.505,0.128-0.687,0.103c0.003-0.01,0.006-0.021,0.009-0.031c0.14-0.454,0.352-1.14,0.352-2.159   c0-0.292-0.095-0.606-0.267-0.923l0.099-0.099c0.391-0.391,0.391-1.023,0-1.414s-1.023-0.391-1.414,0l-0.037,0.037   c-0.846-0.636-1.937-1.135-3.067-1.293c0.42-0.103,0.735-0.456,0.759-0.901C18.737,30.675,21.476,32.105,21.476,34.823z    M10.124,32.371c0.04,0.347,0.247,0.639,0.55,0.785c-0.375,0.417-0.691,0.889-0.92,1.412c-0.277,0.027-0.542,0.16-0.717,0.404   c-0.32,0.45-0.215,1.074,0.234,1.395l0.082,0.059c0,0.008-0.001,0.015-0.001,0.023c0,0.898,0.159,1.716,0.441,2.458   c-0.364,0.079-0.645,0.343-0.743,0.699c-0.374-0.964-0.573-2.022-0.573-3.157C8.476,34.747,9.159,33.391,10.124,32.371z    M9.627,40.79c0.115,0.046,0.239,0.075,0.37,0.075h0.104c0.254,0,0.481-0.103,0.657-0.259c0.522,0.672,1.166,1.251,1.898,1.739   c-0.362-0.099-0.764,0.004-1.023,0.308l-0.125,0.146c-0.026,0.031-0.035,0.069-0.057,0.103C10.715,42.292,10.1,41.586,9.627,40.79z    M13.117,43.994l0.036-0.042c0.333-0.389,0.3-0.951-0.038-1.318c1.269,0.745,2.75,1.238,4.276,1.487   c-0.025,0.021-0.056,0.031-0.08,0.056l-0.354,0.375c-0.152,0.161-0.223,0.361-0.248,0.565c-0.144-0.024-0.281-0.044-0.429-0.071   C15.113,44.833,14.054,44.474,13.117,43.994z M58.518,66.061c-0.506,0.104-1.033,0.214-1.05,0.182c0-0.056,0.037-0.254,0.214-0.435   c0.16-0.163,0.381-0.256,0.606-0.256c-0.552,0-1,0.448-1,1c0,0.486,0.354,0.873,0.814,0.962c-0.162,0.929,0.125,1.761,0.349,2.374   c0.048,0.132,0.095,0.26,0.134,0.383c0.39,1.223,1.449,1.21,2.083,1.215c0.173-0.002,0.369-0.002,0.59,0.011   c0.029,0.002,0.056,0.004,0.079,0.006c0,0.007,0.001,0.014,0.002,0.021l0.007,0.072c-0.078,0.078-0.287,0.217-0.606,0.252   c-0.556,0.055-2.07-0.162-2.655-0.326c-0.166-0.399-0.418-1.293-0.469-1.759c-0.053-0.478-0.288-0.934-0.514-1.374   c-0.085-0.165-0.207-0.401-0.255-0.535c0.077-0.37,0.123-1.067,0.22-2.866c0.007-0.125,0.014-0.254,0.021-0.382   c0.111,0.042,0.226,0.07,0.347,0.07c0.118,0,0.239-0.021,0.355-0.066c0.123-0.046,0.206-0.074,0.271-0.096   c0.231-0.078,0.37-0.134,0.644-0.31c0.464-0.298,0.599-0.917,0.3-1.382c-0.298-0.464-0.917-0.599-1.382-0.3   c-0.095,0.061-0.095,0.061-0.2,0.096c-0.057,0.019-0.132,0.045-0.219,0.077c0.033-0.473,0.069-0.918,0.109-1.271   c0.143-1.24,0.577-3.082,0.839-4.126c0.431,0.058,0.874,0.147,1.309,0.239c0.742,0.157,1.5,0.317,2.248,0.317   c0.074,0,0.146-0.008,0.22-0.011c-0.549,1.085-1.208,2.421-1.563,3.267C59.894,62.239,59.035,64.524,58.518,66.061z M91.783,71.324   c-0.674,0.203-2.594,0.244-3.474,0.095c-0.72-0.139-3.554-2.194-3.875-2.916c-0.369-0.838-1.485-1.81-3.268-3.114   c0.282-0.318,0.35-0.787,0.122-1.171c-0.001-0.002-0.133-0.226-0.215-0.567c-0.128-0.537-0.666-0.866-1.206-0.739   c-0.443,0.106-0.729,0.494-0.749,0.927c-0.539-0.484-1.245-1.162-1.897-1.789c-0.354-0.341-0.696-0.667-1.028-0.982   c0.053,0.004,0.102,0.026,0.156,0.021c0.551-0.045,0.96-0.528,0.915-1.078c-0.041-0.493-0.323-0.755-0.488-0.867   c-0.465-0.318-0.956-0.171-1.279-0.075l-0.202,0.059c-0.298,0.082-0.515,0.294-0.634,0.555c-0.095-0.08-0.202-0.173-0.286-0.237   c-0.175-0.134-0.386-0.319-0.618-0.535c0-0.001,0.001-0.002,0.001-0.003c0.004-0.029,0.008-0.061,0.013-0.093   c0.277-0.266,0.387-0.679,0.248-1.063c-0.228-0.629-0.751-0.804-1.135-0.761c-0.303,0.034-0.513,0.173-0.669,0.358   c-1.155-1.24-2.283-2.58-2.47-2.954c-0.492-0.983-2.756-2.932-3.438-3.505c-0.423-0.356-1.054-0.301-1.409,0.122   c-0.355,0.423-0.301,1.053,0.122,1.409c0.936,0.788,1.999,1.771,2.562,2.39c-0.415,0.149-0.866,0.292-1.246,0.362   c-0.087,0.016-0.186,0.029-0.277,0.043c0.251-0.406,0.2-0.938-0.169-1.266c-0.413-0.367-1.044-0.33-1.411,0.083   c-0.234,0.264-0.65,0.768-0.797,1.177c-0.04,0.11-0.049,0.223-0.05,0.335c-0.465,0.069-0.943,0.151-1.42,0.261   c-0.613,0.14-1.451-0.037-2.336-0.224c-0.541-0.115-1.096-0.228-1.664-0.291c0.083-0.136,0.176-0.281,0.269-0.413   c0.318-0.451,0.211-1.075-0.24-1.394c-0.452-0.318-1.075-0.211-1.394,0.24c-0.588,0.832-0.775,1.313-0.83,1.602   c-0.246,0.025-0.486,0.049-0.752,0.08c-1.082,0.124-2.386,0.264-4.013,0.23c0.051-0.07,0.1-0.143,0.132-0.229   c0.191-0.518-0.075-1.093-0.593-1.284c-1.162-0.427-2.098,0.741-2.457,1.28c-1.764-0.243-3.269-0.611-4.138-0.852   c0.03-0.32,0.047-0.632,0.028-0.92c-0.036-0.552-0.521-0.968-1.063-0.933c-0.302,0.02-0.554,0.178-0.724,0.402   c-0.113-0.237-0.315-0.43-0.584-0.52c-0.048-0.016-0.156-0.042-0.3-0.068c-0.072-0.013-0.232-0.042-0.347-0.072   c-0.239-0.263-0.612-0.391-0.982-0.298c-0.536,0.133-0.862,0.676-0.729,1.212c0.213,0.856,1.175,1.032,1.786,1.141   c0.086,0.023,0.172,0.034,0.257,0.034c0.256,0,0.494-0.108,0.678-0.281c-0.046,0.639-0.228,1.417-0.465,2.205   c-0.04-0.188-0.114-0.371-0.258-0.515c-0.259-0.303-0.75-0.868-1.444-0.751c-0.385,0.063-0.705,0.325-0.855,0.7   c-0.205,0.513,0.044,1.095,0.557,1.3c0.076,0.03,0.154,0.051,0.231,0.062c0.051,0.06,0.094,0.106,0.121,0.133   c0.191,0.192,0.438,0.286,0.687,0.286c0.234,0,0.463-0.095,0.653-0.259c-0.237,0.694-0.484,1.347-0.675,1.845   c-0.105,0.276-0.199,0.521-0.273,0.725c-0.033,0.091-0.07,0.199-0.109,0.319c-0.084-0.309-0.198-0.713-0.251-0.848   c-0.202-0.504-0.764-0.743-1.274-0.555c-0.509,0.19-0.77,0.763-0.591,1.277c0.048,0.14,0.19,0.66,0.281,1.007   c0.118,0.449,0.523,0.746,0.967,0.746c0.084,0,0.169-0.01,0.254-0.033c0.058-0.015,0.102-0.052,0.154-0.076   c-0.141,0.487-0.289,1.014-0.436,1.551c-0.125-0.207-0.319-0.373-0.569-0.445c-0.532-0.152-1.085,0.153-1.238,0.684   c-0.129,0.448,0.019,0.885,0.546,1.614c0.163,0.225,0.406,0.338,0.661,0.378c-0.234,0.884-0.413,1.584-0.47,1.827   c-0.327,1.39,0.968,2.456,2.338,3.584c1.325,1.091,2.466,0.981,3.38,0.894c0.336-0.032,0.654-0.061,0.988-0.043   c0.326,0.02,0.487,0.164,0.566,0.281c0.041,0.061,0.063,0.12,0.074,0.166c-0.959,0.189-4.007-0.041-4.976-0.251   c-0.658-0.209-3.434-2.625-5.12-4.455c-0.729-0.792-0.599-1.112-0.313-1.813c0.099-0.241,0.192-0.479,0.254-0.716   c0.059-0.228,0.22-0.857,0.117-3.791c0.018,0.044,0.032,0.071,0.041,0.09c0.178,0.356,0.546,0.573,0.923,0.573   c0.146,0,0.292-0.032,0.43-0.101c0.494-0.247,0.705-0.823,0.458-1.317c-0.035-0.095-0.134-0.487-0.211-0.837   c-0.119-0.54-0.656-0.884-1.191-0.762c-0.232,0.051-0.417,0.188-0.554,0.36c-0.097-0.897-0.878-2.463-1.823-3.99   c0.016-0.001,0.031-0.001,0.046-0.002c0.475-0.048,0.838-0.42,0.893-0.875c0.039-0.083,0.122-0.229,0.193-0.337   c0.305-0.46,0.18-1.081-0.279-1.386c-0.46-0.307-1.08-0.182-1.385,0.277c-0.237,0.356-0.366,0.631-0.438,0.847   c-1.502-2.155-4.01-6.385-4.036-6.427c-0.282-0.476-0.895-0.633-1.37-0.351c-0.475,0.281-0.632,0.895-0.351,1.37   c0.104,0.176,2.579,4.349,4.124,6.563c0.129,0.186,0.244,0.36,0.363,0.539c-0.6,0.551-1.586,1.417-2.624,2.159   c-0.403,0.288-0.92,0.645-1.489,1.029c0.104-0.52-0.21-1.035-0.73-1.165c-0.53-0.133-1.079,0.192-1.212,0.728   c-0.116,0.466-0.134,0.874-0.134,1.075c0,0.228,0.09,0.428,0.218,0.597c-1.35,0.883-2.695,1.732-3.483,2.18   c-0.401,0.228-0.847,0.496-1.296,0.777c-0.011-0.061-0.02-0.116-0.024-0.15c-0.029-0.526-0.465-0.944-0.999-0.944   c-0.552,0-1,0.448-1,1c0,0.182,0.026,0.774,0.255,1.253c-0.542,0.375-0.98,0.702-1.202,0.905c-0.486,0.445-2.701,3.937-2.612,4.987   c0.059,0.702,0.649,1.191,1.219,1.664c0.11,0.091,0.263,0.218,0.353,0.303c0.029,0.176,0.036,0.432,0.009,0.588   c-0.381,0.068-1.227,0.002-1.571-0.546c-0.161-0.256-0.326-0.481-0.48-0.691c-0.493-0.67-0.596-0.809-0.318-1.475   c0.528-1.268,2.882-7.009,3.11-7.741c0.09-0.184,0.656-0.519,0.96-0.699c0.186-0.11,0.365-0.217,0.52-0.32   c0.36-0.241,1.144-1.121,2.026-2.265c0.026,0.235,0.078,0.529,0.124,0.768c0.093,0.478,0.511,0.81,0.981,0.81   c0.063,0,0.127-0.006,0.191-0.018c0.542-0.105,0.896-0.629,0.792-1.172c-0.001-0.007-0.094-0.469-0.107-0.659   c-0.008-0.545-0.453-0.984-1-0.984c-0.021,0-0.039,0.011-0.06,0.012c0.97-1.362,1.929-2.883,2.491-4.12   c1.265-2.782,2.817-8.034,2.883-8.256c0.115-0.391-0.018-0.812-0.336-1.065s-0.759-0.288-1.113-0.089   c-1.525,0.857-3.542,1.646-7.034,1.393c0.216-0.346,0.201-0.776-0.042-1.104c0.793,0.048,1.567,0.015,2.321-0.076   c0.04,0.15,0.104,0.295,0.217,0.418l0.229,0.25c0.197,0.215,0.467,0.324,0.737,0.324c0.241,0,0.484-0.087,0.676-0.263   c0.323-0.296,0.396-0.752,0.23-1.132c1.233-0.322,2.38-0.753,3.419-1.198c0.122,0.286,0.359,0.518,0.686,0.591l0.375,0.083   c0.073,0.016,0.146,0.024,0.218,0.024c0.458,0,0.872-0.317,0.975-0.783c0.068-0.307-0.024-0.603-0.206-0.831l0.264-0.12   c0.898-0.403,1.813-0.742,2.735-1.05c-0.009,0.472,0.299,0.9,0.778,1c0.068,0.014,0.137,0.021,0.204,0.021   c0.464,0,0.88-0.325,0.979-0.797l0.094-0.453c0.027-0.129,0.024-0.258,0.002-0.38c0.603-0.153,1.208-0.295,1.817-0.409   c-0.069,0.24-0.076,0.489,0,0.727c0.132,0.42,0.478,0.735,0.949,0.863c0.088,0.024,0.177,0.036,0.264,0.036   c0.44,0,0.843-0.292,0.964-0.737c0.077-0.283,0.025-0.571-0.121-0.8c0-0.129-0.034-0.255-0.083-0.375   c0.148-0.017,0.294-0.047,0.443-0.062c0.842-0.083,1.723-0.069,2.602-0.006c-0.477,0.006-0.906,0.329-0.987,0.814   c-0.063,0.383,0.095,0.751,0.385,0.967c0.037,0.118,0.097,0.23,0.18,0.332c0.198,0.242,0.485,0.367,0.774,0.367   c0.223,0,0.447-0.074,0.633-0.226c0.401-0.329,0.568-0.798,0.446-1.257c-0.18-0.675-0.843-0.906-1.14-0.978   c0.854,0.072,1.696,0.193,2.5,0.331c-0.094,0.064-0.183,0.138-0.253,0.236c-0.255,0.358-0.241,0.827,0.002,1.166   c-0.011,0.27,0.086,0.542,0.292,0.748c0.195,0.195,0.451,0.293,0.707,0.293s0.512-0.098,0.707-0.293   c0.268-0.268,0.403-0.636,0.372-1.012c-0.026-0.317-0.169-0.622-0.398-0.875c0.28,0.055,0.552,0.11,0.811,0.162   c0.888,0.179,1.655,0.333,2.244,0.397c0.276,0.03,0.659,0.065,1.105,0.103c0.103,0.497,0.365,0.998,0.682,1.209   c0.17,0.114,0.363,0.168,0.554,0.168c0.323,0,0.64-0.156,0.833-0.445c0.156-0.233,0.188-0.506,0.134-0.76   c1.557,0.113,3.338,0.228,4.879,0.313c-0.07,0.289-0.103,0.611-0.042,0.899c0.102,0.476,0.53,0.833,1,0.833   c0.063,0,0.128-0.006,0.193-0.021c0.54-0.116,0.89-0.603,0.774-1.143c0.001-0.042,0.024-0.143,0.043-0.193   c0.048-0.087,0.068-0.182,0.088-0.275c0.279,0.011,0.54,0.021,0.756,0.026c1.306,0.032,3.754-0.074,4.805-0.652   c0.114,0.426,0.486,0.747,0.949,0.747c0.552,0,1-0.448,1-1v-0.719c0-0.026-0.013-0.047-0.015-0.073   c0.331-0.142,0.676-0.262,1.018-0.339c-0.005,0.042-0.024,0.078-0.024,0.12c0,0.552,0.448,1,1,1h0.208c0.552,0,1-0.448,1-1   c0-0.022-0.011-0.04-0.012-0.062c0.316,0.06,0.631,0.128,0.954,0.203c0.519,0.12,1.056,0.244,1.608,0.31   c0.477,0.056,1.299,0.088,2.147,0.079c-0.078,0.064-0.156,0.129-0.214,0.219l-0.135,0.208c-0.3,0.464-0.167,1.083,0.297,1.383   c0.168,0.108,0.356,0.16,0.542,0.16c0.328,0,0.649-0.161,0.841-0.457l0.135-0.208c0.292-0.451,0.168-1.044-0.266-1.352   c0.033-0.002,0.067-0.004,0.099-0.006c0.568-0.045,1.656-0.083,2.747-0.118c0.001,0.285,0.111,0.567,0.347,0.764l0.125,0.104   c0.187,0.156,0.414,0.231,0.639,0.231c0.287,0,0.571-0.123,0.769-0.36c0.195-0.234,0.253-0.528,0.206-0.806   c0.319-0.011,0.606-0.022,0.825-0.033c0.51-0.024,1.115-0.02,1.699,0.01c-0.027,0.032-0.06,0.063-0.085,0.095   c-0.343,0.433-0.271,1.062,0.162,1.405c0.434,0.343,1.062,0.271,1.405-0.162c0.349-0.439,0.864-0.794,1.349-1.041   c0.003-0.001,0.006-0.003,0.01-0.004c0.443-0.225,0.861-0.359,1.098-0.375c-0.167,0.299-0.589,0.776-1,1.107   c-0.429,0.346-0.498,0.975-0.152,1.405c0.198,0.246,0.488,0.374,0.78,0.374c0.219,0,0.439-0.072,0.624-0.219   c0.042-0.034,0.099-0.081,0.158-0.131c-0.068,0.135-0.116,0.282-0.116,0.444v0.333c0,0.552,0.448,1,1,1   c0.489,0,0.876-0.357,0.964-0.821c0.081,0.064,0.154,0.119,0.221,0.163c0.334,0.223,0.689,0.918,0.962,1.499   c0.239,0.51,0.478,1.045,0.696,1.533c0.21,0.471,0.402,0.899,0.556,1.223c0.309,0.649,0.299,0.855,0.314,0.855   c-0.657,0.478-0.888,0.504-0.885,0.508c-0.159-0.024-0.386-0.093-0.594-0.152c-0.508-0.144-0.787-0.223-1.113-0.143   c-0.536,0.134-0.861,0.677-0.728,1.213c0.059,0.235,0.199,0.425,0.38,0.559c-0.394,0.152-0.413,0.143-0.809-0.24   c-0.852-0.821-1.807-1.611-3.019-1.827c-0.299-0.054-0.879-0.085-1.592-0.074c0.092-0.223,0.112-0.478,0.022-0.722   c-0.189-0.519-0.763-0.784-1.282-0.597l-0.229,0.083c-0.519,0.189-0.786,0.763-0.597,1.282c0.012,0.034,0.035,0.059,0.05,0.09   c-0.573,0.069-1.149,0.168-1.688,0.302c0.047-0.383,0.098-0.679,0.13-0.78c0.206-0.513-0.043-1.095-0.556-1.3   c-0.515-0.207-1.095,0.043-1.3,0.556c-0.137,0.342-0.303,1.363-0.367,2.482c-0.122-0.05-0.259-0.109-0.384-0.166   c-0.502-0.23-1.095-0.008-1.325,0.495c-0.229,0.502-0.008,1.096,0.495,1.325c0.707,0.323,1.045,0.417,1.256,0.439   c0.019,0.154,0.036,0.312,0.064,0.452c0.036,0.179,0.094,0.422,0.168,0.709c-0.046,0.019-0.096,0.023-0.14,0.049l-0.208,0.125   c-0.474,0.284-0.627,0.898-0.344,1.372c0.188,0.313,0.519,0.486,0.859,0.486c0.135,0,0.269-0.037,0.398-0.093   c0.46,1.447,1.068,3.103,1.664,4.228c-0.096,0.047-0.19,0.1-0.27,0.179l-0.217,0.212c-0.272,0.263-0.611,0.591-0.542,1.14   c0.039,0.313,0.281,0.65,0.554,0.807c0.156,0.089,0.327,0.131,0.495,0.131c0.348,0,0.685-0.181,0.87-0.504   c0.039-0.068,0.069-0.139,0.09-0.21l0.125-0.122c0.454,0.638,1.063,1.523,1.699,2.45c1.756,2.558,3.045,4.416,3.643,5.038   c1.419,1.479,3.378,2.434,5.24,2.556c0.312,0.02,0.536,0.095,0.613,0.205C91.809,70.715,91.845,70.968,91.783,71.324z"
        />
        <path
          d="M50.076,48.412c0.045-0.196,0.029-0.391-0.035-0.566c0.31-0.353,0.336-0.888,0.037-1.272   c-0.34-0.437-0.969-0.514-1.403-0.176c-0.404,0.314-0.899,1.086-0.737,1.821c0.104,0.472,0.464,0.833,0.938,0.943   c0.076,0.017,0.151,0.025,0.226,0.025C49.557,49.187,49.969,48.875,50.076,48.412z"
        />
        <path
          d="M54.079,50.917c0.237-0.047,0.674-0.217,0.941-0.822c0.107-0.243,0.433-1.276,0.063-1.892   c-0.366-0.61-1.077-0.635-2.105-0.473c-0.546,0.085-0.919,0.597-0.833,1.142c0.065,0.417,0.379,0.734,0.768,0.821   c-0.035,0.14-0.041,0.289-0.01,0.439c0.095,0.475,0.513,0.804,0.979,0.804C53.946,50.937,54.012,50.931,54.079,50.917z"
        />
        <path
          d="M56.806,46.148c0.309-0.305,0.393-0.789,0.175-1.189c-0.263-0.484-0.871-0.664-1.356-0.4   c-0.735,0.399-1.126,1.023-1.046,1.668c0.066,0.538,0.46,0.975,1.003,1.116c0.083,0.021,0.168,0.032,0.25,0.032   c0.445,0,0.851-0.299,0.968-0.75C56.842,46.463,56.842,46.3,56.806,46.148z"
        />
        <path
          d="M52.511,47.027c0.031,0.002,0.061,0.004,0.091,0.004c0.512,0,0.948-0.39,0.995-0.91c0.031-0.347-0.118-0.668-0.372-0.871   c-0.011-0.355-0.212-0.693-0.552-0.864c-0.495-0.248-1.095-0.046-1.342,0.447c-0.238,0.476-0.234,1.002,0.012,1.442   C51.58,46.701,52.017,46.982,52.511,47.027z"
        />
        <path
          d="M49.477,45.063c0.128,0,0.258-0.025,0.384-0.078c0.388-0.162,1.08-0.615,1.213-1.288c0.073-0.367-0.038-0.74-0.297-0.999   c-0.391-0.391-1.023-0.391-1.414,0c-0.125,0.125-0.209,0.274-0.255,0.433c-0.005,0.003-0.011,0.005-0.017,0.008   c-0.51,0.212-0.75,0.798-0.538,1.308C48.713,44.831,49.085,45.063,49.477,45.063z"
        />
        <path
          d="M46.956,42.996C46.984,42.999,47.012,43,47.04,43c0.515,0,0.952-0.395,0.996-0.917c0.024-0.293-0.081-0.568-0.267-0.767   c0.052-0.526-0.318-1.007-0.847-1.086c-0.542-0.087-1.056,0.294-1.137,0.84c-0.05,0.331-0.142,0.947,0.251,1.444   C46.257,42.794,46.583,42.965,46.956,42.996z"
        />
        <path
          d="M38.818,41.06c-0.517-0.188-1.092,0.08-1.282,0.598c-0.149,0.41-0.013,0.854,0.306,1.116   c0.017,0.08,0.045,0.159,0.083,0.236c0.175,0.351,0.528,0.553,0.896,0.553c0.15,0,0.303-0.034,0.446-0.105   c0.429-0.215,0.679-0.638,0.652-1.104C39.887,41.799,39.455,41.292,38.818,41.06z"
        />
        <path
          d="M41.272,44.198c0.176,0.136,0.38,0.2,0.583,0.2c0.291,0,0.58-0.134,0.781-0.382c0.049-0.061,0.089-0.125,0.122-0.193   c0.301-0.216,0.448-0.602,0.371-1.003c-0.104-0.54-0.675-0.884-1.211-0.786c-0.3,0.056-1.001,0.185-1.175,0.905   C40.677,43.207,40.66,43.727,41.272,44.198z"
        />
        <path
          d="M44.577,45.036c0.171,0.134,0.386,0.213,0.617,0.213c0.028,0,0.056-0.001,0.084-0.003c0.55-0.046,0.959-0.529,0.914-1.08   c-0.032-0.378-0.214-0.705-0.516-0.92c-0.565-0.404-1.293-0.223-1.567-0.154c-0.536,0.134-0.861,0.677-0.728,1.213   C43.514,44.835,44.051,45.156,44.577,45.036z"
        />
        <path
          d="M45.446,46.34c-0.001,0.014-0.004,0.032-0.007,0.051c-0.24,0.183-0.394,0.471-0.394,0.795c0,0.552,0.448,1,1,1   c0.966,0,1.4-1.06,1.4-1.813c0-0.536-0.423-0.95-0.958-0.973C45.943,45.377,45.492,45.807,45.446,46.34z"
        />
        <path
          d="M44.169,48.98c0.116-0.331,0.048-0.681-0.149-0.94c0.185-0.486-0.037-1.04-0.516-1.261   c-0.499-0.23-1.095-0.014-1.327,0.488c-0.27,0.585-0.313,1.105-0.125,1.548c0.154,0.364,0.453,0.639,0.843,0.776   c0.109,0.039,0.222,0.057,0.332,0.057C43.639,49.649,44.025,49.392,44.169,48.98z"
        />
        <path
          d="M41.063,47.031c0.229,0,0.458-0.078,0.646-0.237c0.099-0.084,0.177-0.183,0.235-0.29c0.312-0.195,0.504-0.557,0.465-0.948   c-0.055-0.549-0.544-0.952-1.095-0.896c-0.573,0.058-1.026,0.366-1.212,0.826c-0.162,0.399-0.086,0.856,0.197,1.191   C40.497,46.911,40.779,47.031,41.063,47.031z"
        />
        <path
          d="M46.947,51.477c-0.459,0.279-1.044,1.176-0.916,1.948c0.082,0.489,0.505,0.835,0.985,0.835c0.054,0,0.11-0.004,0.166-0.014   c0.498-0.083,0.848-0.52,0.835-1.01c0.01-0.021,0.023-0.046,0.038-0.07c0.098-0.063,0.187-0.144,0.261-0.242   c0.332-0.441,0.244-1.068-0.197-1.4C47.792,51.278,47.297,51.265,46.947,51.477z"
        />
        <path
          d="M50.44,50.339c-0.366,0.109-0.663,0.379-0.838,0.76c-0.227,0.494-0.257,1.208-0.07,1.627   c0.166,0.372,0.531,0.592,0.913,0.592c0.137,0,0.275-0.028,0.408-0.088c0.456-0.204,0.684-0.707,0.557-1.174   c0-0.01,0-0.02,0.001-0.031c0.267-0.251,0.385-0.64,0.273-1.015C51.526,50.482,50.967,50.179,50.44,50.339z"
        />
        <path
          d="M46.09,49.178c-0.496-0.248-1.095-0.045-1.341,0.448c-0.038,0.076-0.211,0.246-0.303,0.337   c-0.289,0.284-0.772,0.759-0.543,1.446c0.14,0.419,0.53,0.684,0.949,0.684c0.104,0,0.211-0.017,0.316-0.052   c0.296-0.099,0.515-0.322,0.618-0.592c0.02-0.02,0.041-0.04,0.062-0.061c0.212-0.208,0.503-0.495,0.69-0.869   C46.785,50.025,46.584,49.425,46.09,49.178z"
        />
        <path
          d="M53.999,52.434c-0.125,0.188-0.193,0.36-0.248,0.498c-0.055,0.139-0.082,0.209-0.168,0.313   c-0.354,0.424-0.296,1.055,0.128,1.408c0.187,0.156,0.414,0.232,0.64,0.232c0.287,0,0.571-0.123,0.769-0.36   c0.293-0.352,0.414-0.658,0.494-0.861c0.017-0.042,0.029-0.083,0.051-0.122c0.305-0.459,0.181-1.079-0.277-1.385   C54.927,51.851,54.307,51.975,53.999,52.434z"
        />
        <path
          d="M58.995,50.342c0.016-0.249-0.062-0.504-0.237-0.709c-0.358-0.421-0.988-0.471-1.41-0.113   c-0.596,0.507-0.598,1.059-0.545,1.342c0.102,0.555,0.53,0.971,1.274,1.236c0.111,0.04,0.224,0.059,0.336,0.059   c0.411,0,0.796-0.255,0.942-0.665C59.509,51.061,59.35,50.595,58.995,50.342z"
        />
        <path
          d="M61.664,53.06c-0.439,0.055-1.219,0.422-1.58,1.064c-0.271,0.481-0.111,1.107,0.371,1.378   c0.159,0.089,0.332,0.132,0.5,0.132c0.342,0,0.669-0.176,0.851-0.498c0.03-0.033,0.127-0.09,0.109-0.093   c0.548-0.069,0.936-0.569,0.867-1.117C62.711,53.379,62.21,52.994,61.664,53.06z"
        />
        <path
          d="M53.559,44c0.026,0,0.052-0.001,0.077-0.003c0.551-0.037,0.968-0.513,0.931-1.064c-0.029-0.443-0.342-0.799-0.75-0.903   c-0.202-0.334-0.588-0.529-0.999-0.474c-0.546,0.078-0.926,0.584-0.848,1.131C52.056,43.288,52.809,44,53.559,44z"
        />
        <path
          d="M58.411,45.222l0.674-0.738l-0.665,0.748c0.191,0.169,0.428,0.252,0.664,0.252c0.276,0,0.55-0.113,0.748-0.335   c0.301-0.339,0.33-0.826,0.103-1.192c0.062-0.272,0.01-0.569-0.167-0.813c-0.327-0.446-0.951-0.543-1.397-0.218   c-0.36,0.264-0.569,0.632-0.588,1.038C57.751,44.638,58.248,45.078,58.411,45.222z"
        />
        <path
          d="M60.655,48.276c0.187-0.467-0.004-0.991-0.427-1.236c-0.158-0.434-0.609-0.707-1.08-0.646   c-0.547,0.078-0.927,0.584-0.85,1.131c0.106,0.743,0.714,1.172,1.057,1.309c0.122,0.048,0.247,0.072,0.37,0.072   C60.123,48.906,60.499,48.668,60.655,48.276z"
        />
        <path
          d="M63.267,49.109c-0.028-0.043-0.06-0.101-0.075-0.144c-0.181-0.521-0.749-0.799-1.272-0.618   c-0.522,0.181-0.798,0.75-0.618,1.272c0.043,0.125,0.447,1.224,1.301,1.312c0.035,0.004,0.069,0.005,0.103,0.005   c0.506,0,0.941-0.383,0.994-0.898C63.739,49.661,63.561,49.31,63.267,49.109z"
        />
        <path
          d="M58.416,59.094c-0.07,0.066-0.127,0.124-0.174,0.175c-0.44,0.147-0.732,0.587-0.676,1.066   c0.061,0.509,0.492,0.882,0.992,0.882c0.04,0,0.079-0.002,0.119-0.007c0.401-0.048,0.708-0.153,0.993-0.532   c0.021-0.027,0.051-0.067,0.116-0.128c0.402-0.378,0.422-1.011,0.043-1.414C59.451,58.735,58.818,58.717,58.416,59.094z"
        />
        <path
          d="M36.481,54.988c-0.418,0.439-0.762,1.208-0.354,1.929c0.184,0.326,0.522,0.508,0.872,0.508   c0.167,0,0.335-0.042,0.491-0.129c0.365-0.206,0.55-0.606,0.5-0.998c0.319-0.401,0.284-0.986-0.095-1.346   C37.496,54.572,36.861,54.587,36.481,54.988z"
        />
        <path
          d="M38.021,50.132c-0.342-0.099-0.75,0.006-1.005,0.254c-0.52,0.501-0.522,1.814-0.47,2.029   c0.112,0.457,0.521,0.762,0.97,0.762c0.079,0,0.159-0.009,0.239-0.029c0.478-0.117,0.79-0.559,0.76-1.033   c0.005-0.104,0.03-0.312,0.056-0.456c0.06-0.087,0.106-0.185,0.137-0.292C38.86,50.836,38.552,50.283,38.021,50.132z"
        />
        <path
          d="M40.219,50.507c-0.007-0.107,0.002-0.222,0.036-0.338C40.222,50.281,40.212,50.395,40.219,50.507z"
        />
        <path
          d="M40.229,50.555c-0.002-0.016-0.01-0.031-0.011-0.048C40.22,50.525,40.227,50.539,40.229,50.555z"
        />
        <path
          d="M41.39,49.259l-1.104,1.547c-0.03-0.074-0.046-0.162-0.057-0.251c0.009,0.087,0.022,0.174,0.054,0.255l-0.055,0.076   c0,0,0.082,0.057,0.155,0.116c0.092,0.138,0.22,0.255,0.379,0.336c0.145,0.074,0.299,0.108,0.452,0.108   c0.365,0,0.716-0.2,0.893-0.547C42.528,50.07,41.731,49.501,41.39,49.259z"
        />
        <path
          d="M39.271,47.445c-0.4-0.382-1.033-0.368-1.414,0.033c-0.381,0.399-0.367,1.032,0.033,1.414l0.118,0.113   c0.194,0.185,0.442,0.277,0.69,0.277c0.264,0,0.527-0.104,0.723-0.31c0.381-0.399,0.367-1.032-0.033-1.414L39.271,47.445z"
        />
        <path
          d="M33.713,49.141c-0.515-0.2-1.094,0.055-1.294,0.57l-0.146,0.375c-0.2,0.515,0.055,1.094,0.57,1.294   c0.119,0.046,0.242,0.068,0.362,0.068c0.4,0,0.778-0.243,0.932-0.638l0.146-0.375C34.483,49.92,34.228,49.341,33.713,49.141z"
        />
        <path
          d="M36.653,49.651c0.049-0.345,0.152-1.063-0.437-1.454c-0.462-0.307-1.082-0.181-1.386,0.28   c-0.157,0.237-0.2,0.516-0.143,0.772c-0.005,0.059-0.014,0.113-0.015,0.12c-0.077,0.546,0.304,1.052,0.85,1.13   c0.048,0.006,0.095,0.01,0.142,0.01C36.155,50.51,36.583,50.15,36.653,49.651z"
        />
        <path
          d="M36.786,46.974c0.552,0,0.997-0.4,0.997-0.953c0.011-0.069,0.04-0.173,0.066-0.273c0.096-0.373,0.16-0.619,0.055-0.931   c-0.175-0.523-0.741-0.805-1.266-0.629c-0.396,0.133-0.654,0.49-0.68,0.883c-0.012,0.05-0.029,0.113-0.045,0.178   c-0.077,0.297-0.124,0.489-0.124,0.679C35.789,46.479,36.233,46.974,36.786,46.974z"
        />
        <path
          d="M25.976,51.297c0,0.208,0.143,0.875,0.217,1.063c0.154,0.385,0.518,0.612,0.909,0.612c0.112,0,0.226-0.019,0.338-0.057   c0.504-0.173,0.777-0.733,0.628-1.245c-0.031-0.106-0.082-0.37-0.098-0.47c-0.049-0.506-0.476-0.902-0.995-0.902   C26.424,50.297,25.976,50.745,25.976,51.297z"
        />
        <path
          d="M28.966,56.665c0.053,0.008,0.105,0.012,0.157,0.012c0.483,0,0.909-0.352,0.986-0.844c0.022-0.138,0.085-0.621-0.014-1.047   c-0.121-0.526-0.632-0.833-1.162-0.728c-0.529,0.104-0.875,0.637-0.789,1.17c0.008,0.052,0.002,0.199-0.012,0.293   C28.048,56.066,28.42,56.579,28.966,56.665z"
        />
        <path
          d="M24.708,53.85c-0.393,0.472-0.417,1.433-0.388,1.636c0.072,0.502,0.509,0.899,1.003,0.899c0.044,0,0.088-0.003,0.132-0.009   c0.546-0.079,0.929-0.543,0.851-1.09c0.001-0.064,0.025-0.227,0.047-0.316c0.226-0.411,0.136-0.938-0.238-1.249   C25.691,53.367,25.061,53.424,24.708,53.85z"
        />
        <path
          d="M32.456,47.589l-0.188-0.563c-0.175-0.523-0.738-0.808-1.265-0.632c-0.524,0.175-0.807,0.741-0.632,1.265l0.188,0.563   c0.14,0.419,0.53,0.684,0.949,0.684c0.104,0,0.211-0.017,0.316-0.052C32.348,48.68,32.631,48.113,32.456,47.589z"
        />
        <path
          d="M35.039,47.078v-0.219c0-0.552-0.448-1-1-1s-1,0.448-1,1v0.219c0,0.552,0.448,1,1,1S35.039,47.63,35.039,47.078z"
        />
        <path
          d="M34.555,44.859c0.19,0,0.383-0.054,0.554-0.168c0.416-0.277,0.479-0.7,0.575-1.34l-1.631-0.245L34,43.027   c-0.028,0.019-0.055,0.039-0.081,0.06l-0.213-0.032c0,0-0.037,0.259-0.072,0.413c-0.127,0.299-0.106,0.656,0.088,0.947   C33.915,44.703,34.232,44.859,34.555,44.859z"
        />
        <path
          d="M31.202,44.074c0.142,0.415,0.53,0.676,0.946,0.676c0.107,0,0.217-0.018,0.324-0.055c0.522-0.179,0.801-0.748,0.622-1.27   l-0.188-0.547c-0.179-0.522-0.749-0.804-1.27-0.622c-0.522,0.179-0.801,0.748-0.622,1.27L31.202,44.074z"
        />
        <path
          d="M30.423,44.668l-0.359-0.682c-0.257-0.488-0.862-0.675-1.351-0.418c-0.488,0.257-0.676,0.862-0.418,1.351l0.359,0.682   c0.179,0.34,0.526,0.534,0.886,0.534c0.157,0,0.316-0.037,0.465-0.115C30.493,45.762,30.681,45.157,30.423,44.668z"
        />
        <path
          d="M70.589,49.241c-0.254-0.396-0.76-0.569-1.213-0.389c-0.513,0.205-0.763,0.787-0.558,1.299   c0.059,0.149,0.126,0.317,0.776,0.91l1.348-1.478C70.942,49.583,70.705,49.372,70.589,49.241z"
        />
        <path
          d="M71.631,52.526c-0.36-0.421-0.992-0.468-1.41-0.108c-0.419,0.36-0.468,0.991-0.108,1.41l0.25,0.292   c0.198,0.231,0.478,0.349,0.76,0.349c0.23,0,0.462-0.079,0.65-0.241c0.419-0.36,0.468-0.991,0.108-1.41L71.631,52.526z"
        />
        <path
          d="M74.706,51.154c0-0.696-0.505-1.101-1.004-1.141c-0.737-0.071-1.519,0.751-1.607,1.293c-0.089,0.545,0.28,1.06,0.825,1.149   c0.055,0.009,0.109,0.013,0.163,0.013c0.284,0,0.547-0.121,0.732-0.32C74.315,52.094,74.706,51.669,74.706,51.154z"
        />
        <path
          d="M74.753,53.625c-0.398-0.135-0.819-0.018-1.186,0.327c-0.499,0.47-0.43,0.975-0.377,1.17   c0.106,0.392,0.417,0.683,0.832,0.779c0.076,0.017,0.151,0.025,0.226,0.025c0.436,0,0.832-0.287,0.958-0.718   c0.076-0.092,0.136-0.198,0.176-0.318C75.559,54.368,75.276,53.801,74.753,53.625z"
        />
        <path
          d="M76.422,55.678c-0.436,0.173-0.724,0.575-0.734,1.023c-0.008,0.355,0.173,0.822,0.707,1.065   c0.134,0.061,0.275,0.09,0.414,0.09c0.379,0,0.743-0.218,0.911-0.586c0.021-0.047,0.039-0.096,0.053-0.144   c0.229-0.383,0.179-0.887-0.15-1.218C77.317,55.601,76.845,55.509,76.422,55.678z"
        />
        <path
          d="M69.748,47.625c0.202,0,0.406-0.061,0.583-0.188c0.448-0.322,0.55-0.947,0.228-1.396c-0.034-0.047-0.079-0.117-0.115-0.178   c-0.01-0.241-0.107-0.479-0.292-0.664c-0.391-0.391-1.023-0.391-1.414,0c-0.482,0.482-0.416,1.158,0.198,2.01   C69.131,47.48,69.437,47.625,69.748,47.625z"
        />
        <path
          d="M70.368,42.957c-0.426,0.344-0.489,0.963-0.148,1.393c0.196,0.248,0.488,0.376,0.784,0.376   c0.217,0,0.436-0.069,0.619-0.211c0.131-0.102,0.536-0.352,0.54-0.354l-1.06-1.696C71.103,42.464,70.525,42.83,70.368,42.957z"
        />
        <path
          d="M74.294,45.109c0.268,0,0.535-0.107,0.731-0.318c0.312-0.334,0.35-0.825,0.125-1.197c0.034-0.469-0.269-0.911-0.739-1.036   c-0.534-0.145-1.082,0.173-1.224,0.708c-0.154,0.574,0.013,1.192,0.425,1.576C73.805,45.02,74.049,45.109,74.294,45.109z"
        />
        <path
          d="M74.695,46.625c0,0.406,0.269,1.038,0.703,1.351c0.209,0.151,0.45,0.229,0.691,0.229c0.121,0,0.241-0.02,0.358-0.059   c0.524-0.174,0.808-0.74,0.633-1.264c-0.077-0.233-0.232-0.418-0.426-0.537c-0.121-0.416-0.505-0.72-0.96-0.72   C75.143,45.625,74.695,46.072,74.695,46.625z"
        />
        <path
          d="M71.636,47.362c0.082,0.489,0.505,0.835,0.985,0.835c0.055,0,0.11-0.004,0.166-0.014c0.544-0.091,0.912-0.606,0.821-1.151   c-0.002-0.011-0.005-0.045-0.006-0.078c0.195-0.394,0.113-0.884-0.231-1.19c-0.413-0.369-1.045-0.331-1.412,0.082   C71.537,46.319,71.575,46.999,71.636,47.362z"
        />
        <path
          d="M65.886,47.374l-0.063-0.144c-0.229-0.503-0.824-0.724-1.325-0.495c-0.502,0.229-0.724,0.823-0.495,1.325l0.067,0.153   c0.129,0.301,0.431,1.005,1.28,1.005c0.552,0,1-0.448,1-1C66.351,47.863,66.166,47.551,65.886,47.374z"
        />
        <path
          d="M61.589,44.802c-0.261,0.173-0.458,0.541-0.478,0.854c-0.026,0.422,0.16,0.856,0.485,1.135   c0.188,0.161,0.42,0.24,0.65,0.24c0.282,0,0.563-0.119,0.76-0.35c0.27-0.315,0.309-0.75,0.135-1.099   c-0.009-0.173-0.063-0.346-0.166-0.501C62.671,44.621,62.051,44.498,61.589,44.802z"
        />
        <path
          d="M61.79,43.546c0.207,0,0.415-0.064,0.594-0.196c0.309-0.229,0.449-0.602,0.394-0.958c0.06-0.384-0.108-0.783-0.458-1.002   c-0.468-0.293-1.086-0.15-1.378,0.318c-0.321,0.514-0.209,1.089,0.044,1.432C61.181,43.406,61.483,43.546,61.79,43.546z"
        />
        <path
          d="M66.831,44.239c-0.552,0-1,0.448-1,1v0.198c0,0.552,0.448,1,1,1s1-0.448,1-1v-0.198   C67.831,44.687,67.383,44.239,66.831,44.239z"
        />
        <path
          d="M64.622,44.523c0.552,0,1-0.448,1-1v-0.367c0-0.552-0.448-1-1-1s-1,0.448-1,1v0.367   C63.622,44.075,64.07,44.523,64.622,44.523z"
        />
        <path
          d="M69.06,42.393v-0.279c0-0.552-0.448-1-1-1s-1,0.448-1,1v0.279c0,0.552,0.448,1,1,1S69.06,42.945,69.06,42.393z"
        />
        <path
          d="M70.768,41.718h0.229c0.552,0,1-0.448,1-1s-0.448-1-1-1h-0.229c-0.552,0-1,0.448-1,1S70.215,41.718,70.768,41.718z"
        />
        <path
          d="M76.586,43.569c-0.474,0.284-0.627,0.898-0.343,1.372l0.188,0.313c0.188,0.313,0.519,0.485,0.858,0.485   c0.175,0,0.353-0.046,0.514-0.143c0.474-0.284,0.627-0.898,0.343-1.372l-0.188-0.313C77.674,43.439,77.06,43.286,76.586,43.569z"
        />
        <path
          d="M76.956,42.906c0.201,0,0.403-0.06,0.579-0.186l0.146-0.104c0.45-0.32,0.555-0.945,0.234-1.395   c-0.321-0.45-0.945-0.555-1.395-0.234l-0.146,0.104c-0.45,0.32-0.555,0.945-0.234,1.395C76.336,42.76,76.644,42.906,76.956,42.906z   "
        />
        <path
          d="M79.581,43.281c0.222,0,0.445-0.073,0.63-0.224l0.333-0.271c0.428-0.348,0.494-0.978,0.145-1.407   c-0.348-0.429-0.978-0.493-1.407-0.145l-0.333,0.271c-0.428,0.348-0.494,0.978-0.145,1.407   C79.001,43.155,79.29,43.281,79.581,43.281z"
        />
        <path
          d="M80.185,43.583c-0.552,0-1,0.448-1,1v0.252c0,0.552,0.448,1,1,1s1-0.448,1-1v-0.252   C81.185,44.031,80.737,43.583,80.185,43.583z"
        />
        <path
          d="M83.529,44.45c0.186,0.153,0.411,0.227,0.634,0.227c0.289,0,0.576-0.125,0.773-0.366c0.351-0.427,0.288-1.057-0.139-1.407   L84.61,42.75c-0.426-0.351-1.058-0.288-1.407,0.139c-0.351,0.427-0.288,1.057,0.139,1.407L83.529,44.45z"
        />
      </g>
    </svg>