 <svg
      xmlns="http://www.w3.org/2000/svg"
      data-name="Layer 1"
      viewBox="0 0 100 125"
      x="0px"
      y="0px"
      fill="#ffffff"
    >
      <path
        d="M21.78,48.61c1.16,1.6,3.11,2.41,5.8,2.41h.31c2.89-.06,4.94-1,6.08-2.69a6.45,6.45,0,0,0,1-3.73A14.57,14.57,0,0,0,40.08,34.4,13.63,13.63,0,0,0,39.88,31c1-.67,2.74-2.13,3.08-4.09a4.07,4.07,0,0,0-1-3.4,4.73,4.73,0,0,0-3.5-1.85,5.53,5.53,0,0,0-3.34,1.17A13.4,13.4,0,0,0,21.4,20.94a12.56,12.56,0,0,0-1.47.75,5.08,5.08,0,0,0-7,1.05,4.2,4.2,0,0,0-1,3.39,6.93,6.93,0,0,0,2.6,4,12.59,12.59,0,0,0-.09,1.47c0,9.05,4.55,12.28,6.29,13.19A6.6,6.6,0,0,0,21.78,48.61ZM40.39,24.84A2.09,2.09,0,0,1,41,26.59a4.49,4.49,0,0,1-1.67,2.35,14.07,14.07,0,0,0-2.8-4.66,3.11,3.11,0,0,1,1.85-.59A2.79,2.79,0,0,1,40.39,24.84Zm-26.56,1a2.26,2.26,0,0,1,.6-1.82,3,3,0,0,1,3.7-1,11,11,0,0,0-3.18,4.85A4,4,0,0,1,13.83,25.84Zm2.53,5.75a9.2,9.2,0,0,1,5.82-8.8,11.33,11.33,0,0,1,12.17,2.12,11.61,11.61,0,0,1,3.73,9.36,12.74,12.74,0,0,1-3.48,7.93A9.9,9.9,0,0,0,34.25,41a1,1,0,1,0-1.86.74s1.29,3.39-.08,5.45C31.55,48.37,30,49,27.85,49s-3.65-.48-4.45-1.58c-1.52-2.08-.3-5.67-.29-5.71a1,1,0,0,0-1.89-.66,11.22,11.22,0,0,0-.38,1.48C19.22,41.41,16.36,38.44,16.36,31.58Z"
      />
      <path
        d="M27.22,42a1,1,0,0,0,1.58,0l4-5.2A1,1,0,0,0,32,35.2H24a1,1,0,0,0-.79,1.61ZM30,37.2l-2,2.57L26,37.2Z"
      />
      <path
        d="M94.56,61.07A1,1,0,1,0,94,63a4.18,4.18,0,0,1,3,4.65c-.18,1.84-1.38,3.8-3.33,4a3.83,3.83,0,0,1-3.13-1.17c-2.26-2.2-3.35-7-2.92-12.91,1-14.13-5.88-18.21-7.37-18.92-3.94-4.91-10.89-4.89-11-4.9H52.4a19.83,19.83,0,0,0-.33-3c-1.18-6.26-5.3-11.91-11.59-15.9C34.56,11,26.17,10.12,18.56,12.41,11.65,14.49,6.42,18.84,3.83,24.65-2.1,38,7.09,50.12,7.48,50.63a1,1,0,0,0,1.77-.8,7.91,7.91,0,0,1,.18-3.76c1.5,7.07,6.74,11.18,8.95,12.91l.58.46a1,1,0,0,0,1.53-1.22,5.06,5.06,0,0,1-.5-1.78,14.46,14.46,0,0,0,1,1.33c-.23,2.11-.92,11.28,3.08,18.83a7.79,7.79,0,0,0-3.29,2.06,7.69,7.69,0,0,0-2.16,5.7,1,1,0,0,0,1,1h6.14a10.34,10.34,0,0,0-.26,2.54,1,1,0,0,0,1,1h15a1,1,0,0,0,1-1c0-5.65,1-20.64,6.09-22.6a21.6,21.6,0,0,1,3.71.46,56.15,56.15,0,0,0,7.21.86A35.34,35.34,0,0,0,62.19,78,6.65,6.65,0,0,0,56,84.28a1,1,0,0,0,1,1h6a8.37,8.37,0,0,0-.49,2.5,1,1,0,0,0,1,1h14.3a1,1,0,0,0,1-.85c.18-1.2,4.37-29.58,4-41.51A15.74,15.74,0,0,0,82.36,43c1.86,2.4,3.76,6.75,3.21,14.36-.48,6.55.81,11.83,3.52,14.48a5.82,5.82,0,0,0,4.13,1.75l.59,0c2.7-.26,4.81-2.64,5.12-5.78A6.14,6.14,0,0,0,94.56,61.07ZM19.63,48.39h0a1,1,0,0,0-1,1c0,.18,0,.35,0,.52,0,.59-.15,1.28-.26,2A21,21,0,0,0,18,56c-2.88-2.51-7.13-7.21-6.92-14.48,0-.06,0-.12,0-.17a1,1,0,0,0-1-1h0a1,1,0,0,0-1,1s0,.07,0,.11A6.8,6.8,0,0,1,8.47,43a15.48,15.48,0,0,0-1.2,3.53C5,42.32,1.83,34,5.65,25.46,8,20.19,12.79,16.24,19.14,14.32,26.2,12.19,34,13,39.41,16.46,45.23,20.16,49,25.33,50.11,31a20,20,0,0,1-2.84,14c-.47-2.78-1.39-6.12-1.53-6.64a1,1,0,0,0-2,.29c0,.14.15,12.62-5.62,18a30.6,30.6,0,0,0-1.26-6.57,1,1,0,0,0-1.94.43c.19,1.54.31,6.19-1.52,7.28a18.51,18.51,0,0,0-5.71,4.91,55.86,55.86,0,0,0-3.59-4.36l-1.35-1.55c-1.89-2.21-2.32-3.44-2.2-6.85,0-.2,0-.39,0-.57A1,1,0,0,0,19.63,48.39Zm1,34.92A5.75,5.75,0,0,1,22.21,80a5.17,5.17,0,0,1,3.43-1.7,1,1,0,0,0,.85-1.53c-3.58-5.75-3.81-13.18-3.66-16.89,1.67,1.9,3.64,4.18,4,5.29a1,1,0,0,0,.95.68h0a1,1,0,0,0,.42-.12c.41,4,1.32,10.56,3.11,13.5a9.63,9.63,0,0,0-4.86,4Zm37.6,0a4.71,4.71,0,0,1,1.31-2.13A6,6,0,0,1,64,79.92a1,1,0,0,0,1-.72A1,1,0,0,0,64.57,78c-1.24-.74-3.09-9-3.2-11.49a18.29,18.29,0,0,0,3.3-.41c.51,4.89,2,11.49,3.44,14.63a6.39,6.39,0,0,0-4,2.54ZM77,86.84H64.67a6.35,6.35,0,0,1,.73-1.93,1,1,0,0,0,.15-.23,4.72,4.72,0,0,1,4.21-2.06,1,1,0,0,0,.55-1.83C69.4,79.66,67,70.56,66.53,65c0,0,0,0,0-.07a10.84,10.84,0,0,1,.11-3.38,1,1,0,0,0-.5-1.17,1,1,0,0,0-1.23.25c-.28.21-2,.21-4.37-1.07-1.57-.84-6.68-4.1-6.32-10.49a1,1,0,1,0-2-.11c-.37,6.52,4.24,11.27,9,13.1a8.58,8.58,0,0,0,3.31.67c0,.42,0,.9,0,1.4a16.89,16.89,0,0,1-4,.46h0a48.66,48.66,0,0,1-7.91-.86,19.4,19.4,0,0,0-4.37-.47l-.21,0c-6.85,2.34-7.5,18.88-7.55,23.54H27.51c.36-3.89,3.24-5.12,5.19-6l.7-.31a1,1,0,0,0,.14-1.73C31.81,77.65,30.46,69,30,63a18.41,18.41,0,0,1,4.44-3.5,4.48,4.48,0,0,0,1.74-2c0,.38,0,.75,0,1.11a1,1,0,0,0,1.51.93c4.87-2.92,6.82-9.37,7.59-14.33a12.51,12.51,0,0,1,.28,2.71,1,1,0,0,0,1.8.67,24.65,24.65,0,0,0,5-12.87H69.22c.44,0,11.28,0,11.62,10.83C81.16,57.16,77.68,81.93,77,86.84Z"
      />
    </svg>