    <svg
      xmlns="http://www.w3.org/2000/svg"
      viewBox="0 0 512 640"
      x="0px"
      y="0px"
      fill="#ffffff"
    >
      <path
        d="M478.86255,116.56836l.29272-.14648-9.3667-18.7334A31.82556,31.82556,0,0,0,441.167,80H399.59814A47.65208,47.65208,0,0,0,352,127.59766v3.916L213.749,216H124A108.12217,108.12217,0,0,0,16,324v20a88.09957,88.09957,0,0,0,88,88h83.20361A20.81989,20.81989,0,0,0,208,411.20312a20.60167,20.60167,0,0,0-18.19238-20.457L109.811,381.334A42.81362,42.81362,0,0,1,114.814,296h60.2417l-22.21093,44.42188A8,8,0,0,0,160,352h80a8,8,0,0,0,7.15527-11.57812l-8-16a8.00049,8.00049,0,0,0-4.62548-4.01172l-6.94776-2.31543A71.07341,71.07341,0,0,0,246.89282,296H304c2.66333,0,5.33508-.085,8-.23975V296a7.9984,7.9984,0,0,0,1.6001,4.7998l21.0332,28.04493-5.78857,11.57715A8,8,0,0,0,336,352h80a8,8,0,0,0,7.15527-11.57812l-8-16a7.99833,7.99833,0,0,0-5.21484-4.18262l-28.43066-7.1084L368,286.11133v-6.08887a136.17173,136.17173,0,0,0,28.65552-20.48193l9.97778,13.3042-5.78857,11.57715A8,8,0,0,0,408,296h80a8,8,0,0,0,7.15527-11.57812l-8-16a7.99833,7.99833,0,0,0-5.21484-4.18262l-28.43066-7.1084L440,230.11133V168h29.40381a26.58321,26.58321,0,0,0,9.45874-51.43164ZM455.478,104.84473l2.3291,4.6582-13.48535-4.49512L435.31445,96H441.167A15.91239,15.91239,0,0,1,455.478,104.84473ZM45.49036,385.88208a71.82855,71.82855,0,0,1-9.60779-18.60693l24.52978-6.13233a58.76972,58.76972,0,0,0,5.10425,9.71948Zm10.92077-40.23071-24.00049,6A72.4794,72.4794,0,0,1,32,344V328H57.01355a57.75255,57.75255,0,0,0-.60242,17.65137ZM128,416V399.58447l24,2.82373V416Zm64-4.79688A4.80188,4.80188,0,0,1,187.20361,416H168V404.29077l19.939,2.346A4.5991,4.5991,0,0,1,192,411.20312Zm-80-13.501V416h-8a72.05613,72.05613,0,0,1-14.33691-1.4375l9.52734-19.05469a59.02509,59.02509,0,0,0,8.75146,1.7168Zm-27.53662-8.51758L74.27905,409.55322a72.19807,72.19807,0,0,1-18.03637-11.7351l19.76684-14.825A58.84026,58.84026,0,0,0,84.46338,389.18457ZM440.84473,267.57812a7.99833,7.99833,0,0,0,5.21484,4.18262l28.43066,7.1084L475.05566,280H420.94434l2.21093-4.42188a7.99892,7.99892,0,0,0-.75537-8.37792l-14.54431-19.39234a136.74016,136.74016,0,0,0,10.8739-14.74927c1.88257-2.95068,3.62989-5.97192,5.27051-9.04223V232a7.99934,7.99934,0,0,0,.84473,3.57812ZM469.40381,152H400v16h23.72729A119.8869,119.8869,0,0,1,368,261.51929V240H352v48a7.99934,7.99934,0,0,0,.84473,3.57812l16,32a7.99833,7.99833,0,0,0,5.21484,4.18262l28.43066,7.1084L403.05566,336H348.94434l2.21093-4.42188a7.99892,7.99892,0,0,0-.75537-8.37792L328,293.333V256H312v23.73047c-2.6626.175-5.33569.26953-8,.26953H253.44678A72.26666,72.26666,0,0,0,256,260.919V256H240V260.919a55.36545,55.36545,0,0,1-34.97119,51.65332,8.0002,8.0002,0,0,0,.4414,15.01757l20.85645,6.95215.729,1.458H172.94434l26.21093-52.42188A7.99934,7.99934,0,0,0,200,280V256H184v22.11133L183.05566,280H114.814a58.86211,58.86211,0,0,0-52.31909,32H32.78247A92.13771,92.13771,0,0,1,124,232h92a7.99861,7.99861,0,0,0,4.17139-1.17383l144-88A7.99884,7.99884,0,0,0,368,136v-8.40234a31.59849,31.59849,0,0,1,53.94092-22.34375l12.40185,12.40332a8.01565,8.01565,0,0,0,3.12744,1.93261l35.28418,11.76172A10.596,10.596,0,0,1,469.40381,152Z"
      />
      <path
        d="M408,112h-8v8a8.00009,8.00009,0,0,0,8,8h8v-8A8.00009,8.00009,0,0,0,408,112Z"
      />
    </svg>