<svg
      xmlns="http://www.w3.org/2000/svg"
      xmlns:xlink="http://www.w3.org/1999/xlink"
      version="1.1"
      x="0px"
      y="0px"
      viewBox="0 0 100 125"
      enable-background="new 0 0 100 100"
      xml:space="preserve"
      fill="#ffffff"
    >
      <path
        stroke="#ffffff"
        stroke-width="2"
        stroke-linecap="round"
        stroke-linejoin="round"
        stroke-miterlimit="10"
        d="M45.479,52.153  c0,0.644-1.203,2.167-2.688,2.167c-1.484,0-2.688-1.522-2.688-2.167c0-0.644,1.203-1.167,2.688-1.167  C44.276,50.987,45.479,51.509,45.479,52.153z"
      />
      <path
        fill="none"
        stroke="#ffffff"
        stroke-width="2"
        stroke-linecap="round"
        stroke-linejoin="round"
        stroke-miterlimit="10"
        d="  M21.709,44.555c0-8.169,9.439-19.958,21.083-19.958s21.083,11.789,21.083,19.958s-9.439,14.792-21.083,14.792  S21.709,52.724,21.709,44.555z"
      />
      <path
        stroke="#ffffff"
        stroke-width="1.7692"
        stroke-linecap="round"
        stroke-linejoin="round"
        stroke-miterlimit="10"
        d="  M38.047,39.186c0.221,1.548-1.003,2.295-2.089,3.578s-1.081,3.983-2.776,4.515s-6.192-1.311-2.801-6.471  S37.826,37.638,38.047,39.186z"
      />
      <path
        stroke="#ffffff"
        stroke-width="1.7692"
        stroke-linecap="round"
        stroke-linejoin="round"
        stroke-miterlimit="10"
        d="  M47.007,39.186c-0.221,1.548,1.003,2.295,2.089,3.578c1.086,1.282,1.081,3.983,2.776,4.515s6.192-1.311,2.801-6.471  S47.228,37.638,47.007,39.186z"
      />
      <path
        stroke="#ffffff"
        stroke-width="2"
        stroke-linecap="round"
        stroke-linejoin="round"
        stroke-miterlimit="10"
        d="M25.737,34.001  c-2.371-0.335-4.696-1.843-5.752-3.659c-1.631-2.805-0.373-6.579,2.81-8.43s7.085-1.077,8.716,1.728  c0.612,1.052,0.923,2.422,0.906,3.822"
      />
      <path
        stroke="#ffffff"
        stroke-width="2"
        stroke-linecap="round"
        stroke-linejoin="round"
        stroke-miterlimit="10"
        d="M60.004,34.001  c2.371-0.335,4.696-1.843,5.752-3.659c1.631-2.805,0.373-6.579-2.81-8.43c-3.183-1.851-7.085-1.077-8.716,1.728  c-0.612,1.052-0.923,2.422-0.906,3.822"
      />
      <path
        stroke="#ffffff"
        stroke-width="2"
        stroke-linecap="round"
        stroke-linejoin="round"
        stroke-miterlimit="10"
        d="M27.458,54.706  c0,0-2.75,7.224-0.583,14.641s6.25,11.25,6.25,11.25h5.417c0,0,3.083-6.25,2.917-11.333h4.833c0,0,0.083,6.5,2.583,11.333h7.417  c0,0,10.667-9.5,11.417-24.083s-4.709-16.626-4.709-16.626s5.742,11.3-10.608,17.838c0,0-7.374,3.06-16.403,0.832  C26.959,56.329,27.458,54.706,27.458,54.706z"
      />
      <path
        fill="none"
        stroke="#ffffff"
        stroke-width="2"
        stroke-linecap="round"
        stroke-linejoin="round"
        stroke-miterlimit="10"
        d="  M63.875,33.097c0,0,15.417,6.75,14.5,18.833c-0.917,12.083-10.167,15.333-13.583,15.333"
      />
      <path
        stroke="#ffffff"
        stroke-width="2"
        stroke-linecap="round"
        stroke-linejoin="round"
        stroke-miterlimit="10"
        d="M63.875,33.097  c0,0,15.417,6.75,14.5,18.833c-0.917,12.083-10.167,15.333-13.583,15.333l-0.665,2.571h2.832c0,0,0,6.679,3.333,10.763h6.833  c0,0,8.25-9.083,7.917-21.833c-0.333-12.75-10.357-25.625-19.762-27.729L63.875,33.097z"
      />
    </svg>