    <svg
      xmlns="http://www.w3.org/2000/svg"
      data-name="Layer 26"
      viewBox="0 0 100 125"
      x="0px"
      y="0px"
      fill="#ffffff"
    >
      <path
        d="M17.19,45C16.7,56.21,19.11,65.1,24.37,71.4a26.82,26.82,0,0,0,6.76,5.75,8.1,8.1,0,0,0,.25,3.65c.72,2.19,2.7,4.08,5.7,5.44,4.18,1.91,9.73,2.47,12.92,1.36a12.37,12.37,0,0,0,4,.57,22.63,22.63,0,0,0,9-1.93c3-1.36,5-3.25,5.7-5.44a8.07,8.07,0,0,0,.25-3.64,27.06,27.06,0,0,0,6.76-5.76C80.9,65.09,83.3,56.21,82.81,45c5-4,4.35-10.58,4.06-12.41,1.06-1.42,4.63-6.62,4.07-11.84a9.45,9.45,0,0,0-3.7-6.54C79.58,8,69.34,15.44,65.29,18.9A40,40,0,0,0,50,17.67,40,40,0,0,0,34.71,18.9c-4.05-3.47-14.28-10.87-22-4.74a9.45,9.45,0,0,0-3.7,6.54c-.56,5.22,3,10.42,4.07,11.84C12.84,34.37,12.23,40.93,17.19,45Zm-6.14-24a7.51,7.51,0,0,1,3-5.19c8.16-6.52,20.89,6,21,6.18a1,1,0,0,0,1.44-1.38,38.14,38.14,0,0,1,9.18-1.08,33.3,33.3,0,0,1,4.21.23h.28a39.46,39.46,0,0,1,13.39.85A1,1,0,0,0,65,21.9c.13-.13,12.86-12.71,21-6.18a7.51,7.51,0,0,1,3,5.19c.56,5.16-3.87,10.68-3.92,10.74a1,1,0,0,0-.2.85c0,.09,2,8.86-5.49,12.25a1,1,0,0,0,.42,1.91,1,1,0,0,0,.41-.09c.24-.11.45-.24.68-.36.26,10.19-2,18.21-6.76,23.91a25,25,0,0,1-5.69,5,33,33,0,0,0-5.55-9.89,1,1,0,0,0-1.54,1.28c2,2.38,6.8,9.48,5.41,13.68-.69,2.09-2.9,3.46-4.63,4.25-3.84,1.75-9.09,2.29-11.7,1.19a1.05,1.05,0,0,0-.78,0c-2.61,1.1-7.86.56-11.7-1.19-1.73-.79-3.94-2.16-4.63-4.25-1.39-4.2,3.43-11.3,5.41-13.68a1,1,0,1,0-1.54-1.28A33,33,0,0,0,31.6,75.1a25,25,0,0,1-5.69-5c-4.76-5.7-7-13.72-6.76-23.91.23.12.44.25.68.36a1,1,0,0,0,.41.09,1,1,0,0,0,.42-1.91c-7.41-3.37-5.57-11.89-5.49-12.25a1,1,0,0,0-.2-.85C14.92,31.59,10.5,26.09,11.05,20.91Z"
      />
      <path
        d="M16.86,22.25c3.87,1,9.56,3.13,10.72,4.7-.47,3.73-1.7,8-2.79,8.31a1,1,0,0,0,.3,2,1,1,0,0,0,.29,0c2.93-.9,4-8.13,4.23-10.32a1,1,0,0,0-.09-.55c-1.44-3-10.37-5.5-12.14-6a1,1,0,0,0-1.23.71A1,1,0,0,0,16.86,22.25Z"
      />
      <path
        d="M27.25,43.62a1,1,0,0,0,1,1.05c.6,0,1.55.11,2.63.26a6.72,6.72,0,0,0,1.35,4.85c1.44,1.74,3.87,2.62,7.23,2.62l.89,0a9.41,9.41,0,0,1,.54,3.7,1,1,0,0,0,.88,1.1h.12a1,1,0,0,0,1-.89c.4-3.51-2.24-9.14-4.06-10.68-3-2.56-10.18-2.93-10.48-2.94A1,1,0,0,0,27.25,43.62Zm5.58,1.66a11.48,11.48,0,0,1,4.66,1.85,10.59,10.59,0,0,1,2.06,3.27c-2.76,0-4.76-.62-5.8-1.88A4.54,4.54,0,0,1,32.83,45.28Z"
      />
      <path
        d="M74.62,37.17a1,1,0,0,0,.29,0,1,1,0,0,0,.3-2c-1.09-.34-2.32-4.58-2.79-8.31,1.16-1.57,6.85-3.66,10.72-4.7A1,1,0,0,0,83.85,21a1,1,0,0,0-1.23-.71c-1.77.48-10.7,3-12.14,6a1,1,0,0,0-.09.55C70.64,29,71.69,36.27,74.62,37.17Z"
      />
      <path
        d="M58.15,57.18h.12a1,1,0,0,0,.88-1.1,9.41,9.41,0,0,1,.54-3.7l.89,0c3.36,0,5.79-.88,7.23-2.62a6.7,6.7,0,0,0,1.35-4.84c1.08-.16,2-.24,2.63-.27a1,1,0,0,0,1-1.05,1,1,0,0,0-1-.95c-.3,0-7.47.38-10.49,2.94-1.81,1.54-4.45,7.17-4.05,10.69A1,1,0,0,0,58.15,57.18Zm4.36-10a11.53,11.53,0,0,1,4.67-1.85,4.59,4.59,0,0,1-.92,3.23c-1,1.26-3,1.91-5.81,1.89A10.59,10.59,0,0,1,62.51,47.13Z"
      />
      <path
        d="M40.8,73.15c.42,2.8,4.12,6.71,9.2,6.71s8.78-3.91,9.2-6.71A2.66,2.66,0,0,0,57.33,70,14.93,14.93,0,0,0,50,69.94a14.93,14.93,0,0,0-7.33.07A2.66,2.66,0,0,0,40.8,73.15Zm2.45-1.23a10.75,10.75,0,0,1,3-.41,14.94,14.94,0,0,1,3.46.42,1,1,0,0,0,.54,0,13.38,13.38,0,0,1,6.48,0c.22.07.58.18.47.93-.3,2-3.33,5-7.22,5s-6.92-3-7.22-5C42.67,72.1,43,72,43.25,71.92Z"
      />
    </svg>