 <svg
      xmlns="http://www.w3.org/2000/svg"
      xmlns:xlink="http://www.w3.org/1999/xlink"
      version="1.1"
      x="0px"
      y="0px"
      viewBox="0 0 100 125"
      enable-background="new 0 0 100 100"
      xml:space="preserve"
      fill="#ffffff"
    >
      <g>
        <g>
          <path
            d="M89.1,63.4c-0.6-0.3-1.4-0.3-2,0.1l-2,1.3c1.4-13.1-11.3-21.5-15.7-24c-1.3-0.7-2.7-1.1-4.1-1c-7.1,0.1-12.5,0-15.8-0.3    c-1.6-0.1-3.1-0.7-4.4-1.7c0.2-1,0.3-2,0.3-3.1c1.6,0.1,4,0.2,6.6,0.2c12,0,19.7-2.2,22.7-6.4c0-0.1,0.1-0.1,0.1-0.2    c0.3-0.5,2.5-4.6,0.9-8c-0.3-0.6-0.7-1.2-1.3-1.8c0.6-1.6,0.7-3.1,0.3-4.4c-0.6-1.9-2.1-3.5-4.5-4.6c-2.3-1.1-5.1-0.8-7.2,0.7    C57,14.6,43.8,21.6,37.8,24.8c-0.2,0-0.3-0.1-0.5-0.1c-4-0.8-6.9-1.4-9.4-1.4c-3.9,0-6.9,1.3-11.4,5c-8.4,6.9-6.4,15.5-6.3,15.8    c0,0.2,0.1,0.4,0.2,0.6c0.3,0.5,2.5,3.8,9.8,5.2c0.4,1.6,1.5,5.5,2.7,8.2c0.2,0.6,0.3,1.1,0.4,1.7l0.2,20.7    c-2.6,1-5.7,3.4-5.2,7.7c0.1,0.8,0.6,1.4,1.4,1.7c0.5,0.2,3.2,1,6.2,1c1.9,0,4-0.3,5.7-1.4c1.9-1.2,3.1-3,3.5-5.5l1-8.5    c1.7,2,4,4.5,6.3,6.4c-0.2,0.3-0.4,0.5-0.6,0.8c-2.2,3.3-0.5,7.2-0.5,7.3c0.3,0.7,1,1.2,1.8,1.2c0,0,0,0,0,0l32.5-0.3    c0.6,0,1.1-0.2,1.5-0.7c0.4-0.4,0.6-1,0.5-1.5c-0.1-1.3-0.2-2.8-0.3-4c3.1-0.1,5.8-1.2,7.9-3.4c5.4-5.5,5.2-15.8,5.2-16.2    C90.1,64.4,89.7,63.7,89.1,63.4z M65.4,13.5c1-0.7,2.2-0.8,3.2-0.3c0.9,0.4,2.1,1.1,2.4,2.1c0.1,0.5,0.1,1-0.1,1.6    c-0.4-0.1-0.8-0.1-1.3-0.1c-3.1,0-6.8,1.7-11,3.7c-4.1,2-8.7,4.1-13.2,4.8C52.4,21.5,60.8,16.8,65.4,13.5z M13.9,42.8    c-0.2-1.4-0.5-6.9,5.1-11.5c3.7-3.1,6-4.1,8.9-4.1c2.2,0,4.9,0.5,8.7,1.3c0.8,0.2,1.7,0.3,2.7,0.5c1.1,0.2,2.3,0.3,3.6,0.3h0    c6.2,0,12.3-2.9,17.6-5.4c3.6-1.7,7.1-3.3,9.3-3.3c0.2,0,0.5,0,0.7,0.1c0.4,0.1,0.7,0.2,0.9,0.3c0,0,0.1,0,0.1,0    c0.7,0.3,0.9,0.7,0.9,0.9c0.5,1.2-0.2,3.3-0.7,4.3c-2.2,2.9-9.3,4.6-19.4,4.6c-4.8,0-8.5-0.4-8.5-0.4c-0.6-0.1-1.2,0.1-1.6,0.6    s-0.6,1-0.6,1.6c0.9,9-6.1,12.8-7.5,13.5c-2.2,0.2-4.2,0.3-6.1,0.3h0C18,46.5,14.7,43.6,13.9,42.8z M44.4,87.2    c-0.1-0.7-0.1-1.6,0.4-2.3c0.3-0.5,0.8-0.8,1.4-1.1c0,0,0.1,0,0.1-0.1c1.1-0.5,2.6-0.7,4.5-0.7h11.5c1,0,1.9-0.8,2-1.8    c0.1-1-0.6-1.9-1.5-2.2c-0.1,0-7.5-1.8-10-6.6c-1.1-2.2-1.1-4.7,0.1-7.7c0-0.1,0.1-0.1,0.1-0.2c0.1-0.3,1.9-6.4,9.9-5.8    c1.1,0.1,2.1-0.7,2.1-1.8c0.1-1.1-0.7-2.1-1.8-2.1c-8.9-0.7-13,5.2-14,8.6c-1.6,4-1.6,7.7,0.1,11c1,1.9,2.5,3.5,4.1,4.7h-2.5    c-2,0-3.6,0.2-5.1,0.7c-4.6-3.3-9.8-10.3-9.8-10.4c-0.5-0.7-1.3-1-2.1-0.7c-0.8,0.2-1.4,0.9-1.5,1.7l-1.5,13.2    c-0.2,1.3-0.7,2.1-1.6,2.6c-1.9,1.1-5,0.8-7,0.4c0.7-1.9,3.4-2.5,3.5-2.5c0.9-0.2,1.6-1,1.6-2l-0.2-22.2c0-1.1-0.2-2.1-0.7-3.1    c-0.8-1.8-1.5-4.3-2-6.1c1,0.1,2.1,0.1,3.3,0.1c0,0,0,0,0,0c2.1,0,4.4-0.1,6.9-0.4c0.2,0,0.4-0.1,0.5-0.1c2.6-1,6.5-3.8,8.7-8.4    c1.7,1,3.5,1.6,5.4,1.7c3.4,0.3,8.9,0.4,16.2,0.3c0.7,0,1.4,0.2,2,0.5c5.4,3,17.3,11.5,12.7,24.1c0,0,0,0.1,0,0.1c0,0,0,0.1,0,0.1    c-3,5.5-6.7,12.3-6.9,13.8c-0.2,1-0.1,3,0,4.6L44.4,87.2z M82.1,78.5c-1.1,1.1-2.4,1.8-3.9,2.1c0-0.1,0.1-0.1,0.1-0.2    c0.1-0.2,0.2-0.4,0.3-0.7c0.1-0.1,0.1-0.2,0.2-0.4c0.1-0.2,0.2-0.5,0.4-0.7c0.1-0.1,0.1-0.2,0.2-0.3c0.2-0.3,0.3-0.7,0.5-1    c0.1-0.2,0.2-0.3,0.2-0.5c0.1-0.2,0.2-0.5,0.4-0.7c0.1-0.2,0.2-0.3,0.3-0.5c0.1-0.3,0.3-0.6,0.4-0.8c0.1-0.1,0.1-0.3,0.2-0.4    c0.2-0.4,0.4-0.8,0.6-1.1c0.1-0.1,0.2-0.3,0.2-0.4c0.2-0.3,0.3-0.6,0.5-0.9c0.1-0.1,0.1-0.3,0.2-0.4c0.2-0.4,0.5-0.8,0.7-1.2    c0,0,0,0,0,0l2.3-1.4C85.5,72.1,84.5,76.1,82.1,78.5z"
          />
          <path
            d="M25.1,31.2H25c-1.1,0-2,0.9-2,2s0.9,2,2,2h0.1c1.1,0,2-0.9,2-2S26.2,31.2,25.1,31.2z"
          />
        </g>
      </g>
    </svg>