 <svg
      xmlns="http://www.w3.org/2000/svg"
      xmlns:xlink="http://www.w3.org/1999/xlink"
      xmlns:serif="http://www.serif.com/"
      viewBox="0 0 834 1042.5"
      version="1.1"
      xml:space="preserve"
      style=""
      x="0px"
      y="0px"
      fill-rule="evenodd"
      clip-rule="evenodd"
      stroke-linejoin="round"
      stroke-miterlimit="2"
      fill="#ffffff"
    >
      <g transform="matrix(1,0,0,1,-3750,-1875)">
        <g transform="matrix(8.33333,0,0,8.33333,3750,1875)">
          <rect x="0" y="0" width="100" height="100" style="" fill="none" />
          <g transform="matrix(0.12,0,0,0.12,-450,-225)">
            <path
              d="M4025.57,2390.79C4031.9,2350.73 4042.2,2311.46 4058.39,2274.29C4077.07,2231.39 4103.87,2191.22 4141.92,2163.8C4142.78,2163.18 4143.64,2162.57 4144.51,2161.97L4143.07,2162.96L4198.31,2095.68C4191.52,2086.29 4184.71,2076.92 4177.96,2067.5C4165.95,2050.57 4163.39,2027.44 4171.68,2008.26C4178.73,1991.94 4193.56,1978.1 4211.34,1977.23C4218.74,1976.87 4226.19,1978.64 4232.71,1982.25L4299.65,2019.77C4300.09,2019.66 4300.54,2019.55 4300.98,2019.44C4301.4,2019.34 4301.82,2019.24 4302.23,2019.14C4310.57,2017.24 4319.12,2016.28 4327.65,2016.28C4327.86,2016.28 4328.07,2016.28 4328.29,2016.28C4344.91,2016.42 4362.15,2017.71 4377.96,2022.13C4397.23,2027.51 4414.92,2038.09 4428.93,2052.62C4432.73,2056.59 4436.45,2060.63 4440.69,2064.09C4449.87,2071.6 4460.76,2076.98 4472.32,2079.8L4530.29,2093.78C4533.45,2094.94 4534.44,2094.99 4537.07,2097.2C4541.88,2101.22 4543.97,2108.05 4542.42,2114.51C4533.71,2150.92 4508.24,2181.99 4473,2195.78L4412.77,2219.28L4337.78,2251.04C4336.98,2252.19 4336.03,2253.24 4334.94,2254.14L4336.45,2385.76C4336.77,2386.08 4337.09,2386.41 4337.41,2386.74C4370.71,2421.65 4383.31,2476.56 4365.99,2523.7C4389.38,2538.48 4404.37,2565.99 4404.45,2593.42L4404.45,2593.45C4404.08,2596.72 4404.26,2597.66 4402.8,2600.68C4400.65,2605.15 4396.39,2608.58 4391.49,2609.7C4390.28,2609.97 4389.02,2609.97 4387.79,2610.11C4304.67,2610.11 4221.51,2610.29 4138.36,2610.11C4096.36,2609.91 4055.28,2586.67 4033.73,2550.07C4033.56,2549.77 4033.38,2549.47 4033.21,2549.17C4033.03,2549.13 4032.86,2549.08 4032.68,2549.03C4027.98,2547.66 4023.84,2544.76 4019.26,2542.61C3984.33,2526.19 3948.77,2510.05 3918.07,2486.62C3886.55,2462.55 3865.29,2426.75 3848.8,2389.83C3827.83,2342.85 3813.33,2293.37 3799.77,2243.67C3787.7,2199.45 3791.54,2151.09 3810.88,2110.19C3819.28,2092.41 3831.35,2073.89 3851.72,2072.54C3852.63,2072.48 3853.54,2072.46 3854.45,2072.47C3871.08,2072.72 3886.42,2082.55 3899.79,2092.91C3935.92,2120.94 3963.96,2159.82 3979.3,2201.57C3991.23,2234.03 3996.38,2268.36 4003.97,2302.44C4010.56,2332.02 4017.84,2361.53 4025.57,2390.79ZM4290.43,2052.71C4290.07,2052.54 4289.72,2052.37 4289.36,2052.22C4265.02,2038.57 4240.88,2024.55 4216.33,2011.29C4215.37,2010.78 4214.3,2010.51 4213.2,2010.52C4211.62,2010.54 4210.16,2011.07 4208.92,2012.18C4205.91,2014.88 4204.73,2016.73 4203.35,2019.27C4198.47,2028.25 4199.16,2039.86 4205.21,2048.3L4232.85,2086.58C4234.66,2089.77 4236.1,2093.25 4235.99,2096.85C4235.88,2100.48 4234.24,2103.81 4232.22,2106.91L4167.36,2185.91C4163.9,2189.57 4159.26,2192.31 4155.13,2195.62C4119.09,2224.51 4095.39,2266.96 4079.77,2310.9C4060.71,2364.53 4053.01,2422.26 4050.7,2478.81C4047.6,2512.61 4064.3,2547.45 4094.41,2564.87C4107.72,2572.57 4123.15,2576.7 4138.48,2576.78C4143.43,2576.79 4148.38,2576.8 4153.33,2576.8C4143.76,2567.68 4135.43,2557.15 4128.62,2545.54C4128.62,2545.54 4126.43,2541.47 4126.19,2537.91C4125.61,2529.14 4132.95,2520.57 4142.06,2520.16C4142.53,2520.14 4142.99,2520.14 4143.46,2520.15C4145.6,2520.28 4145.96,2520.41 4146.91,2520.65C4153.91,2522.42 4157.68,2529.67 4161.75,2535.58C4175.26,2555.18 4195.41,2570.49 4218.34,2576.82C4246.4,2576.81 4274.45,2576.78 4302.51,2576.78L4368.22,2576.78C4368.13,2576.51 4368.03,2576.25 4367.93,2575.98C4362.88,2562.81 4351.99,2552.05 4338.62,2547.2L4335.02,2545.37C4332.97,2543.6 4330.9,2541.78 4329.63,2539.41C4327.69,2535.81 4327.17,2531.51 4328.11,2527.61C4328.53,2525.9 4329.33,2524.24 4330.05,2522.83C4349.32,2484.91 4341.22,2435.45 4309.09,2405.62L4308.6,2405.17L4307.42,2403.85C4306.56,2403.27 4305.71,2402.63 4304.89,2401.96C4276.8,2378.77 4235.52,2372.93 4202.03,2387.82C4191.83,2392.35 4182.43,2398.65 4174.3,2406.32L4173.11,2407.4C4165.17,2413.7 4152.07,2411.46 4147.42,2402.05C4144.19,2395.53 4146.03,2387.16 4151.4,2382.09C4152.06,2381.47 4152.71,2380.86 4153.38,2380.26C4177.11,2358.74 4208.84,2346.26 4241.24,2346.02C4241.64,2346.02 4242.05,2346.02 4242.45,2346.02C4263.43,2346.11 4284.23,2351.33 4302.83,2360.93L4301.53,2247.44L4220.06,2201.02C4219.44,2200.65 4219.27,2200.57 4218.68,2200.14C4211.59,2195.12 4209.54,2184.15 4214.75,2176.86C4215.17,2176.26 4215.3,2176.13 4215.76,2175.57L4260.3,2124.65C4263.72,2120.93 4268.47,2118.87 4273.6,2118.97C4283.62,2119.68 4291.66,2130.11 4288.91,2140.06C4288.46,2141.66 4287.78,2143.2 4286.88,2144.6C4286.44,2145.3 4285.92,2145.95 4285.39,2146.59L4254.28,2182.16L4322.79,2221.19L4400.21,2188.4C4420.61,2180.44 4441.06,2172.61 4461.41,2164.52C4480.72,2156.79 4496.77,2141.18 4505.01,2121.97C4489.9,2118.33 4474.35,2115.61 4459.58,2110.97C4448.12,2133.66 4430.88,2153.85 4408.03,2163.57C4388,2172.09 4364.18,2172.88 4344.61,2163.04C4324.98,2153.17 4315.6,2125.73 4329.15,2104.63C4336.21,2093.63 4347.86,2086.13 4358.92,2080.21C4368.1,2075.22 4375.87,2067.67 4381.68,2059.03C4373.2,2055 4364.01,2052.45 4354.55,2051.61C4352.41,2051.43 4350.28,2051.23 4348.15,2051.04C4353.58,2058.02 4352.71,2069.63 4344.93,2075.16C4339.57,2078.96 4331.92,2079.08 4326.31,2075.62L4290.43,2052.71ZM3990.87,2388.36L3896.02,2409.72C3905.84,2426.98 3917.42,2443.16 3933.32,2456.18C3958.64,2476.93 3988.22,2491.27 4018.12,2505.27C4017.13,2498.3 4016.73,2491.22 4016.96,2484.14C4016.06,2481.43 4015.44,2478.58 4014.63,2475.81C4006.15,2446.85 3998.42,2417.63 3990.87,2388.36ZM3948.51,2214.98L3832.77,2237.98C3840.78,2267.23 3849.03,2296.64 3859.01,2325.41L3969.27,2299.47C3966.68,2287.61 3964.15,2275.7 3961.59,2263.78C3958.03,2247.3 3954.12,2230.78 3948.51,2214.98ZM4366.52,2117.79C4366.52,2127.93 4374.74,2136.15 4384.88,2136.15C4395.02,2136.15 4403.24,2127.93 4403.24,2117.79C4403.24,2107.65 4395.02,2099.43 4384.88,2099.43C4374.74,2099.43 4366.52,2107.65 4366.52,2117.79Z"
            />
          </g>
        </g>
      </g>
    </svg>