    <svg
      xmlns="http://www.w3.org/2000/svg"
      xmlns:xlink="http://www.w3.org/1999/xlink"
      version="1.1"
      x="0px"
      y="0px"
      viewBox="0 0 32 40"
      enable-background="new 0 0 32 32"
      xml:space="preserve"
      fill="#ffffff"
    >
      <path
        d="M24.731,15.151c-0.016-0.029-0.025-0.06-0.048-0.086c-0.244-0.283-0.501-0.554-0.756-0.824  c0.799-0.478,1.621-0.928,2.459-1.329c0.719-0.344,1.024-1.209,0.681-1.929c-0.179-0.376-0.512-0.657-0.913-0.77  c-2.649-0.744-5.377-0.947-8.102-0.604c-0.014,0.002-0.024,0.01-0.037,0.013C13.576,7.128,8.418,6.01,3.219,6.557  C2.493,6.633,1.964,7.286,2.04,8.011C2.059,8.2,2.121,8.386,2.218,8.549c2.785,4.702,7.459,8,12.823,9.047  c0.421,0.082,0.812,0.303,1.1,0.623c0.358,0.396,0.54,0.908,0.514,1.441c-0.021,0.419-0.175,0.81-0.43,1.133  c-0.825-0.418-1.739-0.653-2.664-0.665c-0.495,0.009-0.84,0.364-0.846,0.831c0,0.034,0.01,0.141,0.017,0.174  c0.117,0.563,0.208,1.14,0.286,1.714c-0.195,0.074-0.388,0.155-0.588,0.216c-0.924-2.83-3.945-4.441-6.825-3.608  c-0.359,0.104-0.71,0.246-1.043,0.421c-0.171,0.09-0.296,0.241-0.353,0.425c-0.057,0.185-0.039,0.38,0.05,0.548  c0.077,0.146,0.203,0.264,0.358,0.33c3.047,1.284,4.626,4.75,3.595,7.892c-0.06,0.183-0.045,0.378,0.042,0.55  c0.087,0.171,0.236,0.3,0.421,0.361c0.072,0.023,0.146,0.035,0.222,0.035c0.088,0,0.177-0.017,0.261-0.049  c1.279-0.496,2.325-1.442,2.925-2.65c4.003-0.426,7.939-1.752,11.386-3.835c1.011-0.611,1.786-1.545,2.231-2.635  c1.068,0.263,2.115,0.609,3.135,1.038c0.11,0.047,0.227,0.07,0.343,0.07c0.113,0,0.227-0.022,0.334-0.066  c0.219-0.089,0.391-0.259,0.48-0.475c0.093-0.218,0.094-0.468,0.003-0.682C28.967,18.244,27.055,16.291,24.731,15.151z   M25.884,11.177c0.123,0.035,0.226,0.121,0.281,0.237c0.106,0.223,0.012,0.49-0.21,0.596c-0.939,0.449-1.863,0.955-2.753,1.497  c-1.155-1.126-2.407-2.129-3.738-3.001C21.627,10.376,23.781,10.586,25.884,11.177z M13.75,21.135  c0.571,0.03,1.136,0.159,1.665,0.377c-0.453,0.347-0.937,0.65-1.444,0.911C13.907,21.984,13.835,21.548,13.75,21.135z   M22.514,19.316c-0.275-0.031-0.518,0.18-0.54,0.457c-0.023,0.275,0.182,0.517,0.456,0.54c0.765,0.064,1.519,0.184,2.268,0.33  c-0.375,0.817-0.975,1.517-1.747,1.984c-3.321,2.007-7.116,3.286-10.974,3.697c-0.328,0.035-0.614,0.232-0.765,0.527  c-0.42,0.827-1.077,1.5-1.881,1.938c0.775-3.268-0.793-6.708-3.765-8.268c0.105-0.039,0.211-0.074,0.318-0.105  c2.413-0.698,4.943,0.695,5.642,3.105c0.124,0.428,0.572,0.677,1.002,0.556c1.529-0.434,2.96-1.227,4.141-2.292  c0.595-0.537,0.944-1.273,0.984-2.073c0.041-0.8-0.232-1.568-0.77-2.162c-0.432-0.479-1.018-0.81-1.65-0.934  c-2.735-0.534-5.269-1.703-7.449-3.347c1.542-0.272,3.107-0.332,4.668-0.147c0.276,0.034,0.522-0.164,0.555-0.438  c0.032-0.274-0.164-0.523-0.438-0.555c-1.951-0.23-3.911-0.121-5.828,0.32C5.309,11.193,4.068,9.71,3.078,8.039  c-0.024-0.04-0.039-0.085-0.044-0.131C3.016,7.73,3.145,7.57,3.323,7.551c7.181-0.751,14.288,1.793,19.36,6.845  c-1.225-0.321-2.513-0.437-3.814-0.302c-0.216,0.022-0.41,0.127-0.548,0.295c-0.137,0.168-0.2,0.38-0.178,0.598  c0.018,0.168,0.086,0.324,0.196,0.449c0.324,0.371,0.632,0.757,0.923,1.154c0.162,0.223,0.474,0.271,0.699,0.108  c0.223-0.163,0.271-0.476,0.107-0.699c-0.235-0.322-0.481-0.635-0.737-0.941c4.126-0.265,8.03,2.108,9.675,5.815  C26.932,20.026,24.749,19.502,22.514,19.316z"
      />
      <path
        d="M10.311,8.044c-0.634,0-1.15,0.516-1.15,1.15s0.516,1.15,1.15,1.15s1.15-0.516,1.15-1.15S10.945,8.044,10.311,8.044z   M10.16,9.195c0-0.083,0.067-0.15,0.15-0.15s0.15,0.067,0.15,0.15C10.461,9.361,10.16,9.361,10.16,9.195z"
      />
      <path
        d="M14.389,10.768c-0.269,0.063-0.436,0.332-0.373,0.601c0.09,0.384,0.019,0.793-0.196,1.124  c-0.15,0.232-0.084,0.542,0.147,0.692c0.084,0.055,0.179,0.081,0.272,0.081c0.164,0,0.324-0.08,0.42-0.228  c0.362-0.558,0.483-1.25,0.331-1.897C14.927,10.871,14.66,10.708,14.389,10.768z"
      />
      <path
        d="M15.943,11.787c-0.274,0.033-0.47,0.281-0.438,0.556c0.04,0.335-0.04,0.677-0.225,0.961  c-0.15,0.232-0.084,0.542,0.147,0.692c0.084,0.055,0.179,0.081,0.272,0.081c0.164,0,0.324-0.08,0.419-0.228  c0.313-0.48,0.446-1.057,0.379-1.625C16.466,11.95,16.212,11.752,15.943,11.787z"
      />
      <path
        d="M17.587,12.814c-0.001,0-0.002,0-0.003,0c-0.275,0.001-0.498,0.227-0.497,0.502c0.001,0.284-0.079,0.56-0.234,0.797  c-0.15,0.231-0.085,0.541,0.146,0.692c0.084,0.055,0.179,0.081,0.272,0.081c0.163,0,0.323-0.08,0.419-0.227  c0.262-0.402,0.399-0.868,0.396-1.348C18.086,13.037,17.862,12.814,17.587,12.814z"
      />
    </svg>