    <svg
      xmlns="http://www.w3.org/2000/svg"
      xmlns:xlink="http://www.w3.org/1999/xlink"
      version="1.1"
      x="0px"
      y="0px"
      viewBox="0 0 44 55"
      style="enable-background: new 0 0 44 44"
      xml:space="preserve"
      fill="#ffffff"
    >
      <g>
        <g>
          <circle cx="8" cy="20" r="1" />
          <path
            d="M19,19c0.552,0,1-0.448,1-1s-0.448-1-1-1c-1.103,0-2-0.897-2-2c0-0.552-0.448-1-1-1s-1,0.448-1,1    C15,17.206,16.794,19,19,19z"
          />
          <path
            d="M24,17c2.206,0,4-1.794,4-4c0-0.552-0.448-1-1-1s-1,0.448-1,1c0,1.103-0.897,2-2,2c-0.552,0-1,0.448-1,1S23.448,17,24,17z    "
          />
          <path
            d="M33,24c-1.103,0-2-0.897-2-2c0-0.381-0.216-0.729-0.558-0.897c-0.343-0.17-0.75-0.128-1.052,0.104    c-1.385,1.064-3.396,1.064-4.78,0c-0.439-0.338-1.066-0.255-1.402,0.183c-0.337,0.438-0.255,1.066,0.183,1.402    c1.688,1.299,3.993,1.549,5.919,0.75C29.915,24.985,31.341,26,33,26c0.552,0,1-0.448,1-1S33.552,24,33,24z"
          />
          <path
            d="M21.39,26.208c-1.385,1.064-3.396,1.064-4.78,0c-0.439-0.338-1.065-0.255-1.402,0.183s-0.255,1.066,0.183,1.402    c1.046,0.805,2.328,1.207,3.61,1.207s2.564-0.402,3.61-1.207c0.438-0.336,0.52-0.964,0.183-1.402    C22.457,25.952,21.829,25.87,21.39,26.208z"
          />
          <path
            d="M44,20c0-1.861-1.278-3.43-3.002-3.874C41,16.084,41,16.042,41,16c0-2.757-2.243-5-5-5c-0.363,0-0.725,0.041-1.077,0.121    C34.506,8.782,32.457,7,30,7c-0.635,0-1.255,0.124-1.852,0.37C26.954,6.482,25.504,6,24,6c-1.816,0-3.529,0.693-4.825,1.929    C18.222,7.325,17.123,7,16,7c-1.804,0-3.512,0.838-4.646,2.236C10.924,9.081,10.467,9,10,9c-1.448,0-2.766,0.795-3.468,2.037    C5.1,11.262,4,12.505,4,14c0,0.856,0.364,1.624,0.941,2.171L2.062,18.09C0.771,18.959,0,20.398,0,21.94    c0,2.553,2.073,4.63,4.62,4.63c0.188,0,0.363-0.003,0.52-0.026l3.977-0.44c0.155,0.81,0.468,1.585,0.941,2.266    C10.024,28.561,10,28.773,10,29c0,1.831,1.25,3.373,2.929,3.84L13,33.123V35.5c0,1.378,1.122,2.5,2.5,2.5s2.5-1.122,2.5-2.5    v-0.614c1.217,0.181,2.481,0.067,3.648-0.406C22.884,35.465,24.405,36,26,36c2,0,3.894-0.86,5.213-2.337    C31.785,33.887,32.383,34,33,34c0.229,0,0.449-0.031,0.67-0.06C33.832,34.071,34,34.272,34,34.57v0.93c0,1.378,1.122,2.5,2.5,2.5    s2.5-1.122,2.5-2.5V30c2.757,0,5-2.243,5-5c0-0.948-0.27-1.863-0.771-2.651C43.726,21.673,44,20.854,44,20z M9.661,24.031    L4.889,24.56c-0.092,0.014-0.177,0.01-0.269,0.01C3.175,24.57,2,23.39,2,21.94c0-0.875,0.44-1.694,1.175-2.188L7.303,17H8    c1.654,0,3,1.346,3,3C11,22.211,10.582,23.46,9.661,24.031z M16,35.5c0,0.276-0.224,0.5-0.5,0.5S15,35.776,15,35.5v-1.786    c0.316,0.22,0.652,0.406,1,0.57V35.5z M37,32.007V34v1.5c0,0.276-0.224,0.5-0.5,0.5S36,35.776,36,35.5v-0.93    c0-0.472-0.123-0.927-0.349-1.333c0.005-0.003,0.01-0.017,0.015-0.023c0.519-0.33,0.967-0.753,1.334-1.245V32.007z M41.192,22.977    C41.713,23.528,42,24.247,42,25c0,1.654-1.346,3-3,3c-0.543,0-1.06-0.148-1.536-0.441c-0.332-0.204-0.75-0.18-1.073,0.034    c-0.325,0.215-0.493,0.615-0.436,1C35.977,28.73,36,28.861,36,29c0,1.654-1.346,3-3,3c-0.542,0-1.064-0.15-1.551-0.445    c-0.455-0.276-1.041-0.149-1.341,0.286C29.172,33.193,27.636,34,26,34c-1.306,0-2.543-0.503-3.483-1.417    c-0.191-0.186-0.443-0.283-0.698-0.283c-0.158,0-0.317,0.038-0.464,0.114c-2.02,1.059-4.609,0.58-6.092-1.121    c-0.229-0.264-0.581-0.39-0.926-0.328C13.123,31.179,12,30.215,12,29c0-0.161,0.03-0.336,0.102-0.584    c0.091-0.319,0.019-0.662-0.194-0.917c-0.479-0.574-0.776-1.248-0.873-1.972C12.762,24.235,13,21.926,13,20c0-2.757-2.243-5-5-5H7    c-0.551,0-1-0.449-1-1c0-0.548,0.443-0.994,1.001-0.994c0.004,0,0.007,0,0.011,0c0.479,0.081,0.951-0.195,1.112-0.655    C8.407,11.543,9.161,11,10,11c0.401,0,0.786,0.119,1.114,0.344c0.229,0.158,0.515,0.212,0.786,0.152    c0.272-0.061,0.506-0.233,0.646-0.474C13.279,9.756,14.571,9,16,9c0.959,0,1.896,0.362,2.637,1.019    c0.206,0.182,0.479,0.271,0.75,0.248c0.273-0.023,0.524-0.158,0.695-0.373C21.041,8.69,22.469,8,24,8    c1.234,0,2.417,0.455,3.303,1.257c0.319,0.32,0.813,0.386,1.206,0.16C28.989,9.14,29.49,9,30,9c1.654,0,3,1.346,3,3    c0,0.139-0.023,0.27-0.049,0.442c-0.057,0.385,0.114,0.768,0.438,0.982c0.326,0.214,0.745,0.221,1.076,0.016    C34.939,13.148,35.456,13,36,13c1.654,0,3,1.346,3,3c0,0.202-0.029,0.415-0.094,0.691c-0.095,0.406,0.072,0.829,0.419,1.061    l0.12,0.08C39.609,17.941,39.803,18,40,18c1.103,0,2,0.897,2,2c0,0.586-0.262,1.141-0.72,1.521    c-0.212,0.177-0.341,0.433-0.358,0.708S41.003,22.775,41.192,22.977z"
          />
        </g>
      </g>
    </svg>