 <svg
      xmlns="http://www.w3.org/2000/svg"
      xmlns:xlink="http://www.w3.org/1999/xlink"
      version="1.1"
      x="0px"
      y="0px"
      viewBox="0 0 50 62.5"
      enable-background="new 0 0 50 50"
      xml:space="preserve"
      fill="#ffffff"
    >
      <g>
        <path
          fill-rule="evenodd"
          clip-rule="evenodd"
          d="M41.637,30.685c1.06,0.337,2.443,0.776,3.8,0.083l2.76,4.11   c-0.175,0.267-0.739,0.672-0.898,0.718l-4.331-0.531c-3.23-0.411-6.299,1.948-8.699,3.813l-1.047,0.804   c-0.94,0.701-2.496,3.095-2.496,4.499v1.996H28.68v-2.343c0-2.891-1.05-4.235-3.304-4.235c-0.47,0-0.987,0.054-1.527,0.112   c-0.838,0.093-1.746,0.197-2.637,0.046c-0.91-0.159-1.734-0.438-2.458-0.684c-1.353-0.458-2.513-0.75-3.386-0.287   c-1.558,0.826-1.687,3.304-1.685,5.674v1.716h-2.046v-2.436c0-1.119-0.33-4.413-1.304-6.915c-0.077-0.198-0.222-0.36-0.406-0.459   c-4.747-2.55-8.103-7.913-8.16-13.039c-0.046-4.094,1.98-7.506,5.718-9.62c2.765-1.644,6.303-1.888,10.049-2.147   c4.944-0.34,10.429-0.72,14.1-4.88c-1.749,5.372-8.007,6.125-13.202,6.748c-1.377,0.167-2.677,0.322-3.784,0.558   c-6.817,1.43-8.642,5.396-9.124,7.632c-0.82,3.808,0.904,8.145,4.188,10.549c2.655,1.938,5.762,2.145,8.527,0.559   c0.876-0.5,1.582-1.013,2.205-1.467c2.124-1.538,3-2.177,6.839,0.376c1.793,1.192,4.375,2.907,6.835,2.907   c0.396,0,0.792-0.042,1.178-0.142c1.332-0.34,2.41-1.276,3.202-2.782C39.37,29.962,40.128,30.201,41.637,30.685 M40.98,27.425   c1.406,0,2.635,0.625,3.364,1.715l0.095,0.141c-0.615,0.22-1.295,0.029-2.265-0.279c-1.553-0.491-3.676-1.172-5.239,1.798   c-0.557,1.058-1.236,1.676-2.076,1.889c-2.042,0.531-4.89-1.389-6.598-2.526c-4.637-3.085-6.304-2.182-8.855-0.331   c-0.585,0.426-1.25,0.908-2.042,1.365c-2.924,1.676-5.394,0.436-6.608-0.453c-2.697-1.973-4.172-5.653-3.505-8.752   c0.677-3.14,3.433-5.368,7.762-6.279c1.031-0.217,2.293-0.368,3.631-0.529c5.566-0.668,13.688-1.648,15.039-9.399   c1.511,2.912,1.819,5.437,0.914,7.531c-1.714,3.963-7.792,6.775-18.063,8.35c-3.111,0.478-5.29,2.759-5.159,4.48   c0.088,1.161,1.314,2.343,4.618,1.069c5.656-2.874,10.543-2.327,15.149,1.733c0.882,0.778,1.843,1.174,2.856,1.174   c1.536,0,2.906-0.875,4.288-1.844C39.07,27.727,40.026,27.425,40.98,27.425z M45.59,32.569c0-0.466-0.378-0.844-0.844-0.844   c-0.466,0-0.844,0.378-0.844,0.844c0,0.466,0.379,0.844,0.844,0.844C45.212,33.413,45.59,33.035,45.59,32.569z M36.218,14.016   c1.365-3.156,0.592-6.948-2.295-11.273c-0.124-0.187-0.206-0.34-0.333-0.458c-0.367-0.338-0.965-0.296-1.286,0.091   c-0.097,0.117-0.141,0.24-0.205,0.374C29.15,8.99,23.447,9.384,17.411,9.8c-3.786,0.261-7.701,0.532-10.81,2.377   c-4.307,2.438-6.653,6.405-6.6,11.17c0.063,5.724,3.584,11.473,8.797,14.414c0.817,2.275,1.073,5.151,1.073,5.979v3.318   c0,0.489,0.396,0.884,0.884,0.884h3.811c0.488,0,0.884-0.396,0.884-0.884v-2.713c-0.001-2.39,0.249-3.734,0.746-3.997   c0.293-0.155,1.085,0.092,1.991,0.397c0.784,0.268,1.674,0.567,2.719,0.75c1.063,0.187,2.142,0.079,3.131-0.03   c0.477-0.05,0.927-0.102,1.339-0.102c0.792,0,1.537,0,1.537,2.471v3.225c0,0.489,0.396,0.884,0.884,0.884h3.811   c0.486,0,0.882-0.396,0.882-0.884v-2.878c0-0.705,1.172-2.626,1.787-3.084l1.075-0.824c2.263-1.758,4.82-3.791,7.4-3.455   l4.484,0.541c0.828,0,2.088-0.847,2.548-1.707c0.297-0.558,0.287-1.149-0.03-1.623l-2.963-4.412l-0.98-1.461   c-1.065-1.586-2.826-2.494-4.831-2.494c-1.313,0-2.629,0.414-3.707,1.169c-1.792,1.26-3.426,2.147-4.962,0.794   c-4.957-4.368-10.628-5.072-16.492-2.288c-0.732,0.348-1.517,0.694-2.343,0.694c-0.225,0-0.339-0.042-0.339-0.012   c-0.008-0.056,0.014-0.291,0.269-0.665c0.499-0.734,1.686-1.68,3.397-1.942C27.868,21.712,34.219,18.639,36.218,14.016z"
        />
      </g>
    </svg>