    <svg
      xmlns="http://www.w3.org/2000/svg"
      xmlns:xlink="http://www.w3.org/1999/xlink"
      version="1.1"
      x="0px"
      y="0px"
      viewBox="0 0 100 125"
      enable-background="new 0 0 100 100"
      xml:space="preserve"
      fill="#ffffff"
    >
      <path
        d="M85.786,42.115l6-15c0.615-1.54-0.133-3.284-1.671-3.901c-1.548-0.617-3.286,0.133-3.901,1.671  L80.59,38.948l-9.464,5.678c-0.631-1.167-1.371-2.262-2.18-3.303l7.179-7.204C76.685,33.556,77,32.794,77,32V11c0-1.657-1.343-3-3-3  s-3,1.343-3,3v19.761l-6.293,6.315c-0.981-0.764-2.013-1.464-3.106-2.071C63.607,27.521,57.888,20,50,20  c-7.896,0-13.605,7.526-11.6,15.004c-1.094,0.607-2.125,1.307-3.106,2.071L29,30.761V11c0-1.657-1.343-3-3-3s-3,1.343-3,3v21  c0,0.794,0.315,1.556,0.875,2.118l7.179,7.204c-0.808,1.041-1.549,2.137-2.18,3.303l-9.464-5.678l-5.624-14.062  c-0.615-1.537-2.358-2.282-3.901-1.671c-1.538,0.617-2.287,2.361-1.671,3.901l6,15c0.245,0.608,0.68,1.121,1.242,1.458l11.251,6.75  c-0.214,0.876-0.384,1.767-0.498,2.677H17c-1.339,0-2.517,0.888-2.884,2.175l-6,21c-0.456,1.594,0.467,3.253,2.06,3.709  c1.594,0.458,3.255-0.472,3.709-2.06L19.263,59h6.945c0.17,1.353,0.44,2.675,0.826,3.95l-6.497,9.337C20.188,72.79,20,73.388,20,74  v15c0,1.657,1.343,3,3,3s3-1.343,3-3V74.94l3.985-5.727C34.286,75.705,41.647,80,50,80s15.714-4.295,20.015-10.786L74,74.94V89  c0,1.657,1.343,3,3,3s3-1.343,3-3V74c0-0.612-0.188-1.21-0.538-1.714l-6.497-9.337c0.386-1.274,0.656-2.596,0.826-3.95h6.945  l5.379,18.825c0.456,1.594,2.115,2.517,3.709,2.06c1.592-0.456,2.515-2.115,2.06-3.709l-6-21C85.517,53.888,84.339,53,83,53h-9.208  c-0.114-0.91-0.285-1.801-0.498-2.677l11.251-6.75C85.106,43.235,85.542,42.723,85.786,42.115z M50,26  c3.635,0,6.424,3.225,5.949,6.756C54.379,32.35,51.956,32,50,32c-1.96,0-4.302,0.33-5.949,0.756C43.576,29.222,46.368,26,50,26z   M50,74c-9.926,0-18-8.074-18-18c0-7.584,4.721-14.074,11.373-16.72C55.129,34.605,68,43.321,68,56C68,65.926,59.926,74,50,74z"
      />
    </svg>