 <svg
      xmlns="http://www.w3.org/2000/svg"
      data-name="Layer 1"
      viewBox="0 0 68 85"
      x="0px"
      y="0px"
      fill="#ffffff"
    >
      <path
        d="M27.29,67a16.42,16.42,0,0,1-1.71-.08c-6.78-.11-12-2.06-15.62-5.8A18.35,18.35,0,0,1,5.1,49C3.62,37.25,17.56,22.57,18.15,22c4.26-5.3,4.48-8.18,3.9-9.66a3.82,3.82,0,0,0-2.29-2,8.35,8.35,0,0,1-2.84,5.48c-1.62,1.22-3.73,1.49-6.29.79a4.51,4.51,0,0,1-2.84-1.68A5.38,5.38,0,0,1,7,10.47,11.26,11.26,0,0,1,10.9,3.83,12,12,0,0,1,22.24,1.51a11.89,11.89,0,0,1,6.51,6.75c1.57,4.24.71,9.42-2.55,15.4-.09.15-5.61,9.08-7.86,15.51C21.4,36.88,26,36,32.18,36.48a39.5,39.5,0,0,1,14.65,4.38A37.4,37.4,0,0,0,54,43.77a9.16,9.16,0,0,0,3.57.59,1,1,0,0,1,.45,2l-1.15.31,5.13.13a1,1,0,0,1,.89.6,1,1,0,0,1-.17,1.06C47.51,65.43,32.38,67,27.29,67ZM18.88,8H19c.15,0,3.69.53,4.89,3.56,1.14,2.87-.29,6.81-4.25,11.73-.19.21-14,14.74-12.56,25.55a.76.76,0,0,1,0,.15,16.59,16.59,0,0,0,4.32,10.79c3.21,3.34,8,5.08,14.23,5.17.27,0,17,1.67,34.13-16.24l-6.47-.16,1.16.8a1,1,0,0,1,.38,1.12,1,1,0,0,1-1,.7H49.32l1.54,1.62A1,1,0,0,1,51,53.93a1,1,0,0,1-1.05.51l-5-.87,1,2a1,1,0,0,1,0,.79,1,1,0,0,1-.54.57c-.64.26-15.67,6.5-24.62,1C17.09,55.72,15,51.8,14.57,46.32a8.23,8.23,0,0,1,.86-3.67c.62-6.36,8.7-19.44,9.05-20,2.93-5.39,3.75-10,2.41-13.67a10.14,10.14,0,0,0-5.23-5.56,10.08,10.08,0,0,0-9.48,1.94A9.33,9.33,0,0,0,9,10.82a3.64,3.64,0,0,0,.39,2.8,2.55,2.55,0,0,0,1.57.92l.16,0c2,.55,3.5.4,4.61-.43C17.81,12.57,17.87,9,17.87,9a1,1,0,0,1,.35-.75A1,1,0,0,1,18.88,8ZM17.23,43.52a6.06,6.06,0,0,0-.66,2.69c.36,4.75,2.14,8.15,5.27,10.07,6.85,4.17,18.4.45,21.82-.81l-1.34-2.78a1,1,0,0,1,.11-1,1,1,0,0,1,1-.38l3.93.68-1.06-1.11a1,1,0,0,1-.2-1.08,1,1,0,0,1,.92-.61h3.71l-1.27-.88a.94.94,0,0,1-.39-.55h0s0,0,0,0h0a1,1,0,0,1,.06-.63,1.59,1.59,0,0,1,.13-.22,1,1,0,0,1,.44-.31l.1,0,3.35-.9a39.48,39.48,0,0,1-7.2-2.95A37.8,37.8,0,0,0,32,38.48C25.9,38,21.32,39,18.78,41.41a7.11,7.11,0,0,0-1.42,1.85A1.58,1.58,0,0,1,17.23,43.52Z"
      />
      <path
        d="M13.24,16.9a10.1,10.1,0,0,1-2.61-.38,4.66,4.66,0,0,1-1.7-.64A1,1,0,1,1,10,14.18a3.05,3.05,0,0,0,1,.37l.15,0a5.71,5.71,0,0,0,4-.06,1,1,0,1,1,1,1.76A6.15,6.15,0,0,1,13.24,16.9Z"
      />
      <path
        d="M30,60.22A17.59,17.59,0,0,1,20.81,58C17.09,55.72,15,51.8,14.58,46.32a8.11,8.11,0,0,1,.94-3.83c1.62-3.23,5.83-6.89,16.66-6a39.4,39.4,0,0,1,14.65,4.39,37.44,37.44,0,0,0,7.22,2.9,9,9,0,0,0,3.55.59,1,1,0,0,1,.46,1.94l-5.73,1.55,2.13,1.47a1,1,0,0,1-.57,1.83H49.32l1.55,1.62A1,1,0,0,1,51,53.93a1,1,0,0,1-1.05.51l-5-.87,1,2a1,1,0,0,1,0,.78,1,1,0,0,1-.55.57A44.85,44.85,0,0,1,30,60.22ZM29,38.35c-7.5,0-10.52,2.65-11.71,5h0a6.48,6.48,0,0,0-.74,2.82c.37,4.76,2.14,8.16,5.28,10.07,6.85,4.18,18.39.45,21.8-.81l-1.33-2.78a1,1,0,0,1,1.07-1.42l3.94.68-1.07-1.11A1,1,0,0,1,47,49.15h3.7l-1.27-.88a1,1,0,0,1,.31-1.79l3.38-.91a38,38,0,0,1-7.21-2.94A37.8,37.8,0,0,0,32,38.48C31,38.39,30,38.35,29,38.35ZM16.41,42.94h0Z"
      />
      <path
        d="M9.88,28a1,1,0,0,1-1-1.26c.82-3.13.07-8.59-.45-11.57a1,1,0,0,1,1.51-1,3.05,3.05,0,0,0,1,.37l.15,0a5.66,5.66,0,0,0,4.06-.09,1,1,0,0,1,1.41,1.15A96,96,0,0,1,12.92,26,3.26,3.26,0,0,1,9.88,28Zm.83-11.49a40.51,40.51,0,0,1,.51,8.32c.72-1.79,2-5.19,2.93-8A9.09,9.09,0,0,1,10.71,16.54Z"
      />
    </svg>