    <svg
      xmlns="http://www.w3.org/2000/svg"
      xmlns:xlink="http://www.w3.org/1999/xlink"
      version="1.1"
      x="0px"
      y="0px"
      viewBox="0 0 100 125"
      enable-background="new 0 0 100 100"
      xml:space="preserve"
    >
      <path
        fill="#ffffff"
        d="M94.092,37.536c-0.124-0.128-2.827-2.907-5.857-3.624l-0.84-4.73l-1.104,0.231  c-0.15,0.031-3.558,0.778-5.55,3.861c-1.054,0.23-3.915,0.786-7.031,0.786c-2.05,0-3.835-0.239-5.308-0.709  c-1.247-0.398-2.301-0.576-3.416-0.576c-0.847,0-1.621,0.101-2.519,0.218c-1.166,0.151-2.488,0.324-4.397,0.324  c-3.079,0-6.872-0.459-11.592-1.403c-1.846-0.369-3.64-0.556-5.331-0.556c-12.633,0-16.661,10.337-16.853,10.854  c-0.065,0.169-6.575,16.903-17.024,13.727C7.064,55.875,5.981,55.583,5,56.102c-0.564,0.3-0.969,0.805-1.17,1.462  c-0.263,0.859-0.035,1.493,0.203,1.874c0.53,0.848,1.51,1.115,1.866,1.187c0.38,0.118,1.917,0.55,4.03,0.55  c2.964,0,7.063-0.849,10.7-4.603c2.859-2.951,4.553-5.215,5.558-6.857c0.533,3.438,0.369,7.339-2.323,9.431l-0.499,0.348  l1.74,12.645h10.339h0.88h6.226l-0.098-1.144c-0.189-2.308-1.031-3.927-2.502-4.853c-1.758-1.107-3.905-0.803-5.043-0.523  c-0.379-0.558-0.543-1.053-0.478-1.461c0.089-0.565,0.62-0.894,0.619-0.894c4.63-2.566,6.713-6.728,7.455-8.611  c2.896,1.24,6.888,2.426,11.585,2.426c2.435,0,4.846-0.325,7.213-0.968c-0.054,3.04,0.389,9.704,4.685,15.615l0.328,0.412h5.642  h3.381h6.637l-0.068-1.119c-0.111-1.853-1.264-5.334-4.835-5.334c-0.504,0-1.039,0.082-1.601,0.227  c-0.515-1.811-0.938-4.511,0.033-5.52c1.835-1.903,5.929-7.937,6.767-11.799c0.163-0.004,0.347-0.005,0.547-0.005  c1.764,0,6.124,0.212,8.498,2.174l0.34,0.282l0.44-0.034c1.631-0.126,4.875-1.342,5.479-5.042l0.051-0.313l-3.393-7.972  L94.092,37.536z M6.512,58.525l-0.165-0.041c-0.177-0.032-0.411-0.137-0.448-0.17c0,0-0.003-0.035,0.021-0.113  c0.094-0.311,0.532-0.223,0.708-0.173c2.226,0.677,4.276,0.648,6.147,0.146l0.186,0.447C9.51,59.473,6.692,58.585,6.512,58.525z   M15.033,57.908l-0.206-0.496c1.303-0.625,2.501-1.472,3.593-2.442l0.339,0.375C17.541,56.531,16.273,57.352,15.033,57.908z   M20.272,53.761l-0.296-0.33c1.038-1.132,1.954-2.35,2.745-3.54l0.405,0.441C22.412,51.299,21.481,52.439,20.272,53.761z   M24.382,48.468l-0.466-0.508c0.508-0.879,0.938-1.701,1.288-2.417c0.073,0.234,0.146,0.482,0.219,0.74  C25.335,46.594,25.078,47.312,24.382,48.468z M38.793,67.975c0.62,0.393,1.052,1.037,1.292,1.975h-3.708  c-0.079-0.625-0.284-1.518-0.782-2.298C36.413,67.468,37.777,67.329,38.793,67.975z M33.983,61.356  c-0.146,0.081-1.431,0.843-1.705,2.412c-0.118,0.675-0.021,1.368,0.273,2.075c-0.566-0.072-1.183-0.065-1.85,0.037  c-0.326-1.138-0.573-3.246,1.455-4.54c3.43-2.189,5.154-4.394,6.582-8.622c0.47,0.289,1.069,0.634,1.776,0.999  C39.937,55.215,38.115,59.066,33.983,61.356z M67.437,69.949c-3.977-5.625-4.021-12.458-3.919-14.582  c0.601-0.216,1.199-0.465,1.793-0.723c-0.095,3.434,0.229,10.93,4.16,15.305H67.437z M92.305,48.767  c-2.834-2.048-7.119-2.364-9.489-2.364c-0.949,0-1.562,0.05-1.587,0.053l-0.942,0.079l-0.058,0.943  c-0.157,2.598-3.779,8.476-5.867,10.921l-4.37-1.26l-0.605,2.1l3.698,1.066c-0.2,0.568-0.304,1.184-0.334,1.815l-2.039,0.219  l0.232,2.173l1.936-0.207c0.251,1.671,0.755,3.081,0.867,3.379l0.392,1.044l1.036-0.412c0.711-0.283,1.349-0.467,1.896-0.467  c1.473,0,2.133,1.163,2.426,2.101h-4.159h-2.694c-6.261-4.688-5.06-16.817-5.046-16.942l0.209-1.979l-1.791,0.919  c-3.836,1.947-7.848,2.939-11.926,2.939c-8.88,0-15.231-4.711-15.292-4.759l-1.261-0.955l-0.448,1.519  c-0.307,1.04-0.615,1.941-0.942,2.746c-1.084-0.138-3.177-0.582-4.559-2.019l-1.576,1.516c1.557,1.618,3.664,2.282,5.123,2.557  c-0.724,1.194-1.599,2.137-2.757,3.031l-2.639-1.313l-0.973,1.957l1.586,0.789c-2.828,2.318-2.149,5.959-1.33,7.658l0.389,0.806  l0.867-0.222c1.534-0.394,2.638-0.307,3.256,0.359c0.36,0.389,0.544,1.079,0.633,1.392h-7.155l-1.313-9.535  c5.474-5.001,1.709-15.535,0.798-17.835c0.588-1.338,3.002-5.99,8.696-8.05c-0.84,1.95-1.668,4.93-1.003,8.279l2.144-0.424  c-0.795-4.001,1.026-7.486,1.687-8.584c0.97-0.163,2.007-0.257,3.127-0.257c0.6,0,1.219,0.033,1.847,0.086  c-0.917,1.692-2.419,5.545-1.244,11.209l2.14-0.443c-1.37-6.604,1.326-10.251,1.441-10.402l-0.104-0.081  c0.273,0.047,0.546,0.09,0.821,0.146c1.518,0.304,2.935,0.553,4.278,0.76c-0.896,1.927-1.972,5.526-0.925,10.568l2.14-0.443  c-1.073-5.171,0.344-8.519,1.065-9.806c1.813,0.22,3.45,0.335,4.945,0.357c-0.882,1.957-1.888,5.509-0.865,10.438l2.141-0.444  c-1.149-5.535,0.556-8.983,1.206-10.047c1.08-0.068,1.96-0.182,2.718-0.28c0.828-0.108,1.545-0.179,2.252-0.175  c-0.878,1.965-1.863,5.503-0.848,10.399l2.141-0.443c-1.028-4.953,0.231-8.243,0.975-9.642c0.153,0.041,0.306,0.081,0.467,0.133  c1.688,0.539,3.697,0.813,5.973,0.813c4.184,0,7.84-0.912,7.994-0.951l0.454-0.114l0.229-0.408c0.881-1.562,2.299-2.414,3.274-2.843  l0.699,3.936l0.824,0.081c2.225,0.219,4.612,2.406,5.196,2.973l2.976,6.991C94.873,47.985,93.095,48.596,92.305,48.767z"
      />
      <polygon
        fill="#ffffff"
        points="89.441,41.339 91.49,41.612 89.441,39.289 "
      />
    </svg>