    <svg
      xmlns="http://www.w3.org/2000/svg"
      data-name="Layer 2"
      viewBox="0 0 64 80"
      x="0px"
      y="0px"
      fill="#ffffff"
    >
      <path
        d="M16.36,50a4,4,0,0,1-1-.12l-.18,0a4,4,0,0,1-3-4.41l.6-4.16a5.65,5.65,0,0,1,2.46-3.9l1.48-1L15.7,32a1,1,0,0,1,.15-.83l4.65-6.5a18.31,18.31,0,0,1,4.28-4.28l2-1.4a18.3,18.3,0,0,1,10.71-3.44h4a18.47,18.47,0,0,1,17.26,12l1.93,5.16,0,.11L62,37.82A1,1,0,0,1,61.45,39L51.31,44a1.31,1.31,0,0,1-.28.09l-15.2,2.53-.16,0H30.46l-6.85-.86a3.66,3.66,0,0,0-3.72,2A4,4,0,0,1,16.36,50Zm1.56-12-1.5,1a3.67,3.67,0,0,0-1.59,2.52l-.6,4.17a2,2,0,0,0,1.47,2.18l.17,0a1.94,1.94,0,0,0,2.23-1,5.66,5.66,0,0,1,5.75-3.07l2.87.35Zm13,6.66h4.66l15-2.5,9.28-4.64-1-4.23-1.92-5.11A16.42,16.42,0,0,0,41.48,17.53h-4a16.38,16.38,0,0,0-9.55,3.06l-2,1.4a16.45,16.45,0,0,0-3.81,3.82l-4.38,6.13,1.06,4.26Z"
      />
      <path
        d="M14.13,40.33h-3.8a.91.91,0,0,1-.23,0L3.76,38.77a1,1,0,0,1-.76-1c0-2.66,1.64-6.07,4.29-6.95l2.16-.72a6.27,6.27,0,0,1,4.21.08l3.17.54a1,1,0,0,1,.82,1.15,1,1,0,0,1-1.15.82l-3.27-.55L13,32.11A4.31,4.31,0,0,0,10.08,32l-2.16.72c-1.45.48-2.59,2.49-2.86,4.28l5.39,1.3h3.68a1,1,0,1,1,0,2Z"
      />
      <path
        d="M55.6,50.47a4,4,0,0,1-3.92-4.58l.66-4.14a1,1,0,1,1,2,.31l-.65,4.14a2,2,0,0,0,1.94,2.27,2,2,0,0,0,2-1.9l.09-2.89a1,1,0,0,1,.08-.41l2.35-5.59a1,1,0,1,1,1.84.77l-2.27,5.42-.09,2.76A4,4,0,0,1,55.6,50.47Z"
      />
      <path
        d="M21.73,34h0a1,1,0,0,1-.82-.45l-2.53-3.8A1,1,0,0,1,20,28.65l1.73,2.59,5-7-1.93-1.93a1,1,0,0,1,0-1.42,1,1,0,0,1,1.41,0l2.53,2.54a1,1,0,0,1,.11,1.28l-6.33,8.87A1,1,0,0,1,21.73,34Z"
      />
      <path
        d="M28.07,25.13a1,1,0,0,1-.94-.64,1,1,0,0,1,.59-1.29L37,19.74l-1-2.89a1,1,0,1,1,1.89-.63L39.15,20a1,1,0,0,1-.6,1.25l-10.13,3.8A1.12,1.12,0,0,1,28.07,25.13Z"
      />
      <path
        d="M26.8,39.07a1,1,0,0,1-.71-.3L21,33.71a1,1,0,0,1,0-1.42,1,1,0,0,1,1.41,0L27.13,37l4.93-1L30.87,22.8a1,1,0,1,1,2-.18l1.27,14.09a1,1,0,0,1-.8,1.07L27,39.05Z"
      />
      <path
        d="M33.13,37.8a1,1,0,0,1-.12-2l9.26-1.16V22.38L38,21.3a1,1,0,1,1,.48-1.94l5.07,1.27a1,1,0,0,1,.76,1V35.53a1,1,0,0,1-.88,1L33.26,37.79Z"
      />
      <path
        d="M43.27,22.6a1,1,0,0,1-.32-2l3.12-1V17.45a1,1,0,1,1,2,0v2.88a1,1,0,0,1-.69,1l-3.8,1.27A1.12,1.12,0,0,1,43.27,22.6Z"
      />
      <path
        d="M47.07,39.07a1,1,0,0,1-.56-.17l-3.8-2.53a1,1,0,1,1,1.11-1.67L47.28,37l5-1L51.18,25.86,46.36,21a1,1,0,1,1,1.41-1.41l5.07,5.06a1,1,0,0,1,.29.6l1.26,11.4a1,1,0,0,1-.79,1.09l-6.34,1.27Z"
      />
      <path
        d="M52.13,26.4a1,1,0,0,1-.38-1.92L55.34,23a1,1,0,0,1,.77,1.85l-3.6,1.48A1,1,0,0,1,52.13,26.4Z"
      />
      <path
        d="M53.4,37.8a1,1,0,0,1-.47-1.88l6.43-3.41a1,1,0,1,1,.94,1.77l-6.43,3.4A1,1,0,0,1,53.4,37.8Z"
      />
      <circle cx="9.52" cy="33.92" r="0.92" />
      <path d="M7.53,36.24l3.54-1.19S10,33.61,7.53,36.24Z" />
    </svg>