    <svg
      xmlns="http://www.w3.org/2000/svg"
      data-name="Layer 1"
      viewBox="0 0 128 160"
      x="0px"
      y="0px"
      fill="#ffffff"
    >
      <path
        d="M82.54675,120.033l1.147-2.333a1.7788,1.7788,0,0,1,1.58938-1.02246h2.52251a1.9009,1.9009,0,0,0,1.36331-.57422,1.99884,1.99884,0,0,0,.56739-1.42676L89.5498,103.3387a7.04425,7.04425,0,0,0-.73878-3.0166c-1.94553-3.89178-5.93907-11.83588-12.89274-16.56635a18.375,18.375,0,0,0-4.18617-.16315c-.0575.00543-.11884.01434-.17664.02008,8.554,3.82422,13.31878,13.30774,15.46646,17.60394a4.96322,4.96322,0,0,1,.52784,2.15527l.25586,11.30566H85.28312a3.765,3.765,0,0,0-3.38385,2.13965l-1.147,2.333a1.98383,1.98383,0,0,0,.09522,1.93652,1.91394,1.91394,0,0,0,1.6304.91309h9.39079a3.93131,3.93131,0,0,1,.00916-1.99878Z"
      />
      <path
        d="M95.4155,114.56563a73.49825,73.49825,0,0,1-.59217-14.19763,5.04731,5.04731,0,0,0-.42286-2.21973,25.697,25.697,0,0,1-1.21029-3.52032,40.66026,40.66026,0,0,0-2.64385-3.29364,26.64333,26.64333,0,0,0,2.01523,7.60107,3.06607,3.06607,0,0,1,.26368,1.34473c-.17231,3.9502-.26392,11.03162.90047,15.9762A5.90591,5.90591,0,0,1,95.4155,114.56563Z"
      />
      <path
        d="M47.37523,109.36214l-1.96293,4.00293a.8855.8855,0,0,1-.79787.50293h-.99227l-1.00447,2.08521a3.69343,3.69343,0,0,1,.7682-.08521h1.22854a2.87318,2.87318,0,0,0,2.59331-1.62207l1.96341-4.00293a6.80989,6.80989,0,0,0,.69142-2.98242l-.00049-16.82617a16.682,16.682,0,0,0-.98006-4.623q-1.15661-.13458-2.29508-.37592a16.14611,16.14611,0,0,1,1.2756,5.02435v16.80078A4.7938,4.7938,0,0,1,47.37523,109.36214Z"
      />
      <path
        d="M53.53842,107.08773a3.83583,3.83583,0,0,1-.37549,1.65039l-4.68416,9.752a.89649.89649,0,0,1-.80128.50977l-6.55322.05377-.93752,1.94623h7.49073a2.90645,2.90645,0,0,0,2.604-1.64355l4.68416-9.75293a5.84321,5.84321,0,0,0,.57276-2.51562V85.8904q-1,.07288-2,.10144Z"
      />
      <path
        d="M127.151,98.07308c-3.92536-2.73047-10.66474-8.84961-11.70284-19.14551C113.9472,64.04183,100.80879,47.5223,83.642,46.658,54.05552,45.16781,39.1368,34.56234,35.46633,31.54866c3.17291-2.44141,3.5904-4.86133,3.608-4.97266A1.00036,1.00036,0,0,0,38.38,25.4637C31.51118,23.35531,23.61846,14.995,23.53936,14.911a.996.996,0,0,0-.499-.28906l-5.9669-1.41309-8.236-7.92969a1.00166,1.00166,0,0,0-1.30569-.07031A9.00956,9.00956,0,0,0,3.84516,11.495a.98722.98722,0,0,0,.03662.31152l1.40969,5.00488L3.1806,14.96566a1.00076,1.00076,0,0,0-1.49612.207L.63563,16.784a3.9792,3.9792,0,0,0,.37208,4.80273C10.086,31.80062,12.02207,46.56917,12.05478,46.80257c2.37895,11.13672,7.76283,17.21484,8.39028,17.89355,4.56649,6.41992,11.09736,17.24023,11.2126,17.4248a18.73347,18.73347,0,0,1,3.71686,9.43359v17.31641a4.95261,4.95261,0,0,1-.50636,2.17773l-2.02933,4.125a.94871.94871,0,0,1-.85451.53711h-1.27a5.85828,5.85828,0,0,0-4.51668,2.12207L24.60676,119.744a1.98544,1.98544,0,0,0,1.51858,3.25586H35.1504a2.97059,2.97059,0,0,0,2.6602-1.67578l4.84188-10.05176a5.99168,5.99168,0,0,0,.58839-2.58008V82.28994c.19776.0827.90661.34763,1.05709.4027,6.33767,2.31945,13.71968,1.06224,20.32952-.06976,2.45122-.4209,4.7662-.81836,6.91663-1.02148A28.75449,28.75449,0,0,1,81.26547,82.908c8.63687,2.21777,13.97925,10.89258,17.1712,16.07617a16.07009,16.07009,0,0,0,2.63579,3.69727l.2417,12.90625H98.66471a3.91472,3.91472,0,0,0-3.503,2.1543l-1.2051,2.37207a1.98418,1.98418,0,0,0,1.76175,2.88574h10.23993a1.97872,1.97872,0,0,0,1.61673-.84082l1.937-2.75781a1.97489,1.97489,0,0,0,.26954-1.71387c-1.55227-5.13086-1.29739-13.81445-1.11574-17.31055a3.89654,3.89654,0,0,0-1.07863-2.89355c-2.70513-2.87012-3.50739-7.51562-3.70221-8.96875-.00439-.0293-.00977-.05957-.01367-.08887A17.27388,17.27388,0,0,0,105.13357,86.41c.07135.163.46473.99725.59144,1.24933,4.14613,8.43622,11.483,13.60712,20.20385,14.027a1.98749,1.98749,0,0,0,1.22219-3.61328ZM107.023,85.71029a38.958,38.958,0,0,1-2.149-10.44678,1,1,0,0,0-1.99711.10742,44.67544,44.67544,0,0,0,1.3503,8.24768,16.59007,16.59007,0,0,1-2.06144,3.75037,1.91285,1.91285,0,0,0-.24952,1.50879c.20166,1.50488,1.10109,6.67285,4.21541,9.97656a1.917,1.917,0,0,1,.53712,1.41895c-.187,3.60059-.44483,12.56055,1.20559,17.97949l-1.916,2.74707-10.21844.02051,1.2051-2.37207a1.9227,1.9227,0,0,1,1.71976-1.06055h2.64946a1.98179,1.98179,0,0,0,1.97757-2.01758l-.21924-12.92187a1.92785,1.92785,0,0,0-.74806-1.52051,19.13446,19.13446,0,0,1-2.18461-3.19238c-3.13091-5.084-8.95768-14.5459-18.31478-16.94629a30.00623,30.00623,0,0,0-10.46942-1.37793c-2.22563.21-4.57674.61328-7.066,1.04-7.08649,1.217-15.10091,2.58093-21.29225-.72095a6.72832,6.72832,0,0,1-3.0158-4.11108,1,1,0,0,0-1.96781.35742,8.76846,8.76846,0,0,0,3.22711,4.97009v27.54553a3.97913,3.97913,0,0,1-.39063,1.71289l-4.84139,10.05176a.95948.95948,0,0,1-.85841.543l-9.006.02344,1.59085-1.91113a3.86411,3.86411,0,0,1,2.97906-1.40137h1.27a2.93507,2.93507,0,0,0,2.64946-1.6543l2.02884-4.125a6.9618,6.9618,0,0,0,.71193-3.06055l-.00049-17.3418a20.18,20.18,0,0,0-4.05329-10.5166c-.06641-.10937-6.67248-11.05566-11.28536-17.53125a.95831.95831,0,0,0-.08936-.1084c-.05567-.05957-5.58652-5.99316-7.921-16.90234-.07813-.62891-2.022-15.52344-11.52266-26.21191a1.97558,1.97558,0,0,1-.19092-2.38281l.42042-.64551L6.5083,20.53109a.99992.99992,0,0,0,1.62063-1.02441l-2.2725-8.06641a6.98849,6.98849,0,0,1,2.24613-4.0918l7.7809,7.49121a.99626.99626,0,0,0,.4629.252l5.944,1.40723c1.29055,1.34082,8.00014,8.09082,14.51832,10.54a8.96488,8.96488,0,0,1-2.99334,3.2356,6.53231,6.53231,0,0,1-3.50482.907.99555.99555,0,0,0-1.09963.88864C29.11732,32.95919,29.98232,33.2,30.685,33.2a8.34611,8.34611,0,0,0,2.92357-.59558c2.75548,2.46808,17.69282,14.4278,49.93283,16.05164,15.90067.80078,28.52833,16.70215,29.91654,30.47266,1.11867,11.0918,8.34341,17.65918,12.56663,20.55957C117.70508,99.28829,110.74445,94.10946,107.023,85.71029Z"
      />
      <path
        d="M20.78644,18.12093l-1.60715-.12042s-.12946-.00891-.16779.03784c-.04419.054.02771.144.02771.144l.95711,1.27356a1.3986,1.3986,0,0,0,1.0035.54016.921.921,0,0,0,.89693-.39771.83061.83061,0,0,0-.10663-.93744A1.39894,1.39894,0,0,0,20.78644,18.12093Z"
      />
    </svg>